<mxfile host="app.diagrams.net" agent="Mozilla/5.0 (Windows NT 10.0; Win64; x64) AppleWebKit/537.36 (KHTML, like Gecko) Chrome/135.0.0.0 Safari/537.36 Edg/135.0.0.0" version="26.2.13">
  <diagram name="ページ1" id="7FVfqiWdI7hvyVahSLt4">
    <mxGraphModel dx="1207" dy="739" grid="1" gridSize="10" guides="1" tooltips="1" connect="1" arrows="1" fold="1" page="1" pageScale="1" pageWidth="827" pageHeight="1169" math="0" shadow="0">
      <root>
        <mxCell id="0" />
        <mxCell id="1" parent="0" />
        <mxCell id="I3xwzQkAmhKLlkZfw3kO-5" value="" style="group" vertex="1" connectable="0" parent="1">
          <mxGeometry x="100" y="230" width="80" height="120" as="geometry" />
        </mxCell>
        <mxCell id="I3xwzQkAmhKLlkZfw3kO-3" value="" style="image;html=1;image=img/lib/clip_art/computers/iPad_128x128.png" vertex="1" parent="I3xwzQkAmhKLlkZfw3kO-5">
          <mxGeometry y="40" width="80" height="80" as="geometry" />
        </mxCell>
        <mxCell id="I3xwzQkAmhKLlkZfw3kO-4" value="注文端末" style="text;html=1;align=center;verticalAlign=middle;resizable=0;points=[];autosize=1;strokeColor=none;fillColor=none;" vertex="1" parent="I3xwzQkAmhKLlkZfw3kO-5">
          <mxGeometry x="5" width="70" height="30" as="geometry" />
        </mxCell>
        <mxCell id="I3xwzQkAmhKLlkZfw3kO-6" value="" style="group" vertex="1" connectable="0" parent="1">
          <mxGeometry x="330" y="250" width="80" height="110" as="geometry" />
        </mxCell>
        <mxCell id="I3xwzQkAmhKLlkZfw3kO-1" value="" style="image;html=1;image=img/lib/clip_art/computers/Server_Rack_128x128.png" vertex="1" parent="I3xwzQkAmhKLlkZfw3kO-6">
          <mxGeometry y="30" width="80" height="80" as="geometry" />
        </mxCell>
        <mxCell id="I3xwzQkAmhKLlkZfw3kO-2" value="サーバ" style="text;html=1;align=center;verticalAlign=middle;resizable=0;points=[];autosize=1;strokeColor=none;fillColor=none;" vertex="1" parent="I3xwzQkAmhKLlkZfw3kO-6">
          <mxGeometry x="10" width="60" height="30" as="geometry" />
        </mxCell>
        <mxCell id="I3xwzQkAmhKLlkZfw3kO-7" value="" style="group" vertex="1" connectable="0" parent="1">
          <mxGeometry x="324" y="440" width="90" height="120" as="geometry" />
        </mxCell>
        <mxCell id="I3xwzQkAmhKLlkZfw3kO-8" value="" style="image;html=1;image=img/lib/clip_art/computers/iPad_128x128.png" vertex="1" parent="I3xwzQkAmhKLlkZfw3kO-7">
          <mxGeometry y="40" width="80" height="80" as="geometry" />
        </mxCell>
        <mxCell id="I3xwzQkAmhKLlkZfw3kO-24" style="edgeStyle=orthogonalEdgeStyle;rounded=0;orthogonalLoop=1;jettySize=auto;html=1;curved=1;endArrow=none;startFill=0;" edge="1" parent="I3xwzQkAmhKLlkZfw3kO-7" source="I3xwzQkAmhKLlkZfw3kO-9">
          <mxGeometry relative="1" as="geometry">
            <mxPoint x="40" y="-80" as="targetPoint" />
          </mxGeometry>
        </mxCell>
        <mxCell id="I3xwzQkAmhKLlkZfw3kO-9" value="厨房調理端末" style="text;html=1;align=center;verticalAlign=middle;resizable=0;points=[];autosize=1;strokeColor=none;fillColor=none;" vertex="1" parent="I3xwzQkAmhKLlkZfw3kO-7">
          <mxGeometry x="-10" width="100" height="30" as="geometry" />
        </mxCell>
        <mxCell id="I3xwzQkAmhKLlkZfw3kO-10" value="" style="group" vertex="1" connectable="0" parent="1">
          <mxGeometry x="330" y="60" width="90" height="120" as="geometry" />
        </mxCell>
        <mxCell id="I3xwzQkAmhKLlkZfw3kO-11" value="" style="image;html=1;image=img/lib/clip_art/computers/iPad_128x128.png" vertex="1" parent="I3xwzQkAmhKLlkZfw3kO-10">
          <mxGeometry y="40" width="80" height="80" as="geometry" />
        </mxCell>
        <mxCell id="I3xwzQkAmhKLlkZfw3kO-12" value="厨房窓口端末" style="text;html=1;align=center;verticalAlign=middle;resizable=0;points=[];autosize=1;strokeColor=none;fillColor=none;" vertex="1" parent="I3xwzQkAmhKLlkZfw3kO-10">
          <mxGeometry x="-10" width="100" height="30" as="geometry" />
        </mxCell>
        <mxCell id="I3xwzQkAmhKLlkZfw3kO-19" value="" style="group" vertex="1" connectable="0" parent="1">
          <mxGeometry x="510" y="230" width="180" height="180" as="geometry" />
        </mxCell>
        <mxCell id="I3xwzQkAmhKLlkZfw3kO-17" value="" style="shape=image;verticalLabelPosition=bottom;labelBackgroundColor=default;verticalAlign=top;aspect=fixed;imageAspect=0;image=data:image/png,iVBORw0KGgoAAAANSUhEUgAAAyAAAAMgCAYAAAGsdzb+AAAACXBIWXMAABYlAAAWJQFJUiTwAAAgAElEQVR4nOy9CXgcV5nv/bbU6l1La7Vly5a8705ix0lM7CSQBGeDucANhAESLhAyF8LwXWZ7YHiGGYaZO8M2Q/Lcm5jMEBiSQCDMzTZkIcRxiBNviXdb8iLZ2qx9a6lXqb/nre5TOlV1qrq61d2qlt7fE6W7Ty3drrf+53/2ssXjcSCsQxHFwlpQQCwGBcRiUEAsBgXEYlBALAYFxGJQQCwGBcRiUEAsBgXEYlBALAYFxGJQQCwGBcRiUEAsBgXEYlBALAYFxGJQQCwGBcRizImAnO/sul6TWKAU3DCgocC44Q/2+7w2TWKWvyMTzP4uuybFYrT19MTLvb5MLuZFv8/bqNnBBCPjgaxfBL/Pq0kTYfmAgOoCpRGcpSw4mahm/5tvwIE392rS02Xbjp1wzY4bTB9VEAHhYcHJUDUjfp+3QrODhbB0QM53d0eLi8TljgxVUz4T1eQDSwekuKjI1O+boWosFZyCy7KMYIGx2WwjZR5vucGuCqykmjkVEEY8Hi+fqWpmC0vXQ7DIC4kLnEyxgS3De9hmsw2Vebx+zQYBuSj2NtbVFXY9hAUDiU1OQuJfY2P/4RUGPcMXEY/H/ZmoJt8URJY1GZtMBoILCNhg0pYIVLHdDkVpSIdTQLDc63Ort1/u7dMco+INAFBULq7duCEr/mP5gESj0YRCErKQsyzbdGSgqKgIpuSAcPukDpJbpJrVTU2aHVXIwWhubdVsnAmWD8h4MMgpI6kNRXBsUOwqlgKnztJYOIqLizXnZTz0D9+GT3zuCwB1C+S0dLI0E8FLC8uaOvOQgaEhORDyRVYExwalPh9EIhFFMJK7ye8xS7PblfcfBkPNg1//ppySqdfMpPhsyYDwhv7CSy/Btq1XKy80U0jyw9v735HSb9p5A1cKU2ZvLpdT8z2igDBuvvNDsHbTZvlzJsHJJDCWDwgDA4NsvWqL9GqzTSukurISiooSny/39oLT4YSSEqaGRGC8Ho/me4wCwpOOavYePKj4/OGbbkwrKJYLCF8506sPYHBYYCrKywDiicDYimzSK2ZP+Ppfr7wCO973PkkhZaXaC8kC8tff+Sf4+2/8pWa7ms1Xb4Odt3xQSm250ArBUEizj5p0A2KZHkMMBP5hENgf6NyRd+7aBQtqa+DQu4fB5XRCOBJJ/IUjkpewz7fc9H5wO12w960/aM7BYyYYyNGDB+QgmglGJsx6QFgg2OfDF84otvOBUQcHA4OMjo1KAYgkgxKOKP/YfjypsitUzWwwawERKQL/tixbIwUlncA0LFoENVWVUFXph1PNZxRKuXDpkua7zcCrpsJvqsUlK+S9HsLUgBcYLyxe+ApvKSyvWyTvg0FBjl48K1UKEVeJA65dvQHGJiakz3xQeK+5/tprpdfBoSGIRGOa78+E4aEh+Sje4HNB3gLCAhGJRiEYCUtpTBElxXZ45+wJKY0FA5JtWO/fuFX+zF94FlDggsNvr0ze1eg12eboqdM5u045DwivCCQUi8DJSxdgVf0SKHUliqLRyZgcCD6rwmDwF/l0RxtMRBJmutBfpfkuPdWoudDSrEmzCjkLiF7x1WV3JFRht8M7LUpVYDB4Rfz++CGFYjAYLEh48dXb2feUejxC1TBe/PXTmjSrkPV6iFoRetkRIzY1CUfbzkqfWDB+9P3vSa9f+dqfwdnudmjv79E9vqX7EowFJxTb2vq6YXPjSs2+fHDMVgrVoIekk2XNWsWQV8TloQFwO7RNFV1DfdA9NCC9Z6Wphqo6WFnfIKW9s+8t+N2Lz0H1gkWJtinMhsp8MDIakIKDigCdwACX3amzOqwolnqmx0Xx237z859B56WLmnOJYIaey4DMOMtSKwIp93jh7RatKur9NdIfy2747On1V16G48ePQ1lljRSM0cFEn8T9998vvT7y0I+kdAzM6Y5WRWAjsSgcv3ReOt/oxLh07saahVBVmuhWn4rHdYvNH/nUZ+T3ZlSTS0OHmShE3f8syquBu2s3LlkuXTTgsqaO9nb4zdO/lC76o48+CmND/VI6BoUFYvfu3XJw1mzYDP39/XDfffdJ6Uw1Vy5bDUWgvRHZd/M3Bf6G69du1uzL//7fPf8cnD5+VLNPutkV5CPL0hsIoL5refCOHBofA7+3VEplgcALjRcfUb8v9VdL7VHqdF9FJUxGo7Dt2mvB7U6U0rZet90wOxsYG5F8BbibAWkZOA5+VzXUeBcq9tfzGssFhLXCitqXeNjFYfAX4SeP/h+49YO3wdtvvw1dXV1Q6vNAT3cXxKJR+OwXHgCn0wlPPvkk3PvAA/D8r56GtrPNcNMtu+Dw4cMQi4Thll23QVFxMbz26quwfft26Zz79u2D2tuq4BPrPit/NyrSYS+B4fEAnO/pUPwGSAZDzaqqjYoURZH72FGpOd6SAWFg12mpW9usLeLQ2/sUqS+98Kz0+md/9Q0p+7n11lvhlVdekRVRX18Pd955p7QtND4KkXAYdt35YcU5jh0/DlOLYuBrUv4GDAwq8r0LzbBz3ZVgT/YYsgtc5vHC6ycOS+8X12sLH+rAsGOjsVjPqZazdZqNBuQ1IDx6qglHoxCKhOGnjzwCXq8XNm9W5t+vvfxfye7XhHcwJgKjkiIQDMSGDRvgxIkTcObMGRgcHIQH755uo/pOsxca65rAXlwC57pa4MHrviGlm6koMp9hgenoCmvUxFD3dZhh1gIinxAvrE5w8KJgYBDMbsrKyiAUCslFXFQNC0pwbBg+8MHbpfeYJeH++Ircfd2bUNewVHHu884/hV8ce0wKhqhS2Nx1CQKhRDuY2mcmp6agZ2QA+kaHJUWpySQQjJwG5IU39sY3rFmtSddDTzVYTG0+cwZef/llWLFiBdTW1iq2r9y0CZ5/+mlYsyZx4Q4cOAAPuheB49JlxX6tt/9Ofu/e/ITi+9S1eB6+9IXvVy5sgIZqbU40k0AwchqQZ1/fI++8ed1azXY9sLRU5hFPWFGrhgcVse/aD8BYaTk89MOHpbavJVWJC3eysxWqHv476b1IEcBd+NrySmioUgZdXfLjyUYgGHkLCE86wdFTDbbsvvzb/4Lzzc3Q0NAA7e3t8PItH9Hsh4FBMBjYZlVkm+7S0VOFw26XK6oImny2syY9ZiUgjLRUk8JrkC++eEp6HW+qAG/rsPT+0TvWgbOkBFzJphk2VWwoMC69qou9DL0bAXIUCMasBoQnG6qZik9JHVLtoyFoKHMpsj69OXssMKzYyxCVnHIZCEbe27L0YBUoM4HRmw2F2ZG67QmzthocaaIDHyhRECBPgciUnHdQ8TXbdIKjpxrM/9t6Es3xjXXaktHloSEIRSLC460cCEbabVnpZFt6pJOdgUFwWPBcDoekHPwT7TsbgSix22O377i+RLMhBTPqD8l3cEQX24jZCES6nqEmKx1UVlINzEIgMlWDiKx34c6mavIdiJmqQUTOxvbmOzC57sljZFMNIvIy2Dofwcl1QHKhBhF5Hf2ey8DkIiC5VoOIWZuOkO3gZDMg+VKDiFmfH5KtwMw0ILOhBhGWmrCTjeCky2yqQYQlp7TlOjBWUYMIyy/xl83gWE0NIgpmzUWjwHjcbpgIBjXpYHE1iCjIZ+GqgyMKSCGoQURBP5yYBaa8tBRGxsYKTg0i6GnRFoNWtrYYFBCLQQGxGBQQi0EBsRgUEItBAbEYFBCLQQGxGBQQi0EBsRgUEItBAbEYFBCLQQGxGBQQi0EBsRgUEItBAbEYFBCLQQGxGDTqxGKQQiwGBcRiUEAsBgXEYlBALAYFxGJQQCwGBcRiUEAsBgXEYlBALAYFxGJQQCwGBcRiUEAsBgXEYlBALAYFxGJQQCwGBcRiUEAsBgXEYuT9eeozob237z2fx3OFwSku+n3eRk1qmug9qzFT/D6v6aWiLD8u62JPb7zMK35WiBHpXAQ1Zh5+lg6NdXWmf4ulFcIuTKpHWIjg7vIRv89bIdjFkEyfJq2GPdDYLAWVZek9+CUF5Sw4M1FNviiogPDMhmryQcEGhMECU2Sz9Zd6vNWaHcRYVjWWDcjJ1raPez1uTboeU/F49QxVY4ngWDYgXo/7F5pEk7DA2Gy2kTKPt9zscdku7maCZYu9fNGT/UZ8bF6mpKMavQcZZ8qcKfYi0WhMegql9C+y2RKvYIOiIltaAeIucrDc6zOfF+YZywdkcnIyGQ18sSWDY4PJKZCDU1KS1j/DncprLvf2adKMuHbjhqx5jyUDcubSpT0uZ+LRqvgovGkh2JLvbXIaBqfYXoz5WuJzcoMZ9eipZnVTk2ZfEc2trYLUmWFJD+H9Y2R0THplgWAK4dOcjhJuG6jeAxQXF2u+A7jaOF+b1lNNKrJVQrN8liUpBEARCNlLWPY1WazJ1vj3U1NTUFKivwI5C8wdH7sblq2afl58JsXnmQbG0gF54aWXpNdtW6+ezqpAGZAqvx+OHj8OK5Yv12RlfGAM4iHz4q+flt+jamajXmP5LAukklYUXn7tNdh61Rbps+wTAFBTXaVIwyDecP2O6SwumbV5PR7Fd+DFv9DSDKnYcfOtcMW2a+S9jILT0tYWvNzXJ3tRJk9osFRA+LtLry7AVMOCU15WKgWjyJYoBttsRWArSnxu7+iEiopyKCst1Zwnk9Zc3mvMPPMqk4BYoscQA8GCgYFgwcBnp6vvyDt37ZL+FtTWwKF3D0M4HIFwhP1FpddIMq2urhbcLpfm+/T46+/8k86WBBjEpx7brUnPJrMaED4QyO+PH1JsH50YN8zHMTAV5WVw+L335KBEWHCSQTl19pzmOD3+/ht/KW9xucR1x3s+fz9EY7EezYYsMSsBESkC/7YsWwMn2y/A4Qtn4EjbWcUxGCz2sHt1cN6/cydUV1ZCNMKrJaGU9ksXNd9vhlAo8cSeP//m32r2PtVyVvsg9yyR11IWr4axiXEo9Xili4+BYKxvWCa9Qz84dH46n37/xq2yWkqK7XJQeK9ZUFcrv3/n4EFoXNoI69ZMn5uRjn9899t/o0nLJXkJiJ5ZM1VgUJB6fzUs9Ce6NDAYGARGx0AvlLoSJaXoZExSDG7n1cKf+9qrr06+q9H8HiuT04CoA+F2OuWLz6uCvXc5nPDWmaPSe7zY6CGsFIjBYMciVy9fqwiAx+USqiabbNuxM0dXapqcBIQPxMXey1CRvFDBcFi++OziXtG4CoqLiuB0RxtMREIKVaBK2P5tfd1ytoWB/cPpo4qgToRC8ns91cyUa3bcAH0Dg2joheEhoqypqqwMDpw9Jb0XqSIyGYMjF1oUgfjR978nvX7la38ml7x4DxEFlj83y86ACw4fmNLychgbGdH8fjN09fTkLBiQrYrhwFggWmSzycEV3ZXOEgfsaz4mvceLNzA2It/1/HGP/uB78MD//DI8/vjjMDU1Ces3boJbdt0mbWfB4S8+g8/O1NvVpTL+96Vj8FgxTOchyHmvqfOB4P+R6uyIBy/OuxeaYdPSFWBPtsKiIu6//34pCFiPGB1M9EcsWroM7rnnHuju7obnn39eUgwIAoPfxxSE58ftoqA57HZwO6crivxvNtOUYtmA9I2MjtqLi+X2CL0LEIyE4VRHos+gqrRcUoU6a7rvvvtg3759cOidt8Dp9kI4OA5llYmS0caNG+GtN34vvWdpDAwOBnZ4fEyRnTHGQhPQ0nUJ1i1uArfDKadPQRz8Xm1TSirVfOJzX4CaugXWCog6EDx62cnxS+fh+rWbFWkYiIbGRjj57kH5QqMq8P3kZAzGR4ak94HhQfBVVErbMfvCz5iO++6688NSOvZ1XLntGun7l9ctlgsQPHx2xm6IgYkeGAj2wqqqjYp9+cDsf/MNOPDmXuk9qqPlQisEucJDKjIJSFqmPh4KlmIW5HN7NNvYPxQNPBCa0KRD8h/700cegRtvvBH27NkjXdzQ+Cjc96WvwC8ef1zKtnbv3g1FRYms7Et/9XVp/y1btsDhw4eltO3bt0uKwq5dDAa+9o8NAZT2waKqK2Hvqfek/dTZGU/LwHH5E3u/wLcYypx+hd9gqQr/GOkEI1PSUoi6WVzUviTi0Nv7FKn79u6B0dERKSCrVq2SAoSBYN6B6XfddRcsXLhQkY6qWLx4MXR0dCTOs28f1N5WpfnGT6z7rKJ0BsmRK1ivAU4xi+udmmMRPdWkk11BPrIsvVHh2MyBLbMimCogeXereemFZyXvQJyc8vggIBs2bIATJ05IQUAevPuS9PrwBQ+MRG2won4VnOtqSWy77hvgdbnlQsPQ+BgUgfbaDAZGobW3S3qPwenoCkvv1YpC9h48qElLxawFhEdPNZFYFPr6++GZJ56A2tpaWLFihXyRIRkYzKrQM3iPwKwKs6Vt27ZJwbj3gQegbPDrinP3tF+ExybWSYHAIHiTLbWikp+o8MFKZtkKBMMSAZFPjFmPTnBSqQYvPJ++ctMmWPCPP1Hs03r77+T37s1PSK/8zXDw3ClYtXCJ5txHL56V+ukd9hLpJoEsKkJNzgPCP1h+87q1mu166KkGGwn3/eEPcPTQIUktZWVliu0YmJdv+Qhs8Trhvr//PqxflBiec3lkACZ2bgHP7TdJn0W1cVTK/rMnpfdqVWBW1VRXr/k9kKVAMPIaEEY6gTGrGgYGg+ehHz4sfap6+O+kVz7QmOWsql8itwjz8MVeyKEi1MxKQHiyoZrJqSkIBBPF5i++mGgDG2+qAG/rMDx6xzrFsX5fojAwFEiUnkKRMOxrThRjeVVgZ9cN66/UfBfkKBCMWQ8II5uqQdpHQ9BQ5tIEQgQLDt8dnC9FqMl5xdAsfHk9VXDiBrOh2Gc+3SgY/HZRECBPgZgJOe8xZMExoxozcwgv9fbi5BxpmM+S2lrN9raeHuHxVg8EI+3GRbPZlhHZ8BrgAthYV2e5QGSSXcFMmt/zHRgQXGxGKBIBl8OhSJuNQJTY7bHbd1xvYtCqPlnpoLKSamYjEJmqQURWh5LOpmryHYhsqEFEzsb25jM46bbCzoRsqkFEzgdb5yMwuQ5IrtQgIq+j33MVnFwFJNdqEDEr0xGyHZhsBiSfahAx6/NDshGcbDAbahBhmQk7sxGY2VaDCEtOact1cKyiBhGWXlEum4GxohpEFMyjVzMNjpXVIKLgnoVrJjCFogYRBf1wYnVwCk0NIuhp0RaDFlK2GBQQi0EBsRgUEItBAbEYFBCLQQGxGBQQi0EBsRgUEItBAbEYFBCLQQGxGBQQi0EBsRgUEItBAbEYFBCLQQGxGBQQi0EBsRg06oQgDKAciyAMIIEQhAEkEIIwgARCEAaQQAjCABIIQRhAAiEIA0ggBGEACYQgDCCBEIQBJBCCMIAEQhAGkEAIwgASCEEYQAIhCANIIARhAAmEIAwggRCEASQQgjCABEIQBpBACMIAu/4mIld0Dw4NuRyOCoPT+/0+77AmdRYZCoxbfvkbv8+b9YdbkUCywMXLPf9Z5vP9kdkzuRwOTZqKoaHAuDqtye/ztmn2zBMj44HZ+mrT+H3erJ+TBDIDWjo6uh0lJQvANn0DlXt9ufq6ViuIZv+bb8CBN/dq0meLbTt2wjU7bsjZt5NAZoAkDhWinHaui2YuQwLJAxYQzZV+n/eIZk8iJSSQDGnr6ZlRpVUkmjKPF2y2nDxE+T0STWaQQCzE6ITmJs63aG7y+7x7NHvOY0ggGTBT90iHPIvmdYFo/pvf5/1/mj3nCSSQAkQkmlKPB4psOen3/U+BaOYN9PiDNDl98eJjbpfrc/xReA2npqYSH2w20OTtybQc5fq6ZFM0ojqT1Wisq8v6BSaBpImoeBWORKRXG/t/MkzT0dJPsxcX5/X3Zyqa5tZWTVoqyktL/21t49LP427vHD+BdRvDDotrN27Ibw5iAhJImogEMhEMcp+SDmLTpBim4YvD4QA+HvlyHJ/bA8VF+RmW1zswAEOjo5p0IIEUPiJxjI4FeIOY9hFFqFOnedxuiMVisrNo7xRxetEMbuxHv//P8MWv/YUmHfG63HlzNyYaEkiBIxLI0PBI8koC7wtymm16o24aiqTU55OLaiAoroGgeCZKtxXZTLmB0ZCRB7/+TU0a5Fk0APC3fp/3W5rUPEMCMcnZzs6hErtdMQK35dw58Psrp29Qm9pHBMLh3rC3Pq8HLrS1QcPixcIimmJ/mzBVTnemHggp8dA/fFuTZoSeaDwuF5QU560x9F/9Pu9XNak5hARiEpF7MF574w0IJushVZWVsKxpmbzNprqrbcr/SdRUVWrO+cJLL0F1VRVsWLeeO4/iLELBYFHNDOkKRISeaNxOZ9BhLzH3Q9IkHo8Hjzc3u4fHxuDDN92oyUayDQnEBDgXYiw4Md2Ua4K9b70Fo2Nj0o7lZeWwcsUK3YMq/RWSE9hs2iZhfGXvf//GG9Jv2Lb1amG9x+l04ABKzfnVMHFsvmorLG1aBs8987Rmn0zJRDSdPT0Xz1+6tFSzIQUkkFlCPTlocmoKAsEJ6X2RzQalnsS8A0ybTEM0bx84AAODg9J7r9cLa1evgQW1NTA2Pj4tkOSrQiCsgs76WDgRtbW3w+kzZ+D67duhoqxM850ijNwDRbN63Xp4+uc/zdrF50Vz9NRpzfZMyYdAqCddIAiGqHNsKh7XpGPFFSuwyHgoCLHJSc1xyHXbtmnSAoFxqXhWbLdPO4cNkoLhXQSmxZNQi/R+Yd0CCEwE4b2jR+GmHTs051fz1GO7NWk8R989JP3xoGg2XbUF/uOxRzX7z3XmpUBEglDf9C6HEw5fOKNIW1W/BEpdHs35UBDq4/nh7Eai8fm80h8P1j+u3rJV5SIgi0IWCAB09fRAcXGRKXEg/b09mrRUiESDRbMPfexueOi7/zvF0dNk0z3yxbwQiEgQDJFLIKFIGLYsW6NIK7Hb4Z2WE4q0jUuWg8OeKPfzgnr/xq3SKxZhmbvwTIRCEJ2MadKRO3ft0qT99tVX4crNV2jSUXjtly7ChtWrNdvU9PVc1qRlysXWCxpx1C2sh7s/9RlF+rJVqX+XlZmTdRCRIPSEEIyE4VSHchiFWhh6oEsMjY/BexeapT2YKPS+i0c0YSoYCcci0ajpTAtFs3rVali2dIlmmwijukeuYPWPiWCw/WxrW0M2v4bqICYRCYLBbmC9m97tcGq29Y4OQXu/siiC+xy/dB4isaj02VXigO1rNoHfWyofj8LAG585CToLOgxD7TCCYpkdfw+PkWhuu+UWTZpVybY48kVBOohIEKly7ZPtFyAUne6pLi4qhisaV2r248EbmrkCCg3FYPb7IOkSvz+eKLtjRX7nuitNH8ufQ00oEpkKRyNpjTGZTfeAHNU/yEGSiATBw27CqtJyaKxZqNmOrG9YpviMFd9D542DxsSB8OIAlRsg9f5qiE1NQe/IoJy2bcU6hTvxwuCPry2vhIaqWs33q4+BpGBcDkeReumgcDQ6FYqELbkQYCFWzhmWdBCRINLNsRl44y70V2v2RVq6L0F1aQU01dVrtjHeeP33cPTdd+XP999/PwQCAXjyySelz3d8+I9guaATEH+HkWDVYH/KkbYWORWPw+PHQhPQ0nVJTlcXzYyGr0di0XgwHNbksuFQCHb/4Lua/bPJHR+7W66g50og86ajcGAsEC2y2RRupl5nit346nJ9KkSiYfAOwXjml7+Azo4ORVpoIgCRUGIoSVlljfQ6OtgH9pIS8JQmhmehcJDdu3fDFVddBTtver/idzOMBIt0D/XDmsWNUuvU3lPvwfbVG6Um55kWyxh6ooEsF8NY8aqtvQNGkiMKss2cFYhIEGDSJURFo1K3B1Yt1LbksEq1SAiMV1/6LZw+eRLu+tjH4Ind/1dKRRHcddddsGfPHhhLBhcF8dkHvwrPPPGE9PmmD34Qnn3q5/L+paWlin2BExNyy65dsHb9Bum9nmAhKVqcUiuKy5G2szA5Nd2fotfwoAabpz1OlyadkQvRMIHksng1ZwTSNzI6ai8uLtVsUMHfOA1VdVBb7tfsIwIrwPvPntRs0RMGCvGnjzwiiWDhwkQRCMXQ0jJdxGE3OUhzLorBV1EpucThw4dhy5YtklMw1qxfKw8dv/dLD8LP/s/DUOqvll2lra0NXnnlFen9xNgw/NW3/h6aT56A+oYGKC0rV/w2vAZmb3xQ1WV4d0Un6hrql95vblwpFdfSAftosK9GRCrR5LpyzihogeDoVyOrN4M6p11etxgquHPyN4GeGJAfff970k2Nf0899RTceuutUm6PNy0vBEjm+lVVVfDRj35U+oz733PPPbIgRPujEFBcq1atUghHvf+uOz8svRYXF8PatWuhs7MThoaG5O1br9suvR44ewoCoQk53UyLG9anrl6xTr5mousRnYpA61CzJp2xqmqjJk1xvEnR5MM9YC4IRJOYonycClYuZ4huAuTQ2/sUn1964Vnp1eXxgSPZqz021C8VY/AGx6mu9913H5w4cQL27dsn39S4Lx6D9Q+sh6ArYBGPOcPAwAA888wz8v4lTheUlDhgIjAKjU3LYc36DdK5I9xEKAS/Q03tbVWaNOQT6z4rveK/W2+4ChhcCx4Uj9NZBDVVqUf8MlKJBn/TeCioSQcSiDF6AhEx03WeWN0Fi03XXHONlEOnYuWmTVKu5y2rALfHC9XV1dDV1SUdFQ2HIDg+BvVLl0FAVa9we0slIfDgtnv/5MvQ094upzIRNDQ0SH/q9PvvXQlh9wdgf/teONT1FixboG0JY5zraoEHr/uG9ClVBpOqHoezDQ+cO6VI83qKwV+hqRLKdHSFTQmQgS1ybx0+rEnPNvNGICIyEQ27OZ7/1a9gcGBATt++fbtmXyziYDGrI9liNTjQDwfefgscTic43F64+uptUn1DBF/n2HHrbQDRqDR8XQQK4n033QQbKv4DHCXGQ+NHojZ4+IJyMKSj2Alf3PZn0ntniUPx6ASMHVboWTo/7EVdHD0vElkAACAASURBVDXCYbfD26oxZoyF/ipYu7hJky5i78GDgtTcMa8FImImonnq3/9dUdQRiUYNDsg7ffK4nMrqEKtXr4bmZm1Zni86/eWQcshI36ZTEFiccKiyyipwczdvf3cnTMYSAxfdm5+Q0/HfWuZRCm9sYlwacp8KHArzVvMxxV78wEoeVtFPxyVgFgShpqAF8uzre+QTL1+6VJp3nQuMOsr04ItkPGZEc+7cOejt7ZXeY3Hu7NmzMJicBHXvAw/Agn/8ieYYNRc2N4Jt0WNyKi8KdRGKLzKhWF4/oXS1dFq8cFg8NgDw8ENgUjHbglAzZwQiohBEY7fbYZtgkhM6Re09n4H/6Ncv7z/0w4fl91ju52ceVj38d/J7UZ0inU7BwcAotPZ2KdLUomEOscBfBetMFpfAgoJQM6cFIqKxYTGuxifYMnOyJRp0CeSLL56CeLENAiu1rU/FE1HwXBqBR+9Yp9lmZhWQdy80w/D4dO+zmWZeBgru2MVz0D86/YhDs0UnqwtCzbwTiIiG+nqorEivk8ssmawoqO7lRqGo+Yf3r4Qqd6Ksj+fH7+FJ9Sy98XAYIlHlZCp1My/fKXi+p1MWVDr1iEIThBoSiA65FE0mi6OpRaMuNmXj4ZJjwZCmH8SoU1BEoQtCDQ1316G9q0v648mWaESdXqlEo25p4sGbuq0nMfmqvqpKalLNhHA0AoFgUCG+VMKYa4KYDebMnHSRaOoX1EFNpXZRtnQRicbsioIoLHZTjwWDMDYxodi+pLZWWkpIzeWhIZwYJafiOUQVeh4SRPbJ22jeV9/ZPzYRDBpHOA/U1VTDgpqanHyRGzsZBf0MRuiNbzIzJGc+CaK2umrHdRs3/kGzIcfM6nyQ1w4cHAiMj888i58hVhONHvNFELMlBhGWm1H4+qFDnaNjAf0pfnmiurISFi2oy8mXmRXNfBCElcQgoiAWbbCKaLARABsDcgHOGtx/ZG4/ldnqYhBRsOtizUXRFPLiBmoKUQwi5tTCcW8cfvfs8Oio/rjxPJGpaApVIHNFDCLm/Orub7535Mjg8PBmzYY8g0NocCiNEYUgkLksBhHz8vEHVhGNz+OB5Y3Tj8WwmkDmmxhE0PNBkrx19Nib/YOD12s2zBNIDGJIIAa8ffz4i739A7fr71GYkBjMQwJJk0ITDYlhZpBAskA2RIMP35wIasd8pQOJIfuQQHLE/pMnn7jc2/dJs2dPVyAkhvxAAskjRqIxEgiJYfYggcwyh06ffrjzcs+XsJ8EF3kmMVgLEghBGGDJB64QhFUggRCEASQQgjCABEIQBpBACMIAEghBGEACIQgDSCAEYQAJhCAMIIEQhAEkEIIwgARCEAaQQAjCABIIQRhAAiEIA0ggBGEACYQgDCCBEIQBJBCCMIAEQhAGkEAIwgBa1YQgDCAHIQgDSCAEYQAJhCAMIIEQhAEkEIIwgARCEAaQQAjCABIIQRhAAiEIA0ggBGEACYQgDCCBEIQBJBCCMIAEQhAGkEAIwgASCEEYQAIhCANIIARhAAmEIAwggRCEASQQgjCABEIQBpBACMIAEghBGEACIQgDSCAEYQAJhCAMIIEQhAEkEIIwgARCEAaQQAjCABIIQRhAAiEIA0ggBGEACYQgDCCBEIQBJBCCMIAEQhAGkEAIwgASCEEYQAIhCANIIARhAAmEIAwggViEocB4xXy/BlbEFo/H5/s1yCut3Zf/saK09K8MvvOi3+dt1KTOMkOBcUvfKH6f16ZJzAIkkBxxoav7q+U+3w+KiopmEji/3+cd1qTOAiQQIiPOdXQu9Xo8R1wORy6LSLPuKm09PZa+URrr6nIiELsmhTAN3jT2Eju4HI5cX7SlXA7e5Pd52zR7EDmBBJIFRsYD0klsYIMyrzfXX9c6FBiH2XKVh/7h25q02eTBr38zp99OAskicYjLYin3+nL9deQqeYCaeTPk9MWLjxkdiUJhf3kAXSU+FBi3RIV+LkEOkiFul+tzZo/Mo6uUk6tkFxJIHuHdJA9iYXWVEb/PS52QGUJFrFkij8Wv8mTxC/+u0GwlDCGBzDJMKGMT4/15+CXvUV0lPUggGXDm0qU92T7nVDxezcSSh85b3lVu1GwlZKgOkgEup/OGXJ5/dEKqO0CRzdZf6vFWa3bILq8n6yo5G65RyJCDWJg8uwpwrvJHmo3zFHKQAoG5is1mGynzeMtz/Kv/k1wlAQmkwIjH4+Ws9avM40XB5PQfYPVRvLmGBJImLR0d3Y6SEkv8Fs5Vhso8Xr9mB2LG0HD3NBEN+56Kx0Gdj+c6Z9ej1OOBIlv2q5Z56rPJGBrubmHiU1OQUI2N/cdVqm3AtJIP0YxNTLDvIlfJAiSQLDA1FU+oAuJgi4NKLHGYNulEWnFR7hsP4/G4n+X6uXKV+QAJJAtMxackYUhykE2CicUGrPyFYsH/YlNTmMVDUVER9nXk/PcxVwGAYLnX59bsYILLvX1pH3Ptxg3yP+6d4yc0RVO9fa0ECSQNznd3R9W5fzgSgfhUPCmMhAASkbZp0hRiicdhcmoKJpNpJfa8hMKdT1dhoigvLf03zcYCgSrpaSCqoE8Eg9wnW+L+V+SF2jTbtKXIOB0OZWegzaap+OeIjF0lE5pbW4VHkYPMUaawuMQ8wxZP1D+Sxa2EMLRpcVtSCHFOLOrWsHjyOIFQslzZl13F5/bkvH60uqlJeu0dGICh0VHNdqtBNbcZghX0eHxK+sP37E/6zKXFddKmkmkgtYbFJZHgX5z9TSX359KmpLSpGf3wpx7bDX09lxVpgeAEG10c1ByQZWqrqiSxMMFYFSpimeRUW9tXPW73D/m98SYdSw7JkLFN10HkJBu3Efh9Eh+Ki4ukItbk5CSod1B6hX46niMd+MUXHE4nfPFrfyE82utyg724WJOeI/7W7/N+K19fZgYSiElE9Y+h4ZHEG/mmVVQ0hGlq8eDbMp9PquwrD9UqgReVYLP0yW43dzPrrU7ykT/+DCxaulSTDvmZBSljlTFgVAeZAYmikY1rpYpP37FxmybNFrcl+0iUaZAsXiUSYHofbvt0OmsutrGvYZuTx8wst//NEz+T36uX1GF1FY/LBSXFub11uDFgs+oq5CAmETlI38Cg9GpT/g+UJSpxGp89+ivKudYwbauX4giNoyjTnSYWscO6xy/+7ceadD1uvvNDsHbTZuHWue4qJBCTqAXy2htvQDB5U9fV1sLSJYliSeLmVhSGuDdisVT5E2sqvPDSS7Cgrg7Wrl6jPkQ+QF2dUae7XM6U/yC94pUZ9BZqy4ercPyr3+f9qiY1B5BATIBrYOkt8xONRuHl116TP1+9Zav8Xi0WUZqjxA7BYAgW1NXKaa0XL8LJ06fhxh07uWM0Z9Gku5xOqXc+FdlYHXG2XKWnv7+zubV1Eb7/8E035txRSCAmEBWvROx96y0YHRuTtlRVVkJT43QTpk17l0tptdXVUmsY69tQ93Ggq/i8Xthy5VXceeQzKNK8Ho/gV2nJ9vKheq7idjqDDntJRp2QE6FQ56HjxxdpNnCQQCxA98DgGy6nc2c6w73VrrL1qi2afRgLamuk/VmHYEIgiRHAvGiwOIfFum1bt4LL5QJBIQ5KfebWBWYC+evv/BP8/Tf+UrM9U7bt2AnX7BBP19dzlUg02nOipaUuMD1ezDQkkFmECUP9C7AzbTKNTrq3DxyAgcFEZb68rBxWrlih2O4vL08MdmQ95tJrciSwIi0pGJsNjp04AR2dnbDjfe+TzsEKXGWl4puQ50JLM7z466cVadu2Xw8LFtbDc888rdk/U/Rc5eip05q0TCGBzAIiYfDuwQ/yS3cSERaXGFduvgKKi4ulYhErfk27RvK9UCjJ+SXJtN+++qokuoZFi8DjTl2aSVW8yrarbL56G+y85YPy50ITCA01SYLCwLZ3XhxjE+MaEeDQ8eRCb1KxAf/Mjl+6c9cu6W9BbS28d/SI1Ho1ODQEsclJqRd9cnKKez+pej8lTL/1Ax8Al8ttShxmYOLYfNVWuPtT9874fEcPHpDf9w0M9mh2sDjzXiCd/QMPq4WBDI6NSuOf9MBtbEkeHOTHxGKGrVddJQmlpKQEjp88obzxY1oRxGIC0cSm349nUH5PxdF3D8HTP/+ptBe6Sjbo6umpy/oPzTHzViBMGB6X60uajQBwpK0FDl84AwNjI5ptaphQguGQLBSz45dQKFV+P+zb/w5EIhFdocQ4ocS49JYLrXDhwnnNebMJc5XV69bDF76cl+4HyzDvhpqgMFAU2LHFwOKS2i0aquugvb8H2vq6pT9ky7I1mvPxRGIxiMS0jzowU1dBoSCXe3qh+dxZWLNqdaLuIddPuHoIVz9Jh/1vvpHBFZum+dRJ6Q+SrvK9b38LQiHjgb93fOxuTVohMW8cROQY4WhUunlFRanaMr8kiO2rN8lp6Cj4F4lFNfsz2gd6YTCgnOfAXMVMTzN2GN7wvvdBXU01HDh0UKqXGBWvkBuvv15zHhEH3twrSM0MdBUUR93Cenjwz/Wfar1s1WpNWiEx5wXS0df/Mb2i1LGLZzX7qwlHI5JQ8M9VkhjndPzSeUko+MpA0WBa78gghCJhOT0mD2FPDMdIp66SqNDXSL3trW2t8lwQaaouJxCfL3/jodT0dHfBQ9/931Lqn3/zb6HCL15Ipa29Q5NWCMzZIhYKw+t2/8rLte6Mh4LSDctWJBwLTkg3NZgoPiHrG5ZJrzj34sDZU7IoeN6/MTHURFSs4oXB3k+EQhCdjGn25an0++Haq6+WUrBZF5uIITHpEAb6egFgreaY2eC73/4b3W8dSY4wKDTmnEBEwsCiFJ+rsxUJt61YBwfOnZLesxu9qrQcGmsWas7Lg8UeJoTfHz8kvV65bDX4vaWyCEWIHsXG14VEolJz2y23SCmBQABOt7So5sQT2WbOdBS29/Zt9Hk8x9TpZjvzsN7Q2tulSBO5CroGFq2YQNSgYETHMU53tMG1qzdo0nmCkXAsEo1mNfPC3nPsRc8nn/jcF6CmboH0jdnsIGTko6Ow4B2ECcOnM1APnWF53WKoSFHur/SVSX8Oux3ebjkhH4s0VNXhwDto6bqkOQ7dYjzZkuNyOBXHXdG4Su5ExOZi1hqmPg4SA/vAYU+s+et2OO3u5LmyteRnvsWBMHEUMgUrEJEwMHcPhqeLUqwoc75nuoJolLtDsqmW7dM11AfdQwPQPjDdAcyKUiC4ebEYx45FkWBfihp0HtFNj7+b/XZRXSUUiUyFo5GCbFTBvppCpeAEIhIGFhNZvYIHb0S8YZ0lDtjXnCh9sdx945Llco4tAsW2dnGT9AfJm585BAjEoQbdYzI+BccvnpO27Fx3pdR5aMYRRMvwuByOIldytqDVF5JWEwyFNGmFQkEJBJtrRUUpkTh4WFMtcvTiWal4w5poUSQoFh4mIr6ewYsDkvvoVej542/ccJU0fguLU+gG6TQG4MhhSI7ixZY3RiG4SnVtwY0qEVIQAkn1EJd0mmo3L10pvRo11UKyKJUKrFewoSir6pco6ihrFzdqcnrmaFgX4Y9N9bvjyXFf6v4Ts66Ca2Dlm3s+f3/evzMXWLoVSy2MUCQiuQEP3jSsqZVRW14JDVW16tMJUR+/0F8lF6sYo6Mj8PiPpxc5WLS4AT768Y9L79XfjZ2JVzStgmjMuG+DwYsTGwNqy8UdbbifXssZTzganQpFwhpXCYdCsPsH39XsnyvYfJBoLNZzquVsTuxk3s4HUQtDr47Bg61Pl4cHTTXVMszcdD/6/vfk96tWrYIbb7wRdu+ezpG/8rU/0xwzND4G711oNvxuNVjk44ew8JV9Bv5WPpPAleFLPfqzCPVcBR2lvze3I8+ZQHLRvMuYd828ekWpvaeOwBWNKzXpPNj6xJpqeVdgNxiW97HcD6qbTo933z0My1evhtHBPiirrIFPfvKT8OSTT0JLy3TLFG6DpIjWrl8Pt+y6TXG2dOobrB4UjIThVEer4jeiK2HfifqGZ0PuQed5haxIFolF48FwWN7IF3+yPT99rmEJB9ErSrGlZPhiTKrWJx7sWzjTeRH6R4c120RFKVA5BoMJwen2gtPtgYmxYYhFo5JwkO3bt8OGDRugu7sbnn/+edlVWnu60nI04Fzt3QvNUmPCtpXrpHQ9N1CDLWW4XKgeeufJZkciDlBko3gL3UFmVSBqYeDc7DHB5B/MGbFPgR/CIWp9EoHjrRZXJ+ojKDS8gbDJVc3BA/vh7TffhPvvv19yia6uLoVbACcUBMWB+/IwgYCg6KWuq/COBoKiFOvTYVN82fHpFNuMBkWqXYVnpq7Cz0cngWSAqCill7OpwacBYvmeR++mwZuuqbYemurqNdsY6BgOhwN2fuAD0rKb3rIKWLtuvbSVCUTtGMCJxe0thQX1i2BgYED6PBmLwvjoMKzcsBl6uqbdgwnm2MVzQkeDZO6/Y+0VwvoWG+LCwFazUpe2yVuEkVDA4Nr/7vnn4PTxo5r0VDCBTASD7Wdb2xpS7J4xc04gImEwMIdMp/UJK6gHzytzJ8yR6/3VihtJrxLOilJYPOrv75cr34HhQZiampRcq9hul4Thq6iEoqJiyTFw1t+ePXvg1ltvlfZn4mEUF9vBW+6XRIf7VlVVwUc/+lG5Yn/Ppz8DNbXTjsb/Tr0bVQ3vNsVFxYb1M7OtX5BFV8lHBR3mkkCMhMFQF0H0XEHERCQkDQLkwRmBKxdqMy/ssHvs4YclAbAiEl80QhYtqpdzzkVLlsLo2Dg0NTVJIsKbHudfsBt+cjIGK1atlBcnwP2HR0Zh27ZrYMuWxHpYfKtXeZkPPvGZz0LbubOwer1y0CJeA3XRy4jh8YBiGA1fP1MX2dJFT6x7X31ZsRCDCBKIScwIQ02qsroIvgiBTaxsrBQPX/lmxSN7SQl4Sivk9FgkDBOBUWhcuQYGk0UmZGyoX2pqRhdBN+HPoz4HwrtQqb9a8Z277vyw5ret27QZPF6v5t+eTiYhapnTa4hoGTguv19VtVGznQfnqkzoDBURuQq/eBwJxID2vr44jiXKFGzFGR5XTrJR3zCiISFqHnnoR1Kuj26BcyjQKe655x4pV4+GQxDkvoMJgDkL1kHq6+uhubkZDh8+rNkf6ySsCIUuNDY2JhW/GHylHjhxYIsXcuLECcX2rddtlxoi9p56T5G+bnETuB3Gi1JjJsH6X/QaInhhqKnxLgS/q1qTzqPnKjjXnU3nzVcFHQpdIPx6tjNZzFh0w/Do5ZKsqfjH//JDcLjc0k3/zDPPyJVpSFaoP/bpT8MTux+R6hGY+x05eBDKKirhvvvuk/bhi0d4w//RJz8Nv3/pJbj3gQekHNTucILHVwZ33XUXvPzyy5IY2b54s5w9lhgkuXLTJvjpI4+A1+uFzZuViz6j+MLhMCy9qwGCsQn4xLrPSun7zhyDEDdyQFTfMJNJQApxqEnlKuqh+iJwDaxcL/MzZwTCwJXHS2fgKvwNo5dLvndgP/coM4D3Dh2AnsuJeRjqVqgSp0tqhcIKNzrF448/DuHgBISD44r9mRPgZ9abDknx8K6CLWATYyNScQzdAldOnFTNLhwcHIQzZ5TFobJNPnAt0jrEotIlsKPhA9JI4n3N+jd4hbcUrkoxdowV3xbXa79Hj8Vly8BTot9TDwaukmv3gLkoEJ5sL5EfGA/AmWOaCYUysVgUfvfSf8mf2c2PzoI3unoYibp4xPbHijerfL/yyivQ1tam2X/FmvWwgluDl7VoMYYDATiV/K21t1Vpfquaanct3Nx0h5SqrqeInEN904pa/NyuIqiqNNfhmspRQOAqJJAUmH1kgHood7qwDrXLXV2w5+WX5ZvXiMY1a+CR7yVWC2SuoB5CgsUjLBIh77vpJvhtcmFn3oWAq8Dzle/W1lapTgLJZmQGpuG2LVdUwearr4fJ4oXw0NvfgYaapeAsEefsg2MD4LZ54SPrPw3OkhLNsHseo/nwDFGLn5GrXO6JwM51qa8pz+h4IHLk1OnUj7qaIfNCIDyi8USpYLllYGwMnnniCXnva665RiriGBEMTsAbr70q7YHDSNRFKxF6FW8EXcOVXISBVcD37dsnb1/bOA43bxtQHB+essH3ziaKnVgEXbYg4TyxySi09SRm4tV4F8AnNk0/v0fPfS9c7jTdRIxDeN45q2wkKCu1Q1lp4pqNjk3C6FhiRLLIpfQ4euZM3lYwKViBiB6ZnA6ZuApzkkg4DE/95CdyemVlJaxZo20uxZYkvhXppReelV4XLFoME8GwVOnm+0YYPq8butoT8z6wUn+u+Sxs27ZNsx/S29sL77v5ZsmJHrxbO59dzXeatf/mB6/7hvxeLQy2IiRL54tf6TQR944OSatIijArjnwKgzFvBcIzE1dBRwlwQeOLOygQbNFCl+nomO5swwo9VuwR7MNg380q7zfvugPs9ulB0FgJ379/v/QeW6ewlYpPw9YuxH7xQfCUavtn5PPEYjBe+8/w6IHvQWQyDB9Z/ylYVJZ47qFaGHpFKRyc+YfTyqEhZoekqEVmZWEwSCAceCXKdIoWejBXGezvh+d//Wt5r4aGBukvFcxVGFicWrt2reQMfHMxgxWnnHGArw4ry/Wtt/9Ofl/XoHwOeU/7RenVvfkJRbqoKKXXaqTmZPuFlE3ESO/IkLQoRbq97RcuXYKOHrHr5IuCFci+Y8ce9peXf8nNLYqWTWbiKqzizeBdRY++vl7Y/oFEUUm0P3MMdIsF//gTzXaevk2nILC4S5PuXP7XUORLrJDIP6RHTap1t9SU2O3wTouyroEdj7iYHj9MxaxArCAMRsEKZO+777UNjYzI2eTmdblbGlOUyxrBhk6ca26Gt15/Xd4T6ylYX0kFcwncd+XKlXJRCrk75ICmYOqYXby7E6YCiWbQ4sod4GhIFMP4tbFAtSwpmz3I1zPMTMRiYIZy6Ly26ZWttpIKKwmDMWcEwli+dCn4vJl3FBphlOvqMRNXYUJ5+ZaPyGn/99nnIHYhURlfv0jbu3+yM9EqVfXw3ynScbqw2znttql6qkeD43C2u12RlspVcIGIZQsSD40NhCbAVeIsWGEw5pxAeHLlKpm0gDFXOfDWW3D6+HSPNfapOJ3KusS5c+ekOggvDDXXnDoDn3o5UefAda34h366b78JPLffJL3Xm1Nutp7BrwLJwOH+C/3TY6rwu9kCdunUM3r6+6G51doLvs1pgTAaGxZDuUHrzkzIlqugSLBIxTr/jMTB89APH5Y/FVVWgP/v/pf82ahomMnsQbYKpB5mi1KFIAzGvBAIT85cJYMWMFbMeem55+SZgZVVVXDXf//v8MUXEyvCjy+vhKkSrQBLz/RLr4/esU6zzUgYDPVwEjOjefnz88fj+ly8o+hRSMJgFKxAXn1nf3QiGMx4xZRcugq/nKdZcAosf52++vIZCMami01TJcUwvtwPvrMDYJtM7Le5rhT+59bppmS1MDA3L3VP1ztCkSgEI8o1v9SjeY3m4bOiVLrNtYUoDMa8FQiPlVwFb0K2HChIQ8jH4fvvXNTsxzuHWhgl9mLwpWj+Hgoo56SLRvPyK8dnMntwNBCAI6e1rVqFBAmEo6G+HiorzI0zSpdsuMrzLX1w16rpMVzqvhp8jJrXaX6oOTKOQ2eiyhUa1cUvhtmi1FwQBoMEooOV+lXUSxXhmlR8ZdjtcIDLYW5YuRFqV+ke6pdG5ZqZCwJzTBiMgl1ZMZfiAG6uQS5chbViqW90PbCVzEhUKKBs4Pd5FSJZqGrO1SMcicD+o+kv3UMkKOgnTLV3dUl/kANX4TvqjASQit7hxBpY2OexpNbckkYi2np60vod80AYM3vou0nmzEM8mavUL6iDGhNDRtKBuQpbCjUdsC4ymhyW3pbskV5cXW3KnSApjHQgx8guc+4pt12Xe6Q/yIGr8MvfmM3NsaLO9mUV+47+RD8JigTFIoIXRqr1dmEeCsPldKaeq5wFcrou1qvv7B+bCAZn7yn3SXLhKoxMXEU01gqLX1NTU7J4QDBGSwQ2Pb91+LBgy9yktrpqx3UbN/4hX/+4vC09+uzreyzxIBIrtYCBzrgrfKYie3KUHvNJGCV2e+z2HdfPvCkwA/K+ePVrBw4OBMbHc5Odp0FdTTUsqNGfez4T1MPWzYADJm1gS1k3mU/CyLdbiJjVxx+Qq5hnvghjNt1ChCUeoGMVV6murIRFC3KzGGAmroJgdN48eFCTPtewgluIsNwzCslVEswHYVjNLURY9im3rx861Dk6FtB/8k2eyLerzAdhWNUtRFj6MdCM+eIqe+ewMArBLUQUhEAYVnEVHP+F48CyST7Wsp0NCsktRBSUQHjmmqvMJYEUqluIKFiBMN44/O7Z4dHRFZoNeWamrjIXBFLobiGi4AXCU8iuUqgCmUtuIWJOCYRhFVfBefU4v94MhSaQuegWIuakQHgKxVUKQSBz3S1EzHmBMN5878iRweHhzZoNeUbPVawskPniFiLmjUB4rOgqVhPIfHQLEfNSIIy3jh57s39w8HrNhjzj83ggwC38MJvMZ7cQMa8FwmMVV5kNyC30IYGosIqr5ANyi9SQQAyYi65CbpEeJBATvH38+Iu9/QO3W/6HGkBukRkkkDQpJFcht5g5JJAMsbKrkFtkDxJIFrCCq5Bb5AYSSBaZDVcht8gtJJAckUtXIbfIHySQHLP/5MknLvf2fTIb30JukX9IIHkkE1cht5hdSCCzwKHTpx/uvNzzJaNvJrewBiSQWYZ3FXIL60ECIQgD0ntyJUHMM0ggBGEACYQgDCCBEIQBJBCCMIAEQhAGkEAIwgASCEEYQAIhCANIIARhAAmEIAwggRCEASQQgjCABEIQBpBACMIAEghBGEACIQgDSCAEYQAJhCAMIIEQhAEkEIIwgARCEAaQQAjCABIIQRhAAiEIA0ggBGEACYQgDCCBWKZTkwAAIABJREFUEIQBJBCCMIAEQhAGkEAIwgASCEEYQAIhCANIIARhAAmEIAwggRCEASQQgjCABEIQBpBACMIAEghBGEACIQgDSCAEYQAJhCAMsMXjcf2tBEEQBKEDlbAIgiCIjCADIQiCIDKCDIQgCILICDIQgiAIIiPIQAiCIIiMIAMhCIIgMoIMhCAIgsgIMhCCIAgiI8hACIIgiIwgAyEIgiAyggyEIAiCyAgyEIIgCCIjyEAIgiCIjCADIQiCIDKCDIQgCILICDIQgiAIIiPIQAiCIIiMIAMhCIIgMoIMhCAIgsgIMhCCIAgiI8hACIIgiIwgAyEIgiAyggyEIAiCyAgyEIIgCCIjyEAIgiCIjCADIQiCIDKCDIQgCILICDIQgiAIIiPIQAiCIIiMIAMhCIIgMoIMhCAIgsgIMhCCIAgiI8hACIIgiIwgAyEIgiAyggyEIAiCyAgyEIIgCCIjyEAIgiCIjCADIQiCIDKCDIQgCILICDIQgiAIIiPIQAiCIIiMIAMhCIIgMoIMhCAIgsgIO102Yj5yrqNzaYnd/i8Oh+NGl8NRoXMJ/j+/z/svmlSCICRs8XicrgQxJ7jQ1f1VR0nJl71u9/Ic/nvIVAwYCoxThjJD/D6vrVB+KxkIYVkudHZ93G63/4nT4djmKClxW/inkqkkaevpoQxlhjTW1ZGBEEQqMLPxutxgLy5OsWdB8rd+n/db8+0mIAOZOWQgBJGCU21tX/W43T8U7UWmUriQgcwcMhCCSEG6GY3H5YKS4jk55mNOmYo6rvvffAMOvLlXsx+RYNuOnXDNjhsUV6OQDIRGYREFwUQopPmZc8RU/mYoMP43qrR/9fu8X9XsSRAWgwyEyDtnOzuHSuwzv/XmsKn86VBg/E9VaWQqhOUgAyHyTondrjfvYsaITMXlcICzxKFJLzBEpvJTv897H93BxGxBBkLkldMXL/6n2+XK63eGIhHpj2eOmMq9Q4Hxe1VpZCpE3iADIfKK2+X6IytccTIVgpg5ZCBE3jjZ2nq91+Ox7AUXmYrb6Qw67JaexGgGMhUiJ5CBEHnD43YX3HjOYDjsDobDijQyFYJIQAZC5A2bzVYw49uNIFMhiARkIEReaG5vP+d0FHz/gi4iU3E5HEPOEodf75gCQWQqz/p9Xkv0ZRGzCxkIkRecDkcuV8i1JKFIxC/oqJ8LpvJhwaq7ZCrzEDIQIuck172iCz3/TIWY45CBEDlHb9FENWxdtjnSVWIakak4SxwjLoej3NI/nJj30GKKRM4xu3Di1NSUJk0maSpG1jLXjacQTGVkPKBJI9KDFlMkiCRm172anJxM1kCS2uEkJL1NFnSUTmRT7C4qDBUVzZ3H/oejkfJwVFlTcdhL+t1OZ7VmZ4LIA2QgRE4xu+7VpFz7SDZjcV6QTAH+JfE2LjtKnEvlX+KTk5rvKp5DzxqJxKLVkVhUkTabpnK5t0+Tli0cJSXBUq937cqGxRf1TvnO8RN7AOAGzYY0uHbjhvnVhjoDyECInGF23SusfbDmK1sy54+Dur1q2ilscorWVNQGJDKfqVhMcRg2fZGpWJ9INOoeGB5uGxgenv53mTAVIneQgRA5w+y6V5FIMrOzYYavqXpwtpJMtql2iMuHy/9XGpDWfJL1l+TbOFcDkjIlzW8sdESmUlJs7/G4XHWF/E/TMRWIcYUSIneQgRA5IZ11r6biSaGrqh3yO1tc2ffB7Wfjdtb0ksjGMn1Ojfmo9isqmt43kQHZRK1nhhRKZ350Mlan7vSeqamsbmrSpFmBaCwGbZ2dZCpZhkZhETnB7Mir8fEJmOLvQZsooxakaJM0+9rEhyr2syk/AmtymxT0naidRPfU6mNU/6ZCGy02F2oqIvRMhfpAzEMGQuQEswYyMjYmvQrqHUo0xiLeT5w3C47U2c/rSUx4jCb7SXR35beoR4zpYhPui4aST1N56B++rfi8duNmuPmuD2n2M8JeXNzudbkbDHYpSDDuJXZ7k9/nbZtr/7ZcQAZCZJ3kulcply4JhkIQDkc06RKKvFknc9Xk32b3035CXC4nZh4QjUZBIQvtroIk4ZfoJenuzz7i8ONcmEo4FILdP/iuJl0NmYoC7KC/kUxFCxkIkXXM1j4Gh5Idn4p80sAyVPsJ9wFRjUBnT1UeXlZaKr2GuEURhccbn070AzTompngq+xZeH4849Hv/zNEVIs+moVMRcG8NxWgTnQi25hd9wpL+XLfh2IUFdcVru6gUIyiivODtBRvtHNI4qr9kvbDfb3dnhjGiyPC+EKVpmMej9SpnaiPSvwWgSNoJkTGp0+jGkhQZM/u8OJMzQM5ffyo9MezbNVquONjd2v2ZcQmJxvUHfXFRcXtPnfBm8pSAGgdCozzaSMAcMV8MhWqgRBZxUztY3R0FPbu2yd/Xrt6TaL0r985ofES0X6CioxmP81RyYTKisR8xxdeekl6xVL/tqu2gMttNI9FUOfQfIH6CLGhiMBNTqdTsCUz9r76Mhw9eCBr59Nj0ZKl8JFPfUZnq5g5Yioi5rSpkIEQWcVs8xXS2tYGJ8+c0aQjK5avSGTqBqYCmoxbvJ/WWLT7VVf6oe3SJWhcskSRHgwGJbPDGhNy5aZNUFGhN7k+XUMRNJBxH3ByYzbnpKg7z/NJdW2dZCpOExNL5X//3DWVMb/PW6ZJLUDIQIiskVz3Si93NYWhqSxbLmXeCQ8wzJm5DFx/P7nvo6wU0nnYVSwWg4PvvgsDg4PS5zWrVsGCOvUoV+336niXcH/85PFkbwn8zosX4TdP/EyTPpuUlpfDPZ+7P01TKerxuT2WHFI8ODLS3tHd3TCcHFloxIdvulH3TigkyECIrJFO7SMd2js74ejx48IjmhoboaqySpNuhHp0U11NtWQKaDa88fD1Cf4QvdFRaHxogMjSJUu42ox4f+3QZP77pocUZ4PZrH2kA5oK1lTKys2XQ3JlKsFw+OLlvr6y7t5ef0w4LyhzyECIeU/3wOAbLqdzp+g64LIZ6ke8ZpNsmQo2EZWV+mBycko7dNgmem9sLmoT6uzshCPJ31lXWwurV67S/AbuVPJLqc+n2TwT9Aykwu+HT3/+i+ByueHpn/8ULrZe0Owz22RiKkU2W7/P7anmzT4ejwd7BwYGe/r7F5mpJeQSMhBi3mFkGAxcliQSjUklaKeq/T46GYOJUEhzTLbIxFQW1NbA+MTEdPc213lh498Dn8HbdN6DKeMZHRuD/QcPSpPWqiorYd2atZrfVV5WqknLlN/8/GfQecn8WoNoJl948E+hvMIP//HYo5Y0FYfTCfd8/v6UpnL01GlNmhUgAyHmPGYMA++f0YlxTboIl8NpOVNZv2YNDA4Pg704OaKdz/zlLhT+PeTEXLCJ5N0jR2BwaAjed+214NftqE8fvdpHOqCpYE2lbuFC+NUTP4PmUyez9vuyxYNf/6biTFjjOHb6jCWfpTxXDITmgRAyXQODz7idzo+wzy6dIaSZNk+FImHpj8ftdEK5V9lck01TaVi0SPrjudzTI3WAo3kg586fl0Z98SOnbFzOr3wPOTGXwPgEeEvLJAPJpnkcObBfk5YJoVAQfvzwv2iORFNZ2rQMnn/mV3D03UOa7flix823ar7pZMtZehB/jiEDmcd09g887HG5vsSugFvHMNT84fRR8DhcsKp+CXZgaranAxqR2ow8LpfGVLCEPh4KZiVYOGKKHzW1bcsWePvAAclUljctg5qaalXmb8uauYj267zcIy3rEpwYh/Vrtc1ZM+HN372S1fOpwSYuNXd/6l5YtXZdXk3lim3XaNLEC2IS2YQMZB6hNgyPYPgkNkmNBScUs7GLcESQ2w1FtmmzmIiE4Ehbi+LYCm8pLK9TlvYzQV37kEYkudw5NZXrtm3TpOFQ3Z7eXljW1ATVVdUKQwG1SYDKbPTeg9J4AhPjknkg/f39cO3WrZrfkSnhHDYNGoGd8WqYqbzy4vNwYN8fNNtnAk5cVNPd2zsEAH7NBiKrUB/IHEZtGHoEwyGIcKvPmgFrHoFQEE51tBruXVVaDo01CzXpmTAYGIWmunrDI7NpKiKYqTQtbYSqqirFkF7Fe5iuemjfg2wo7d3dUvrU5CTEohG4+qqrBN+aGTNZ9yoffOijd8Omq7bM2FTUfR9g4c5zBvWBEJajo6//Y163+1fsd4lqGDzqNYrSAZ/g53Y4YcuyNfJRJcV2GAiMwNnudjltYGxE+uOpLa+EhqralN+Gx7X1dcufm2qNzQMSi/dpair4WwPBCc2+mSDK4JmprFi+HCp0RgXpmQujs7MD7ty1S3PcTLCyeSDPPfO09MfDTGXv738He197VXOMGcLhSCdWTPL6j5mnUA2kgFEbRrr8/vh0+/TyusVQ4c3u3AOQnsVth47BPmjv79Fs4yl1J55eOKaT0WPz2FXLVsuf9Woa2I/jsKde/iObpiKCmcrqVaug1Kc/JLenv18ylP7+Pnj/TsMBb2mRr3Wv8sGtd9wF27ZfD9/79rekznyej/zxZ2DRUmUTltVrH0A1EGI2UBuGV2fV21RNUqLhtOd7OjT7YSd5qcvcY2n1wN9RW+aX/hhYQzjd0QrdQwNymsg4dq67UqpRMHC4cKoCj7pTHkv+PlX/DSSb4HRqKnH9qePm0aup9A8MwOpVq4GtWIy/79LFtqzXPuaKeSDYxIV/ItTmQeQXMhALY9Yw9ErjerDhtHzzk7PEAe9eOAOh6PQDnlq6LinOUFxUDOsWN5oq4YtgTVLv37gV1i5ukv7MMJOmNmlQwMSENPS4pty4TzVpKgrzwImRgYmJSBzA/GJZOohMpftytyZtpuC6V/OBzVdrBz6cnyf/dqtABmIh2nv7Nvo8nmPsF+kZBs/Q+BgUzbzADOFoBNY3LFOk4dP5Dp0/DWwdoMmpSTh+6bxiHzSTdYubhMN5sUSP++NxZsDMHo8pVj2N7/CF6cUV0+mUR7Pi+1/QuHj4+Sz4nTjSS73OFdZcyrw+hXlk01RwdV/8yyZWWzQxV+y85YOaM+N8GiJ/kIHMImrD8HnEzUWY0eGyFzhuB9v41Zkcn8FCFkc+4XduXrpS/ozfW1Rkg3cvNMumgr9NPZxXD3WTFGbEYxOpBY9Naaw2JOqUr/dXg8/tgeHxAPSODGqOR9YubjScNY/Gpd6GvxVNRY2uqQSDE/F4XBxEIqs4BHOWhkZGqPM8z1Aneh5RG4Ye6TRJYcl5LDQBpzuMn1eTzeG0DNaH0Dc6DMcvntNsX7mwARqqlYuk4r8rGyubqk1TjavEAdvXJEr2M2kCU4ODAtxO49FtjNkwlXTXvSpU7v9ff65ZBr4QOs8Z1IlOpMRsDQOS/RLh5EOL0gFLzjgrXD2ctmdkEFp7u+Q0vZL7Qn91Wt93pO2s3CTFmoRqyio0zUN67D97UjIyNLRMaOm+JHW4m/0+4MwmW4MCIjGlIemZilRT8XgVX5hrU5kP5oGozQPXvcJBeJodiZxCBpJlhgLjcpXOyDDU7GtOLPiXjeG0uJZUpa9M+mNgJod9AvzIp66hfumPR525q/sRGFjCzxQ8Jz+/w6hzXj0XRE2qkVl834xoUMDq+iXSfJaZIDIVHJTgEjykSmQqydn/oXg8rnWhNMjWuldWh9a9sg5kIDOENww9RM02OMmvpFh7+dXDabOZydX7a6Q/BmZyrb2dClNRZ+48oiYpER3t7fCbp38pb7ll1y5Yu36D9B5rDngtDpw9KY/4EnXOi6guq4CVCxZL/xazzVJYQ+NrZwj2leB1xu9Vz6RHE8PrLTKzdDjS2gLXrt5g6gjsWyrzeBXmkS1TmYvQulfWgfpA0sSMYWS6mizrsOUzVxFGJfZ0ES0PcuziOSmTx8l9aBpmeOThhxQzn+vr6+HOO+9UHHn48GHpD1SmAsnRZO9daFbsj53Y21dvkjvecZ/R8fGcTHg0qukYjTQzOl406gsHJuDS8ep5OGbIxFSwVpLrBRXzCa57hQ+X4sF1r3r7B4zHaFsMeh7IPGFgLBAtstm0VQUB2eysBW4SXCQahQPnTmlqMTxmMjkQNEktrVkAyxcs1uyXCrbo4u4f/gAcqpFKvHkEAgF48skndc/m87jhf/xJyuW6JEQmg+C/e6Y1NBHdgiY+Myz0V0lzXNIZDCGa3GkGjEMgFAxOTU2ZbsI5fewo/O6F5zTphUAhrnslggxkjpKOYajhlwYxu95TuhRJpuKB4YmAMDNNB1xbKtXihIyf/Hg3jI2OKtJ8paVwuf0iTHHzPIqKisFTVi696jE21C/3W1TV1kE0NiXcE4dqfvTuj0NN7fR1VDd/ichmDQ2SzWDhWER3pBtfU8LlUXD/bGB2WRY1c9lU1AaC616dOX++4IbukoHMEcwYRqqSJBuFs/fUe4a1hIaqOqhNMRs6E7DpCzMvveG0DH5oayr279sH+9/eJ+21atUqaGxslGoWDlXHcCQSga6uLnjllUQzCZrJ+MiQYcd2WWWNJk0NX4vZvXu3vBVN5YEvP6jYG0ewZauGxsCh0Xynu9lRX1iIyNazUkTo9Z2lIhNTudDSDC/++mlN+mxRqOteiSADKVDM1jDMrLtkBDZH4DBavoNaxEyGtLKZ3kuq60zXJIwYmxiHqXhcWgrj+V8/DW7v9CKAaBz33Xef/Lm7uxuef168PlFgeBC+9Fdfl+YkdLVfgmK7HWLRKGzbsROu2XGD9IhVe0kJeEoTK9feeOONkklhcxeec2xsTHNOJBIKQmgiAH/9nX+SPr/w7P+DC+fOQXVNDXz0458AJze5TK+5i4fP6IORMDR3XRLOmmdNUqkmPuKghH3N4mk+2XpWihr2rJRMzSoQDAYnpyZNmwreG7M1032uNF8BGUjh0DcyOmovLtZfDlVA38hQ1po/eDCDwXkM/aPDmm08RkN5z/d0wvC4MoPF4bpXNK3S7GsEX8MoLS2Fe+65B9ra2uSaRDQcgqDqe0qcLoWpMMLBCQgHE7O4pX6biunnZPA1iYGBAckgsNYSi4RhIqBsErM7nODhhh5L/SxcH4TT7QWne3oELJ771ltvlWtFeN5nnnlGMiCRqaSqofFsX71R6pdgppopesOgIYuTO7EgYSuygV8Qm0zIxFRe+PUvc7p8PK57pV66BNe9KtSlS8hALEomhqGG78uALA7tFIHt3Edaz0IglL4QcHmOdCYC/uj739OkMfDhSNhMtXHjRkUzFd98NDrYpzmOwTdL3X///VJmjp3n+CpqjsLvwG0MrFlEdJoJPaXlYE/OO8FzI48//rji3PgejQNNkI30YjgcJfDAg3+qOS8kayrDgTGoKa8An2qS4eDYaE6aoUSFAIbZvjO1MV25bHXWDETEeCg4Hpuc9Ao2CenruSzVQLNlKnOp9gFkINYhG4ahBjNzfr0nEblo52ZLg+h1FKufiWEEzsVoa2uFcr8fljQlVr3FpiMEaxFYm0DTwFpBKlgNg4n4lz/9KYSCicz+6u3bYd2mTfK5EZfHJ43MQpNYvXq19IoZu/q7+BoGNm9hDePoIaV5r924ES6dPwvdHdMPqcJz43cYwdeKFi9thE1XXCU99U9NVU0tNK1YoUkHQUEChzWvWrhEs182YDPsReD34ioFOAxYRDoFiYnoOASjAShz+aGkSDvRMR3SNZXRkWF46rHdaZsK9nt98Wt/oUjDda8udXYV7LpXZCCzRC4Mwwxm2tQzyWD4kmQ6y3OoGR0dgcd//GM5FWsS2K+AJoH9FcePH5cycWRibFjqk+DBpiN7cigsdoRjPwaDGQ6D1QJ4+Dke2PSFTWA8aA5FRUVSLWNyMvGsEhyp5auolPfCGhDrsFfz9ttvS/8GUJmDHhuvuAoWLU7MYcFrsHDhQhgeHpauBX7H+Pg4XLp0SXg0MxUcxqs38kreNwdrjHUN9Rn2nWFNadvKdZp0EWgYHaMXBFuUlBSVwOLyZbNiKlhTGRsRN/PBHFj3SgQZyCzR1tOj+MGZjkrJBplkMGwWtIh0DSQUicDPHtsNoWAisxY1FfFgJzjWBvhtk7EojOv0ybg9XihJNuts374dNmzYAC0tLbBnzx4pjRkJGhMzKR40ChyRJeLmOz8E+/bskU2LnQtNCJuisGMdeeqpp4Sd6mgiN99xh2aUUGl5Odz3pa/ATx95BFasWAG1ySHA+O9evnw5nD+fmPHe1NQEQ0ND0Nvbq/rNk9JveOArX9E8hArBJyvyj+wVkYmp8HNOZlKQQM4NnoKpuLa2lS5OuwsaypZBkU1/SLYZJsKhYDQWM92nEg6F4Kl/2y2birr5Cte9Onb6TEEvXUIGMkuoDUREpuPns4GZDIaRTpNUOByG4+9Ot+27vV5YvHy5YvVVLNF7y/1SBzaWsrH5iIGZPsuI+RoGzuxd3LQcTqsyf8xw6xfXw7FDB+U0acRPud9wjgdf+8D9Sw2aVkQ1IW9ZBRQLYqeuFfE1DD3OnTunMQjeVBhnzpyBwcHpc1fd6Idit9Y8GNfUXw9NFdPL3Lf2dCkWrhShXrgSm6P0lm+ZqYFg01tlhR08Hv04ZYrPUQb1pTN/CmC6psJzorml4JcuIQOZJcwYiIjZNpW+ZCkfJ7i5TM6aPnH0CIQMho2q6exoh+NH3lWkYmZfXFIijXpisS4utktGwGA1EwRHYWGNQlTjMDPHQ2QAonOxGgdfG1KPulJz867bwc6du6ysDJYsSTQZolGozUJNa2urVFPS/OaVHvCumFmB9v1Lb4Na7wL5s/qRvUakMz9HNCdJvXCjuu+GUVVZAm6XvjFmSpnTDwt86a9moMasqRR68xWQgcwemRqIiNk0FRHsCXndnZ0QMNG5bYaLrRfg9Mnp2gVOxnruV7+Uh8uyORjYwY1/+B4MliDBGsYDX/tzqekIJ5rhfA6sRVTX1sE9n79f6kxHg/KUVUg1EDw/1nww48YJh3qwGgZrrjjwxh5peHFgbAwWSrWkJqlZCsGhuWhITsFDhUSwmsjmrVvhiq2J0v3l5G9pmzwLQ1PGxmOW0HgYPrL+08JnsANnKtiHsa6hUTPqS49M5iThvX3i0gXd0V6MmuoScDq0vzVdcPL9mpqNMz6PmolwKBKNxWR3LMR1r0SQgcwS2TQQEfk0FVFpEum4eBFe++1vFWnYZo8dwdngzMkT0NaqbD7Rm+Oh7iMR1TBSHYPwEwcZfBNWWVk5bN95o7wNO76Li4ul5ibs/EYzwRoMNl1gc97Ro0chFovJ+/OmgmaBpsG4Zv0IbFuv7aSNOq+CPYO1cKDjTUV6macMaisWaPZXE4wEobN/urlyYeli+NiGezX7sTXNRKaix0Q4JC28mE1Ez71Xg4MK62ocUFycOn8bGo7B+MR0U9JMm95ScfTMGRgR9IcVImQgs8DJ1raPez3uX+T7m/NhKhgHNBN+HaVzzc3w1uuva/ZliNrzM+X40fegs108KokfofXJT34S9u3bJ4/oMoPIUBhLl62EteuMRxT5/X4oKSnRbaLC38NT5o3BvXfo13aMODBUAq/2akciuZ2J2kIwLG5SXFS2RKp9aI/L7N7hR/3lcviw+rn3IuzFNqk/JRyZgnBYvM5XunOSzDCXDEMNGcgscKqt7aset/uHVvgts2Uqp44dg4OqDJMHS+HYN6AG+wowPRqNSn0BaDwVFYkaAX7GYa1q/HW1UF23QNFRr54NbgSrYWBH/V13fwLazigfQ1vm90N3T49i7gf+rhU68zIYo6OjcOLECfnzvQ88MH3Owa9r9s+U7zQbj0a996ovQ5lTuQyN3tMJeYxmt5tdLDMXw4eBPYDLBinnQaUzlNgsc9kw1JCBzAJWMhARmS7JnQ4YL2ze4MV94K23NKOoGHa7HTZv3izsL8DMWq9ULyIWi8KBfW9Jc0540FSwiSoaCStmk9/wgVvAzZkNNklh0xRrnkLTwu/nzau9vV36M2JJrAjuGZu+zpPlPhj4Hx+GKZcDgkf/ePr77HaoqlsINpOTPeNTU9DX3Sm9Iu7NT2j2UYMZfqnH2GhwuHXYoNkoFbhQ5mhwPOdzUticpFw3RTHmk2GoIQOZBaxuICLyYSogeOrhH15/Hc43i0uwaCZXXHGFlInPlGBwAg68/RYEudFiWOOoW1CfcfMa9nFUL1oELz83vbz4n4w4oGzKvOYiZWPQfc1hmCpR9iPgkiiVtXWyqYwODkBQ8BwXW7EHXBt+rEkHqY/EK6/1lYqjbWdzUlMQPfdehNFz79UrDjNyZSAXLl2Cjp4eTfp8hAxkFth37NjDfQOD8tOHKivKoaF+5qvQ5hu952VnG7WpvPTcc9CjMxKqvLwc1q9fr0nPBJw1/ObevYpObmTNmjVQWVkpPCNO3gtzS1xgs5T/358FZ8+gZt9MGFrSBsMbjBdSdDR8EYord2rS2XL5emANA1fxFT1pUDSkNhvPvf//2bsT+Eju+u7zv74P3aOZ0Xjuyx6P7bGNDeaIMTZgMDcBHgyEALtJSHYTEjY8WdgnTzYhF7vPs9mETZ59whFiCAQIEBIICQYC2AYb3x6PZ8bXjKS5pdE9uq9+Xr9Sl1RdVd1dXaq+P+8XjaTqUqvVGte3f//Tjdu+916VMpTYKwIjPwKkCu597PG+0fHxgrOYCJXCdKvdhexSIrom0be//nVjqKwbvdjrRT8IOlHvaVsfiNXz+w7KaNcmeUtPl9y+Y+Ud+8QnPycLz6002+zs7pE2j8NerfqGzsvU3KykXn+bpF9/m3HP0vgjsjzTL+H4JtfAKPa3KKVJystimUHte2+lv/PWDSuVR745KeaKw0EhMLwjQKrAS4C4IVQKs4aKhsm3v/a1nJVyrbx0cuejQ2/f8Yu/aPTZ/MNyXM5t9fan/M2vfVMuP3PWcXz3xsukxdZhrZ3PZ0edqwanX3erpN7wSsdxyfYxtCQLz18Lcrtifbf/aJHhtH52VbQ2SZWy26RfA0ND8kxvb1l/RqMiQKrAb4C46Wj18cTEAAAgAElEQVRrk9071j97ttLisVhZ9v+2m5mblflsE9TI0JDRH5EvVHbs2GHc7HTyYK/lAnP37W9znONHam5e/sv/71zryy52+W5p/63/2XHcWGIllfbcjyHZpqhybQol2eanh4sMp3XbVVGXQ3Fbpbccy7sTGMEhQKogyABxQ6gUZg2VU7298qO77y54vmnfgQNy8223ya9+55jMb0jJ3ObCo5YKiQ9NS2JoWj71hqtkeXhMxj/5OVkeWZljEkolpesPf9v4aFesH6MYt74MKeNwWg23pcxywaG8dkE3SREY5UOAVMH3f/bgwvTMTEWX3iVUCrOGik581Juuq/XKO+5wfJ8GiJu5jWmZ3+jevxFazkjrs872ew2QQrw0/4XDIWlPpYyLtf53MDEzI8vLhf978LJYptdNoYrRbXa3dHXnnKVrqj137pQsLi8ZzVQ7NvYUeRTvCIzKIUCqoBoB4qY1nZZ9u8tWCJWNzjpOF5nkFgRrqLi56/A5eeCM+8z0QlLRsPzFa9079XVYazpZ+HfTCqTNpTrJRyf7TUzPFF2HSgNFg6WQHd09srmj+BJO9iapcs7JmJiclCeO1//ChPWIAKmCWgkQN4RKYX5D5SMv2SVXdDubvLxM4IvHotLiMoFyPXRVAA2VYvKNfLLSXS2n52cdx00609vrgoteEBi1gwCpgloOEDeESmGz83PGVq1etaXTBRckTMW12aryqysvLC7J5Gz+IDA92f+8DOVZE0xd1tUtB7fvcRz3i8CoXY0SIHVzMa5Hk9PTjr0LUsmk7Nu1M5BZ4OWiq8COL+YOWy1HqGiHr73T1xoqXtYbC4d0L/nClUi5xaIR6WrNfQ5abU3N5u79fe0uf8OfvSIwUGl1FSD1VH3kMzM7a+yoZkWorHELlULmF5d0iX/jDF0yfaPLQpLVMDE9bczlKKe5+Xl58PDhmvh9UZL+Rnm5qEBqAKESjMmZGeNm1Z5Oy4a2YOdDuBmamHD87I6AlyshMBpG4VUx6wgBUqPcQkWH5l6xd0/dhYqXmd5+6WNbL9T2ZUa0EpiwbQvc2doqnets9rowOmr8LDdB/b4EBmpd3e1IeN/jT3x2ZGzslxx3NKl6CBU35QwVu2IjwJQ2fWkTWD5nhobyzhL3sgeIFzrC66ePPrrux0Ft6mxvv+cVN95wayP9eeouQNwQKrkIleKs63+VisBAMY0YFm4aIkDcECq5NFR0SHG8AnuTBEk7ogtVBkGyL39vCmpRSwKjMTVLWLhp2ABx85MnDn9ieHT0Yy53NSVCpbwIjMbTzGHhpqkCxA2hkqteQyUcDktrMlXSCrtB0/+S7nv44ar9fASLsCiu6QPEzU8PP/nhoZGRuto6t5x0+fAr9u0lVGwIjMZBWPhDgHhEqORqxlAhMBoDYREcAmQdCJVcGira/JUqsipurcm3wRSBUf8Ii/IiQAJ2/5NP3jkyOvYV7UBFfYaKff0y1AfCovIIkAogVHLVeqgQILWPsKgNBEiVECpO+3btktaW4Pa/8IsAqS2ERe0iQGrIA0eO3Dw8MnofobKmGqFCgFQPYVFfCJAaR6g4lTtUCJDKICzqHwFShwgVp907tktHQMu2EyDBIywaEwHSIDRUxsYn7p1fWGiIrTKD4DdUCJD1ISyaBwHSwAgVJy+hQoB4R1g0NwKkyRAqTju2bpUNnR2rxwkQd4QF7AgQyM+OPLVrdHy8l1CBibCAFwQIXBEqzYOwgF8ECDzTUBm/dOnE7NxcfW11iFWEBYJEgGBdCJXaRVig3AgQBI5QqTzCAtVAgKBifvDgg3NT0zPr31y8yREWqBUECKqKUCmMsEAtI0BQc6oZKulUSqZnZhzHK4GwQL0hQFAXfvjwI9OXJidT5X6ulQoQwgKNgABB3SpHqJQjQAgLNCoCBA1lvaGy3gAhLNBMCBA0vHsefWxibGKi8AqKWbrQ4vilS47jbggLNDsCBE0pX6jkCxDCAnAiQIAsDZVMJtMWCoUIC8ADAgQA4EuYlw0A4AcBAgDwhQABAPhCgAAAfCFAAAC+ECAAAF8IEACALwQIAMAXAgQA4AsBAgDwhQABAPhCgAAAfCFAAAC+ECAAAF8IEACALwQIAMAXAgQA4AsBAgDwhQABAPhCgAAAfCFAAAC+ECAAAF8IEACALwQIAMAXAgQA4AsBAgDwhQABAPhCgAAAfCFAAAC+ECAAAF8IEACALwQIAMAXAgQA4AsBAgDwhQABAPhCgAAAfCFAAAC+ECAAAF8IEACALwQIAMAXAgQA4AsBAgDwhQABAPgSymQyvHIAgJJRgQAAfCFAAAC+ECAAAF8IEACALwQIAMAXAgQA4AsBAgDwhQABAPhCgAAAfCFAAAC+ECAAAF8IEACALwQIAMAXAgQA4AsBAgDwhQABAPhCgAAAfCFAAAC+ECAAAF8IEACALwQIAMAXAgQA4AsBAgDwhQABAPhCgAAAfCFAAAC+ECAAAF8IEACALwQIAMAXAgQA4AsBAgDwhQABAPhCgAAAfCFAAAC+ECAAAF8IEACALwQIAMAXAgQA4AsBAgDwhQABAPhCgAAAfCFAAAC+ECAAAF8IEACALwQIAMAXAgQA4AsBAgDwhQABAPhCgAAAfCFAAAC+ECAAAF8IEACALwQIAMAXAgQA4AsBAgDwhQABAPhCgAAAfCFAAAC+ECAAAF8IEACALwQIAMAXAgQA4AsBAgDwhQABAPhCgAAAfCFAAAC+ECAAAF8IEACALwQIAMAXAgQA4AsBAgDwhQABAPhCgAAAfCFAAAC+ECAAAF8IEACALwQIAMAXAgQA4AsBAgDwhQABAPhCgAAAfCFAAAC+ECAAAF8IEACALwQIAMAXAgQA4AsBAgDwhQABLPovDPwyrwfgTSiTyfBSoemcPHf+w7Fo9P3pZPK6cDgccvn9+0Xk+q7WljHHPQAMBAga2smz5+6MRqP/SyqZ/LloJBL1+bv+b12tLX/hOIoco5NTXEwC0NXa4vaGpiYRIGgIJ86euzkWjf5xLBa7LhmPd5bpd6IqKYAACQYBApRR3/kLn00kEm8vY1B4QVViQ4AEgwABAtB7/sInErHYB1LJ5JYafj2pSrL6Bga4mARgd09P3QSI3zZhIDBmh3ZrOn299TE729rq4UXepW++Ryen9POPd7W2/IHjDKBBUYGgKo73938znUy9tb2lpRH/AFqV3NrV2tLnuKeBUYEEo54qEOaBoCri8fgbM5KR8alJ47a4tNRIfwitSnq1T2B0coqKBA2LAEFVRMLhnObTqdkZI0gmpqYa7Q/y+9kg6RudnNrtuBeoY/SBoKaYVYlqSaYkGok0yh/IrEqkmfpK/vJP/8hxDGs+9J9+r65fDSoQVNzR3t6bvfxMsyoxA6WBUJWgIRAgqLhIJPLHpf5MM0gWlhYd99Uxa18Jc0pQdwgQVFwiHr/F78+cnp1t1Krkt7JBMkZVgnpBgKDiQqFQIMMUG7Qq6aAqQb0gQFD3qEqA6iBAUFFHe/vuLOfPoyoBKocAQUVFo5E/qcTPa5Kq5HrHvUAFESCoqEQ8vq/SP9MMkrmFecd9dUyrksezYXJXI/1iqB8ECJrG7Px8o1Yl76cqQTUQIGhKVCXA+hEgqJhjfX0frrVXm6oE8I8AQcVEo9GP1vKrbQbJ/OLCjOPO+kVVgrIhQFAx8VislncWXDUzN5fSILk0PTXUYPvlmFWJ3m513AuUiAAB8ljOZDZOTE81YlWifkRVgvUiQAAPqEoAJwIEFXG8v/+zjfBKU5UAawgQVEQ0Gn17o73SVCVodgQIKiIWjXY26ittrUrmFuZHHSfUN6oS5EWAAAGanZ/vMvZ2n54ab+Cq5K2Oe9GUCBCgDDKZTEcDVyXfzAbJPznuQVOJ8udGuR3v7/9mKpls2tdZqxKd8R4KhcbbUumOgPbTqgVv0SDJPo+fb5RfCt4RICi7eDz+Rl7ltapEJePx0UQs3uU4qX59s4F+F3hEgKDsIuEw/85srFVJayrVEQ7Rmoz6w3/YQBVpVXJpetp4AolYfDwZj3fw90C94G0Pyupob+/NXh9fRy011LilEs0tzHdkR3CNLmeW6+q5ozmFGmyoIWrM06dO/TiZSLyi2LMy/hV6+LfYQB3QntRTVdKAS+JXxe6enrr5R04TFsoqEY/f4uXxM8uF3nGHzP9JoTc8jRguWpXoplehUGi0NZXqoq8EtYQAQVmFPF7V3YNhJTi0PgllpEDzVshMl5WvGjBIMplMF30lqDUECGrCWoCELB9WgkPELTxCq6faAyZjCZJGrkp0Oa62dDpFVYJqIUBQNkd7++5sSaeKPrzReZ5ZCw3JfggVDI7M6jmS5zyjSz6TMc4JhxvyIpsyq5J4NDaUSiQ2Os4AyogAQdlEo5E/8fLYy8vL2Yv92rHc8MitSsw7nAHjPM88Z2lpaeWuUKghw2R+cWHj/OKCVLMquTB40XEsSB1tbX9zcPeuXy70kD878pTzvUQJXnLomuYapbFOjMJC2fQNDHj6xzU3P7/6ecjlM3H5Tzrk9lWo0DnO86KRiOOMRlLpquSZ3l7HsXKIx2IzbS0tBy/fsb3f/vAESGVRgaDqVvssVnozsk/HvX1q7ZA1YHI7SnK/zf08Pbq4uGh8qRUJVUn9mF9YSA2PjfUNj415qkpQPlQgKBuvFcjM7FxutZDnPWDIfqfLeY4KpuA5ueeFQyGJUJX4VqkKxI1ZlWiwuNztGRVIaahAUBbH+vo+nE4V70DX/g8xZ6C7VBwrQmv9HSHLnRnnWauH8gzfCtkrE8t5S9k3U40cItaqpDWVTkUapPIyqxL9PJ1MyvTsrOMcBI8AQVlEo9GPenlcbUbKiNvF3lpvZCSTN1zMeJGVx8lznvlohQLGOlorf2WuQ4MdB+tRanJmZQRXLBIdSCeTPev9HQ7s2eM4Vk0Li4vSd/bsypsUlAUBgrKIx2JbvDzuQrYfYk1uL0f+4FgLmELBkVO9FDjP7H8x543kzEuxTjmRTOEVV0Iht1azmrawtNiTXYakoaqSWDQql+/aZXw+ODwsoxMTjnOwPgQIqiqzNgEky5wEaK6PZX12ued5C5gSmscsd2Ys1Y8UmgUfsvXM5FkQsk4mNAZeldSKzd3dxo2qJFgECKoqY0sJ8zqbcQ0OS+9FkYAxG6vcAyZP85iVaxDklCLZ6Sb26HGeb13Dq15mxlOVwAvWQEDgjvf3f9bLYy4uLWVnoWeydUJm7euVSeTZ29rxlQarwuetnpNzXibnPMk4zzE7z42Jjeb5Yr3l/DDbYzvPF3Gep49tPn61/OWf/pHc+/27vf50oyrRMJmanTntuLeOaUWi/TZ7d+xo1JUKyo5hvAjcc2fPjsai0c5ijzs1NS2Ly9kZ4qtHXd6hu47IdT/PedTliPOQQfdt1wuJvV/G/XTXJ5XnXOf51vMqefE6298v//ilL6x+HU8k5G3vfZ9s6vHUZbWqJZlq1ImYH+9qbfkDx1G4IkAQOK/zP8YmJpxzO6wcF9v85znvcTniPJRzXmtL2vg4v7Dg9t35HtbtkOv57uet3buyzErhs9brO1//Bzn57DOuj3Lw0HXy6je92XG8kGgkcrolmdpR4JR6pbPcb+1qbVnXvJJGR4AgcJ4DZDxP+7Pjopvnouq4Ruc/r2j1IiJtrS3Gx/n5hWKn5n88nxWJ/dxyzUXR5isv3vYL75Nt2b4Cr6hKmg8BgsB5DZDRsfHcA7bp6HkvviFPZ7lco/Ocm52F3trSYvRPOIcWF3gcl4d0Hsp/vvPc3CeunddBdrx7DRATVUkOqhIbRmEhUNktbIs+pC6guPrmZXWklG10lP2bLCOqQvnOsl6rs+N3cwfn5p4Xyh6OxeLG12bH/tppodzvDtkex/YriGOdLuf5LoOWbQ/inORYLcePHDZu6g3veKfsveJA0WeyuLS0w9zetsGqEi3Jekcnp4SqZAUVCAJ14vz5hUg4XPSNyfj4xGoHep739uI8WKBBy1f1svb/2nylndle1+XK+2zynO/6G3poHovFYo77/dK+D+0DWS8NEQ2TUkTCkdOtKaqSRkOAIFBem6+GRkYdx9wv3Hl7G1wOuF7SXc+zn9PZ0W58nCmyhpLjO11/WIFnk+f8fAETDzBA/vGLX5CzpxwroK+L16rESteqikUasvHjk12tLR92HG1gBAgC5TVATvT1SXvbykXbJQMcV1rHddflPMc5joOOy/+qrs4OY/TV5OSkJJPJnG92f35uXB7fccB+V+GKJBGPO475VWr/Rym27dxlDAcuRQNXJdq5d30zVCUECAJztLf35pZ0+r5ij/fdH/xgdS+Ons2bZffOXdmLp8sVNO8FPLiA0U7qro4OOf7MM3IiuyT5jm3b5PJ9+/N8U+4juj8/N6ESztXO6Kju6ug47lc5A8Tq1W98sxy89jrH8UKoSuoTAYLAZDvQX1Ho8aZnZuSH99zjOK6uPHCltLe15RzLzQH3K67zouw8z3nO2hc6gTCdShrB9qIbbjCOPvDQQ8bHaDQqL7j2WmltLfS88gmVcK44AiaRTBT/lhJUKkBMWpVoE1ditaIrjqqkvhAgCIzX5iu1sLAg995/v8zMzDju696wQfbt2bvyRYEhrM4Ls/Nc9+DIPU+br3S47COPPy4vfMELcu47+vTT0tu38t/8lp4eOXggX3u/S0XkfDqu5+d5WkawBeWJhx6U+37wvcAer1RUJWumZ2a+sW3Txnc47qhDBAgCU0qAWOkFWi/Ubvbv2y9dnc5VUUJS/CrttXrZ2L3BcdxOm9zu/elPjQpKXXPV1bKxuzv3sdx/hP3ZFHtKq2doVRSUL3/20zI0OBDY4/m1cXOP0VdSWlUSHmhNpetyZeCZubn+0+fPb75w8WLO7mpvue3Wgn/9ekGAIDB+A8SkVYk2HU1cuuS4T6uSPbtXNizyMrGulIDZtLHb+Nleh8yeOXtWnjhyxPi8s6NDrrnqKqOpy/nItp/nftjxPaHs+ljJZPH5NF5VuvnKi5e/+jVy/U0vLul7UonETDwaK77VZYVpUAyPjibPDQ72zM7NFf3hBAhgkd3C9s+Dek1Onz0rh7MXabv9e/dJp0tVIquZ4TVgVtaf2tS9YXV/CGs4eQkqfY76XNW+vXtl+9ZtOT/E/RGcR+1Zp5Mxg1zOpBYDxNTW0SHv/qUP1kVVsri0NDowNDQxMDS0a3J62nG/VwQIYPHM6dPPJ+LxfUG/JoWqko72Drl8/37H8ULsAdOSThtNRcvLGcsF37YLYc4ug+5b2urz0+epz1cv/tcdOuQYDmzn9jjm+ebCjkGYm52VT/+//zWwxyunWqpKBoaGzg4MDW0bc/m3t14ECJA1Ojll/COaX1zQUr5sL0uhqmTP7t3SvaHbcbwYrT6WzOpDxLbDYIEgsW1da61Wevv75ejx48bn27ZutQwIcIsS5xGxLOwYhAfvu0ceuu/enEf60O98TJLJlHzhs5+SgfPnAvtZQdGqRPtK2jvcK003fquSicnJ06cvXNgxPOqc3FouBAianhkcbi7NTJdt29Agq5ItmzeJtlmHLFf33M/FFiQFQsVWnSwtLcnDjz0mwyMjxnpQ1x46JK0trY7nYPn21cdqay1wXok+9Wf/RebzBPstr7pdbnnlq+XJxx6Vb31j/cuclMNNL79FXvzygqPDHdyqknwd2tVAgKBpFQoOu1qvSjRArMuXFAySdVQnA4ODxjBhyU6evGL/5baQWnsGOvs8kajsDHStRn7lQ78lHZ1d8nef/ZT09550nFNtuvnVu3/5gyVVJYePHXccqwUECJqOl+DQwND+hHgsKuFQ7k57ujXqUpmqEslO/tN3+3YtLS3GBdveKa0X9p5NG2XK6Ay1Vg+hnE7tgqHiozrRGe/azKWuuvJKR8i1t7VWdQn3m152s7zmDW+q6arkuhfdJLfc/lrHcau5ufmzT584sc1xR/Xd85bbbr21Bp9XyQgQFOUlOKZmZ4yl0O0Ssbgkbes5LSwtynSRRQvXw2tVoh3VugfIpcmp3PAoc5CY92nl8+AjjxiTKTva2+XQNdcYZ3S2tzuet18XBy7IV/7mM76+W6uSX/zlX5Weyy6Tr33pC/LMsaOOc6qt0Ja8fafPyLhLM2cNIEDQ+LwEx+z8vMwtzDuO2xkbNqXSjnfW5a5KHnnsMbkwOOg4rlXJLS97mVGVrPSlZC/9lsRYT6gUus+tOezs+XNy5OjKBfqNd9zheL5+3fv9u+Xwww+t+3Guu+GF8qa3/wd59vgx+Ycvft5xf7W57aBYq81XjRQgbCgFB69NVaX0bSxnMjIxbWzEox2cEo+uTNrTUJEyViUvzK5tdWFgYLUPQozmjTkjPLRvIpFIGrtP6UV+5f1Uxri+Z8wNrkKZ3M9lZfOrkPEhs7YRlvG5rAaOcWbOeStBYpyeyax9LhnZumWLTM/MyvDwkON3WI8gwkMdfuwR42b0lfzGh42q5Nvf+JpxrBaUuv0ugkGAYJXXznFztzm/NHj0putPmQGiax51ZEcolaMq0XWszHf2WpWYwXKyr08OXHGFhDKhlQt+SNaCJLSyt+BKeGTvy5hlRHbfwUzIdp4ZOJINEkvgrIaKGSRrnx8/cUJGh4fk4JVXOp57LZmdnZHP/NVfGM9Iq5L//Cf/t9Hhrh3v8Oz6RnmpCBDI8KXJhXAoVPF/CxoSZhi5VSXap6J9K0Ezw8P43UdG5Ny583LZli2SvcKvbIIbWqsyVvbGDcnK9X4tSDLZ+3I+dwSJW6jkVidnBy8Y50xOTUnPpk2V+wOsk1mVKO0r2bVnb81UJdMzM6d1VX7HHbWho0afV8kIkCZmBke4xBE/j558WnZvuky624L778CsSrQSSWdncOvcCbMqyddJv15alWin+wMPPSiJREKuvfoaiei6VtkgyawGSfZz1yBxCRVL5eJsDpOc6mRyyv+SGIWc7Q9298FCzArkwFVXG1XJwPnzxrHZMrwBsNMRWXbnBwcbcUn4mkOANCG/wWHVd/G8cWtLpeWKy3Y67vdL+0LMqqQlmTJCxPxcylSV6OZRehPLUOB9e/bIxo2bLEESyg0VM0iKVSeuzWFr1cnF4WHj61g06hhmvF5PPPxgoI/nhY7U+uPf/ahx5jvf+3654uBVZa9K3JaJL1coIxcB0kS8BIfbqCq3obgmnXGuFYna17NdOgvNtC6RGRTxaFRSicpUJS+9aeXdrFYlDz78kKTTaWPp9pVOb3EGia/qZK2z/tLUysAC3Up3x/btjuezHieffSbQxyuVOVqr3FWJ2xBeVAYB0gS8BEehUVAaKHozh+Lmc2LgjHGPNm1pE1dQ5hcXZX5xcjU4TJWqSnQ5Eh2tpcvJ6x4gziDJU50YBwuEimXM7+DggLzmVa9yPI9GYK1K3vz2d8q1N9wo3/vOt+Wh+3/SkL9vMyFAGpiX4FjOLMslj8tSm0Nxb9x7pVGVPNn/vEzOOr93+NK4cVNXbd8jqfj697W4NDvtCBBTuauSF60OBR6Uhx99RNra2uTA5VcYc1pWCgm36iTbVJVxDxX9MD+fOww67nE/knqmM9v1ph3uWpWMj43KZ/7yk76rEp1IaDc6Pq7r69fiDPSGQ4A0IK99HBoGfieSakVyYOtO4+I9Mjkhz50/7ThHHTvTa3z0W5XoSK0n+p41Pt/evdlxv51Zlej36XDgIG3p2bw6FNisSvbv2yedHZ0uQbLyuoayYWF2phulR/a8cq4RVu3mq2J06K+9Krn3hz+Qe//9+0W+M5fb0u8Xh0cIjwohQBrIxfGJiWgk0ualc3xoYiyQ/ab13X57qsWoSpKxuNEfMusyM92sSiLhiFy1fffqkN1Cjpw6YUxY9EPnmJhViTbNaRNdkKxVyeOHnzCqEt3oygwSU8YSJGuTFFcqF11V2JBZlg0bim+rWwrdA71emFVJz2Vb5Xd+7+NGNaJ9JWMelle//kXOAJnJ0xSL4BEgDcAMjmgJo3i081svbkEOxdXguHrHXqPT+8LYiPQOOveZWFpeMoJBbe3aKJd1bXSc8+z5U8bz88Jsrir0u5vDgstVlbzu9tuNz82qRCcmtrW25ZyXcQkV88iFCxfkumsOOR57Pc6eqtwQ3qDoviT/9Y9+33g0syrRfhLtL8mnlF0METwCpI75CQ6rcg3F1U7vDa3txk3D5OETx137Jc6NDhk3rUrSiYTMLSzkrThediD3Antpesrok7Gyzmx3U6mqZGR01FgksauzU3bv2u04z6R/t7lsJaJBhDVmVdLZ1WVUJcoMl0IymYx2ptTcnumNigCpQ16Cwz4yyT4U13qhLudQXA2T63ZdbgSJhtX50WHHOVqV5Ks4Dm7fnVOlzMzNGo/pxjqz3TqHxE05q5INXV05VcnQ8LAcuOKApFO51zXtNJ9yfDestBkrX3Bs3OzcfHBoZHSCAKkcAqSOeAmOfKOq7ENx8/VBlHMo7tauTbJn81aZWZiXx08W7uTV8/b0bF392m1+SiFuc0jcWKsS7dTOVwH5Vagq0QAJh0PBTyCso/6P9XCbQDgwNORMFZQNAVIHvDZVeRlVZQ7F1eYlfWdfbCiuNi/paKsghuKqwfFR2blpi7zy0AuNr/Xna4e+qbOlTW7Ye2D164xlFV8/zDkkGpoaFoXoelx60xCenJ6ez4i4z570wVqVPP7kk8bqwFcfvEomxidW55sE5fiThwN9vFrlNgJryaWpFOVDgNQwr8Hhd+6Dl6G42rxkDsXd3LFBdngYSpuPdp6nE0kjQEzX7iq8f/nA2Egg4TUxMyVdLW2O4250J8X2llYjPGbm5xbnFxYC/e/kBddea3zU2edHjx+Tn3uxcy2n9RgaHAj08YB8CJAaNDg2PhiLRjd56Rxf79LqYhuKG4tE5Im+51yH4g6Ojxi3UobiitEsdlbGplZ2hksXaE5yMzM/Z3S07+vx9y5dJyA+e+6UvMBS1VwzAocAACAASURBVJQiFU9ENcDKUZW0trauViVYv4XFRU3OemjCusdxpE4RIDVkYHSsLx6L7dKF9bzSJqHNHV2B/RILS0uBDMVV57OjrKzcmstM+YbkavhoJ38pwaV9GeZzzMe670gynpBEgZng5a5KgjLXJHMgtu10biA1NDISWLjDGwKkBpjB4Wcpi9PDA8ZN+w78vkt3Yw7F1c50rUqKDcXVi/ruzZdJOp40qhR7cJhucKkE3JrgzM7+qbm1C6LX4NIKSs+10rAwm7Dcft7s/Jxx034SHcFl33rXqpxVyXpVYwXeanDr/xgcGg7unRQ8IUCqyEtwaCeyjg7SNZSikWjed8nmu3R1xdad0pbMPx+iFPrzzaG4+rO1InEbiqvv+LWpKJ8dG3vk8styt2goNCTX7OzXPhcNA3NtLZMZXBpY2zdulqWlZSNI3UZRaUWjP7/QzzNpReK29a4ba1UyOz+/PLcwX7iXvgKaZQTW3iucb0RQeQRIFXitOOyjqvRds5d3yeaFPOihuDrRT4fibtuwWZYyy0WH4orLqCrzcWbnva8Dpb+D3jREdC6J1fT8bMHg0gmI4XDYV1+R2yZX+STj8bDOszGqkpmZ6UwmE0yCl2i+jOtrAXYESAV5DQ63JhYr67vklx24Vh7zsP5UkENxNdSWlzN5h+JK9l3/LVe9wPG96+n010DUm5elTrTTXJusdMb53ML6Lqr5NrlyY1Ql6RYjPGqlKmkGc3PzrMBbBQRIBXgNDn1XPrfgbIIpZC67/lSlhuJKdgkUt6G42kGunfD5hsteGB0OJMQ2tXfJi/Zf5Rpc9gmIz104HWgV5nWColShKrk4cMFxrBG5NV+dHxwkPKqAACmjUjrH1zsct9ShuNq2r1VJoTZ+O+uoKmuAmFqL9LvokFztp/C77pY5JFdDQjzMIRFLFVaOQQY6QTFkdPanjMojn0pVJU0zgdBlBd7xS5ccx1B+BEgZnB8euSeZSNxSrQ2CrENxz4xclNNDzoll1mGuO7p7Cg4FNi/cVtpp7Yc2PT3W+4zRDOa1s9+6J4gbe+e4OYLL2kdUzkEG5tIxOsggWaTCKmdVcvjhhxzHGtG2Xc4hvKgOAiRAZnAkXXZJK0YvbuV4l7y5vUt6OjYYF9PHe59x7VsxhwJrNaI7CJpLfhSaS7GxvfRl4GeyfRHmwAAzlAo1q7ntCTI+vVKt5Vsfa9my/IkGo86VsSrnIAO9aYC1pVsc91tZq5K5hYXl2fk5+kpQdwiQAKwnOKzK+S5Zb16G4hZ6py95RlV5pfM2Lrj8XGuzmlZDkg21fENyr9m5z3OTnz6e3tyqKD+bXHmhAXZhbFi2dHZ7Oj8Ri4X172JUMzPTs5lMpnDnCnJMz8xox98OXpXKI0DWwUtwuK2OqxdBc+vVfMo9FHf7hs2y6HEorhQYVeXmG1/9qpw9s9KZv3HTJnn7ne+SRCJhdK7ryC1tUnPr7NfAMFcDdqNDcvX5T/nYP1vDWPuHxLa0ipQwQdErDauFIvNN3GiV2J5uMcKj1KpEZ6C3dXTIpfFxx32N5LoXOdcNOz84SHhUScjvntjNzAyOQi9B9t1k0dVxzWGh9z/9pGuntynod8kmcylztxFNJr1wF2vbV9//7r/J8aNHHcdNt99xhxy8+prVr3XU2UPPH3NtVrM6tGu/bGrvDGTdLyu3eSUme3OeF9YmP/toML/8VCU6mfC+H3zPcbwRvOuXfkU29eQO4Dh87Hi9/Wb3vOW2W291HK1DBEgJvASH5NktrxhzWGjvwDnX9aesCvUZlEL7Bi7fmvvmTUdamc1bV2zdUXRklXri0Ufl3h//KOfYe97zHmOxQJOuPPvtb39bLl26JNu275C333lnzvnHz/Q6mtXsF+GHnz8W6M6JJu2k14pPJyW6KTbIQFyWT9G/0TU7965+rf+dafWUySxLIh4vOGorHz9VyT9+8QsNtTrvh/7T7zmOESDVQ4B44DU4vCyVUYw2Y2hVsrC4UPTduZ+huGIbVWVOBvTr//uz/yfvd1pD5Mc//rE8+6yzf+U3P/IfHcfy+eGRR1bvCbKPyEpDVftf3OiyKfpzrVVJvkmN1p0U8+3TYt8l0it9rMnZmZnl5eXC7aAWOsT3B//yLcfxekOA1Bb6QAo4OzT8V+lk8tcL9XFYrTc8xLw4ZC9IN+2/ymg60v6C9Q7FFQ/DYUuRbwSUeAyO9SpXH5G+hnrT10onX1o78rVC8fL6mU1+1tV+3dh3icy3NI2dnteWShvhMb+4kJmZmyv6jbp7n97quSqJu/x3ODo+zgz0KiJAXJjBUWz9IzttTy/HsNAtHRtk35ZtMj03K4+dLDwU1+1dsrg0sfhx5vRp6e/rk92X75fWtpXZ5hMjF1eqpo4uCYcjcujQISM8Hn30UeOWz8zUJVnIrrQ7Nzcnf/uZT6+u4/TuX3yfbNrsrYmuXCOp9PU7tHOf8bk5Mq4Yc/kUrURL6a+xDjsutoCjXTwaC+n5XquSRDIp7/7lDxqf11tV4rYC78XhEcKjimjCsjCDw3GHR2YTS7k6vMWyb4Vbn0EpShlVdfzoU/L9737Xcfy6F75Q7vvev+UcS6RaJJHK37Q0NzMtczNrW9Ru3LJN5ufdK5mDV18tt9/xupxj+UZwWQXVR2RalozRN2UduWVl7asJqqNfA6y1wOtYiNeqxEqrkrOn+h3Ha8kHf/t3jAC0qsPmK/XJt9x264cdR+sQAeIxOMymJbNz3G2FVmsbvSmIYaFuzBV5hy6Ny5H+513OyM/rqKqLg4Py5b/7guO43fLykkyNj+a082s1km7vMD6qpcUFmbKM8mpp75SIJWDb2trkTW96U07H+7/8y7/IuXPnjKaL97zvfdJumbyoI7i0Gis0cs1vH5FJm5+0ifDa3ftX1/fSQQbHz/QZn9uXqB+duiRhKem67UmpVYmp0fpKGqT/Q338Lbfd+geOo3WoqQPEa8VRrC3bHIrrFiAmP8NCvTKH4uoFNd+7ZLEMhy1Gm5Q+9Vd/aZzV3d0tu3fvlq1bt8pllzmb586fPy933333ahUxOz0p8wXmaUTjCUm3tjuO233gAx+QeDy+GiKmN7zlrbJvf+4aWPn6iKy89BFZWWfAm01TxWiA6LwabcbUvpmgub1p8cpPVfKdr/+DnHzW2zyhSrAHSCaTmXny+NOew7GGECD1zGtwlDqqSofiaj9IsaalUi9mxZgBYrK+SxaX4bCF6EXzrz/5yZXfJx6Xd7zjHatVwV133WUEhfZzHDlyJO+jTF8ak8U8qwq3al9JJCqvec1rjGByoz9jeHhY+vr6HD8nmYjLB3/jN12+a2U14Hx9RKZ8fUQm/fvZN6/SdcV6Ojes/X6zs8YS72Jb/8oMEFNbKl2WYcfiYVn5QiZnZmaWlpc8X3g1RDRMqmnj5p7VvhvTxeGRgXMDA/WwB7odAVKPvAZHqRse2WmncjgckoeeO+a4z6rYxawYc3Xc9Q7FlWxwzGQ7sf/yT//I0cR0xRVXyK2WkYff+MY3jIu8nXaMv+6tPy8T42NGU0hUl+hYzkgkGpFf/cj/vtrWnmppk1giaVQ2b3zjG41HKdbxfml0SLbv2i3v/5Vfy+mXueXW2+T6G2/MOddLH5G1Ujg9PGgsp+LGfH0L7dOiI6km52fk+Ok+x31qX8926bQFfRC8LCufj5+q5Aff/pYcP1L5VX9f/urXODrRn3rmWVnK8/eocQRIPSmlc9zPnhyF6Fj/3sGzJV3MirHPoPYbIBMT43LXZz6z+vW+Awfk5ttuMwLEpBf5VLb5RqsGHZKrF/37778/57GsfRxv+4X3yZHDh2XgXO6EyB27d8vFc2dk8MLac9eASbetNKvdeOONrgFirWg29myR+QX3i0Zbe7u8533vN5ZNMdmrglKYczkKDVl2UyiMgh52bLJXoaUqtSo5298v//il4v1jQWmg/g8hQOrEmYtD72hJpb5WyrM9euqkbA9wBI9J36HO6ryNIh3ehVbkzbc6bqkBYh82q5WFVhjf+973jGYj/TcxPTEmS0trzXdaVaW1Konkjvw2ltrI7hEiLqOwtGPc7DuxzgmZnpyQRVuVp30jUUvnvrU/xZj7YBuMYD5vkz62/gxxWTZFiizXYnVZV7cc3L7HaKbS5iq/dP+TZ86dyjt8OqjJkPpm4rrdlzuO+1GrVQkBUpsaMkD8BIfJ7Igu91Dco6dPFuzwFkuzx9jUpHGRcLsQmRc7rzQ4Lk1MrJ6to5/e/va3G30N2iehnebaMa7Ljii9gM9O5w5N1Yu8Bol1OK69c9x6cTebpsx+D13W5Otf/7rR16FNXjNFXofWzg2ro7n0Ma0TE82v9Xnr76E+/elPr97vtmyKvY9o9eck03LT5VcZnwddibr1rZj8ViVBrijgptSqRHdE1CbKcuzLbg+QhcXFgWPPPleP/R9CgNSo9QSHyW0kUzmH4k7OzqxuN1uKZCwuL7vyWs/f0d/fL//89fwvjV6IDxw4kDPSyvqOXquRKdu+Gqu/RyRqTCSU7KgtvZBbv1e/1uNmkOjn9v4TnZCYT/uGTTmPrQH093//98Yxc7SWhp6yjggzFVouRed36HIi9r9vuSpRt2XlTV7ftLhVouUIEMvPq2pVsm3nLnnbe9+Xc+z84ODo4NBwcCNRKqthAqQhZqKbwdGSCmJEnzNQz2U7q4MeiqtDg3WPcF1mXD8+cuJ4wXkNJp0A6HUEjnb6aufv44+s7VanfQ06kipuWYdJL7pahWjfhlvn+HKB0WivftOb5cd33200Xen36gXerD508US98Eu22lH2x9c+jvf/+ofky5/9dM67V937+g3veKfRJ6N9McPZkWA6MuyDH8wdkWNWTFZmv4y+SdImsNN9vTI9NSXxRFL2ZIcC5xudNre4YMxA14EO2hcSFOuy8vZ1tLwsKx/EigKlMme7y8pAgqnFpaXCu2Vl/03oTQdT2P+upXKbgV7H4dFQ6jpAgg2OFTfsvTLvCB7rhktBj/UfmZxYrSjyzbb2Oh9B/ez+nxpNMNe/cOWdqW5+p+/ytdO62GgnK2My2tiw8VGbEZ545BE5/MjKfJdUOi1vvfNOuXjhgtGcpTdtavrSl75kXLDNuSP5fp51VnoymZL2ro051cPExKRMZve61qYuvenjfvGLf7fapOXG3i/T23tSRgas80QmZPjioPHZgauvlrYCuyvq+lfmUiZB/83NIb5uy8qfs+w/r8OB3RZslBJXFFCjs0MSC8elNV58Lo6blmTKCA+v/UPtHZ3G6Dt17/fv9rXtrr6RQG2qyyasIJqqvPAygieId6jaxzE8Oe7Y6U+rB23y0HetXiuOb3z1K3L2jHNTpp4tPfLcsadyjplDafOZHBsxZpmLbbSUG+vaVqZkulXiLhtn2fs9rH0c+diXQFH62PozrKzPuWfLZfKCFzo3IHLTvWnzalWifvr0k3lHXhUa6LAe5sx3rxWG1xUF1PMjx2Q5k/u44VBEdnXuNwJlPbxWJSatSrSvxOvmVw3WgS70gVRJpYLDjZcRPKW+Q7W2Za9nq1j1vX/7V3n62Mq8E22a0k5ss8NaZ3Jr05S+u9eRTzoCysreAW4NA72wt1om0Vk7q1d/j/l5o09CP2pfyXS22cikfSTavKVj9q0hYA0wbd7SZq98M97NjnENh+mJ8dWQcBOLxeRVr3396j0HDx6USCQivb290tLSIps3b5ZTp07JxMSE47v1vGtvuFEi0ahrf5hd0MvK68itYn1ipVSi/ePPydxi8UqhO7VZutPr65P2M2rtwfvukYfuu9dx3MoeIHNz82efPnGinhdRJECq4bmzZ0dj0WinLucQi1Sn9e3ixNi6huKa7G3ZOl/k50roFDcdfeqI/PvddxtfaXDoUupm34Y5bNY6CdCcTS5FZowrHTZrLjFu3yBKsmtVKXMioHX0k3jsGFdmf4b2jWhn+DXXrAy//fKXv2z0obgptGTKS1/+CunoyK2Wtm/fLp2dK8c0yI4fz/8OdnZuTm6+9bbVr/ON2rIKYn6Hhoc2W5lvJOxNqaWsKHBh8oxMzLkPeigkFo7Jrs7LjepkPYKqSsx+MKu+02dkPM+/izpBgFSDGSDmj17PiqVB8PMOVS9EbjvflboFqrll7l3//b+vHjMvxG59DmaIaHhoiJhKvcibIWEOydULvlY4GlT2i308Gnbdd0L37p6Znl5tEjOfmwbIAw88YASIucyJPZTM3/3gNVfJ0MCAY62mV7/xzdLf1y+T4+PG40SyTX9a1ejnZ86cMSoQvWmI2Gcynz59WhaXl+U/vOvdjp+rTYoPPXe04EAHP8O/rU1X661EF5bnpXe0cLOrV1tat0t7Yn191eYgjlJYt+TVSanbdu3K+e46b74SAqRKnj93bjoaiTgb1dexYmkQvLxDLaSUUVX2vdb/2//1p8YQWq0UrM1LeiHWC7JOGnQbVaV0WO7/+tH/w+jcfPKRh41mm+WlZTlw9TXGCBod/WTf6+OlL31pzmO4LWlijn4ymx7+6ctflvHsO8tX3nGHMSPdOtvdnEBoLtyozVlmKNmZfRw3vfwWufYFN8qZkydzzujZsUPuv+++nFnw+/fvNwKjkJGREXn66ZXO8p6tW2XfLfvk+fG1pWhevPVm2dO5NlkvqK2HrYs2io/h2XbHzh+VaDz/wp9+pGItsqN977ofZ3pudmZhcdH1v183uvmVffl2IUBqSl0FSN/AQNEnGw6HjVEr1eDlHapVKW3Zvc8/J8MX16oFvVC2d3XlXIjNTmu9AOvF3hw+qxdja0Vi7ePQETJf/tu/dfy8g4cOyYP3/DDnmFuntZVe2PUCb3rBS2+WE8+4vxt2m0BoXTbFzvqcdfTXK155u+McK+3feOqp3EEDHR0dcvXVV+cc04C1vjbxDTHpfHH+EUqb01vklbvX9ijxu6z8iYGzrtWrfYn4UulzmZqflE3dcSnDws+ytW2X7xFcJj9ViRUBUjsaLkCsqlmVFHqHWkpz1dnTp+S8y6gq0+CFC/LYIw/mHNNqwaxKrOyzyu0zvM1+Em2W0ouqBo9bp7W1KjHpsFnz35I9COxzNsTSP+O2bIpkq5JQOCwL83M5fR2vvuP1Es3+Tbu6umR0tHg7v1YWWmEUEkmFpfvW0pprbt7xKtnetrbarpdl5QvRWfCt6+yQtzerbuiMSjq9vv4MN9q0pU1c61VqVTI9M3P6ud4+/wlbGwiQaig1QEzVrEpmjVE1K81buheHvsP04tLEuDxz9GhJP+uhB34qI8NDOcd0+K2ydpZbV9q1B4dOyNMK5t3vXukDsPZBuA2ltXJbr0pc+k/M9bHsfTXFHv+ON74l5+udO3dKe3u7LCwsGCOs8u1saLIvAGnadPsGCUX9bwS1rW2nvHzHq1a/9rKsvJW5aKMX9hWBdY01nQcVDq2UG/c//aRrNZRIhGVTd3neTO3quFwSUWdTUym8ViUn+vtlcsp9Tkwdue0tt93643r/JaRZAsSqmlWJV4899KAsr2OZ6rNnTsuRJx5zHBdbeJjLgFiXBhHbiCt7J7Z9Z0Ere+VhDsl1G5qr/Sbaf2JlnwBodfDQdbJly2U5K+2u/k4tLUY1cqZApaZNWpFkcnUSpGnz67od5/r1rqv+J8d35puUKiU2V3nZm0bnhEzMTBUdJdi9ISapZLDtW8loWnZ27HMc96NQVdIAzVdCgFRJEAFiqmZVks+l6Sljy9wnHnjAuCiu1+Ligvz03h8bI54kuymPdkqOjowandYaHhoiSvsL9CJv9ptYV8416b+V9rYWY2kJc4MhbcbS5i0dLXPmVJ8xpt+c36GPpcum6Aq/Wt3kG5Irlj4O7XjX5d77n3lGOrs2yPDwkLzktlca53z+r//a+Lhjxw7j5oW1j+P9v/ZrxkddVmNkeFg2dHfLv5z6qqTirteqkswtzMlb9783Z4MpK52Uqhd2faddygKY1n1avNKqZGputuh8kpZ0RLo6gxkOPz0Zk+t3Xek4vh46Om1qZno+I7I605EAqS0NsRaWH8vLyzI+tdIfUO2qxAwO0+HDK4vQlXKhdKN9BWZn84aeHunu6THG2psTCfUib1YYWiXohV4v8m4XerOPQwNkOZM7xFfp/h9dXSuTKDUM9KajvPKNADPZO9N7n35aFufnjfAQY+LiRnnuySclGo9LNBqVxcVFY6it3rQa0aG6blWJeuihh4zzxZhnsyyJmX+XTCgpkvw52bJ1pQ/q7NDKkjHt6XbZ3LnF8RjF6L+jvsGTxkfZv7IZmd60Oa/V0rSkgyVKWXJEL56TeZYvKfqcMpnVNdZ0fpFOgtVmNbup6SXjpp3t2ukei5XejDc3vywXhxaks2V9s9nd6DD99pZW44Gn52bnFxYXg/8hWJemDRArfYenN6MNP5V2dD6XS6Ed7iQ7J8G8UF5//fWrcxr80LWg9Hb5FVfK4PlzRr+Bub6UZJumIi4hap1sqNXGpclp+emPfuQ4T4fN6k2DxawmtGPcnGdiXzbF3hR200t/TjZ0bzTCQysjnU2+Z88eGRsbMyYA6sebblpZlkT7O7SisVYXeq5WUDqvQzvNzWHDGhwf/Pls09bMysfk9HeMIJlu/5XVnz8xPWHctDLd1r1DEjH3UMr5+1zsNyoPN0ZzXLbyy1eVFOI3POx0ORYdAabDxHW9Nbc11jT7Bi6u9Ju0tkSks6P4ZWFpKSPnB5x9LeUSCYWXHmmM6qOhNG0TVjGVqEr0tdcQ0XebVl/+3Ofydgh7mdPg1ZHDjxujvKzMvT6WFudXg8N4N93ZXXKwui2b4vh9rrhS9rsslpdMJo3f1UpDxNrPMTU1tVqtufnAG89JW7pwv4F6aDQm3x90vrntbOmSjR2bHMcHxy4YYWP3oZf+ruOYZBc8bHFZE6yQnxw/HOjKz1axSMRYCcGts92kP7ZnU1wiEeff/NyFObH9k/W9kkIxc/PzMw8ePhzcaqm1gT6QaqhkgJgqVZW4tXV/91vfcmwLa3Kb0+CXjvjSvpJ8zOYqc60qc58PrwrNdrePrLLSEJmdnTVGW2lTmAaGnVYgc7bX7W23Dci2Te6VQSFzyyH5TF9Kxhecf+tUIm30KS0suS/98rar3yvb2nNnTGtfRFvaX1/WD4+sdfYHvQqwSfdTPzNysejQY+1w1yCZnllyBIf4WBHYiwYNDhMBUg3VCBCralUlzz/zjGuzkenKK6+UDRs2OI7bmZ3k2syjzUCzLgvf6b4hA5Y9y3XG9+FHHjUWQ9ThvToEVwPkXJ5gs9OmrHd+4AOOdY7iiYR84Nd/U75y111GRWWvNrzQ8Lj1ta81OsPv/ta3JLJ0Xt71mgslP46bz/alZGCu+Lv/l+++Xa6/LHfFXy9vOqz7rNuH4ootQEzlWgVYn6dWJQ+fOF6wSdVNKSsCe9HgwWEiQKqh2gFiqlZVoqOHvv31r6/ukWGX70JsbQ4aHBw0hrRqn4H2qdibhVZ/1sKCXH3jjcbn5mx37QNJt3cUXXpdbDsY6siqc319MmVZ/TYcicjOyy+Xv//c51aPaSe5VlXFRqAdPXp0tY/jtW9+82qHeGLg9yQRC2azpWdGFuXrF/O/6z+46Vp59f43OY63pdM5QWDnVmla6cVY+0zcAsQq6FWATR0trQWHHptKWUXBiyYJDhMBUg21EiBW5n/w5eRWlVg3drIrdCE2J99pFXLixAmjItFQsS8qaOU2QTHfXh/WDaikQB+HlXaIa0Vk5RaG5qACq1e97nWyPbvY3tyJP5bQ7HPS3XOZMYvdr9HBAVnufL3EtrxdfvD8t+X4xSdXH6kt0SEfuOE3HI+sfRyF1jMrdVSV1+2Og1gF2GpZMqvB4LYfTqmLfhbTZMFhIkCqoRYDxBQy3n22VLwq0Wrk21/7Wt5Od2220mrDTsNFR2Ll+z43bhMUtRpJta5ccGYmL60ueaIjqnRklZW5F4d+1MDSfg29meGlH5944glHn4bdey7FZMfiWkBcevVNMvWiq40AWZ5cG6nT1rlB0m3e3yVPTYzL5PjKyLBoz9uMACmm2NYC9sUv/dAO6sdOPl2w01tXAdbRVimfzUnm3jRBVxb5NGlwmAiQaqjlALGqRFUiLsOAf/KjH+VdvLDYnIlS2Cco2h26/gbZtn1l/orZ76LNZvk6wu3cFkJUb5iKyjXz+d/lL6bn5ezP3S/LsdyRV7rKcKGqRJdQGRvK7egPt10rib0fdZxr0ot6Mu4cuWVnzjUKQqGhuFZeVgG2su5NU+4AWVpenv/po482+3wOAqQa6iVATNWqSi6cO2d0KudjzpkIwvPPPiPPP/t0ziPtu/JqudylL8arM+fOSSyRWA3DQ/MRef1U/nf5bi5ee0wmtzs7+ts3dEuqZWWZFrfgMCUP/oWE4s4hvKXO6QgyQKxi0ag80ftswarEbRVgq2fPn3LstX71jr3S01l8QEapCI4cBEg1/POPfpzZ0NkhO7YG1wZbKdWqSn743e/K6T73vUq0Kcm66dJ6zMxMSyyVkoPXXpcz/NjrCDGx9HHofhx3vPnNEhsYke7P/bPjvFLMbhiV8y951PN3hFsPSmLff3Yc12aqtMveFMWYneHVHoq7o7tHNnd0GX0xp4cHZPiS+37krzz0Qsex9dCf99NHvb/+TYIAqQYNEPPHaifjvt27JOXjP+pqKzZSJwj2qqTYUOAgJyiePnNGTp/KnaCoIaJh4sbeZKXrdb3rAx+QLZ9w7lPiV+/rf1DwO0ORtCSv+YzjeLFdL/UCOZftR0om4o6/q300VTmH4urt8V7vqwBbBd10RXAURIBUgzVArOq1KvHajr5e07OzsmDZb0M73UfyrFEV5ATFfH0ZZlVi3QXQ6rbXvlZ27tkjLb//3wIZqjo8OSGzH3mBzJ/+lOM+pcGhAWJVbBLgcmZ5dakSx+NZqs1Cw3HLNRRX/131Dp4tOhRXyjCqiuDwc30zggAAIABJREFUhACphnwBYrVv1y5pbamtVXa9qERVoiEybZk8eOzJJ+XhPHtkKG3e0iG/QSi0qdPg5q1ydusuuUyW5KMvuWH1+PBv/J/GR73I7uz2to+Kla5I2ze0Mimy+6/+cO11uLCyjHx0wy2Ofo5ic3xKGVVVraG4kp3PIXmG4qqN7Z1y7S7//VR2BEdJCJBq8BIgJqqSwqxVid8JiqWyTgBUI12b5OEXvtz1UX57S4fs+eifOI5rkBR7164Xs6fP9+ccswZIPsVC3L5qcim8DsW9avvuvJ3eXumoqldc7VxaZDS76jFNVdX1lttudX93UocaNkCs6rEqsS8HXi72qqTYBMXrrrvO11Bgbc7atnevtLa1yVe//R359xe/0nGOmxcfe1ree7ez/6Iz3SrbupyjpJ69cDqnuc5UKECCngRYiHbGD4yP5N3u2FTqUFyxjaoKujPcTv9DvO/hhx3HURwBUiV+A8REVVKYtSrxO0HRzrrkui478p/nYjK97O/P+NEvfkW2X3TuWNiSSBrNVW5CqaR0/eFvGx/tvK5tdn5kSNIJ5/evlw7FfaTI+lPFhuIaz290SM7ZdnIsV4AQHOtHgFTJegPEaveO7dJRwizlWqD/6lqLNLMEwb4/td8JitYNnZ7fd1BO7D3oOMePj//NF2TDhHM5dbuuj/+2hLs7HcdLDeTegXNGxbCvZ7t0ZvsWglTqUFyTDsXtu3jecZ6UIUAIjuAQIFUSZICYNEQ0TOpNPBbzvWxFKax7cReboKhViTZz6dpa9uVIvn/Lm2U5Ecz+Zb/4w5/ITYefcBw3tb735yXxEmcfgF6oUz4qCTNATOUcihsOh+Sxk/6G4koZRlURHMEjQKqkHAFiRVWSn70qKTRB0e7tv/AL8pF7T0tG95TY3SXLMf/PtfW5YfmPL9opV3S3yPS//khm/nVtbkvq9bdJ+vW3Ob7Hz4ZOVjrjeyTPxljlG4obM0LLy1BcyYbaDXsLL1pZCoKjfAiQKil3gJioSgqzViWFJihal1r/1e8cy7lvfkNK5jbnn2dhlz41LpHplc2cPvKSXUaAFLOeDZ2sZufn5P5njjiOW5VjKK7+t9nZ2iYXJ8bkSP/zjvtVMhaXlwW4EyDBUX4ESJVUKkCsqEry06pkem7WuNDpUGDtK9FO9/0HDhg3K3uAmJZjEZnZ2ZG3Kkmen5TYeG4H+Tuv6pFX7el2nGvSpqB2D8HRkkwYzVpi7B2+INNz7gMGTPr7PvTc0YoMxVXHz/TJSw5ck3Psyf7nZWhizKg4dB5HodFjpSA4KocAqZJqBIiJqqQwa1Xi5v4zY/L5w4WHrs5tTMv8xpXmoPjQtCSG3IfOfuoNVzmOmdo9LF7ZlkrmvfAuGxMFZ2S5yEgxe7+Im61dG+Wyro0u9xRmHVVV7uG46l6Co6IIkCqpZoBY6VBgHRJcT/RfbEsqbcyOLiedM6F9Jfn+XZ2emJU/e6BPZhZdNtcu4o2Xb5I3XeGc+yEeZ/IXCg43WpFoZVKINm899Pyxgp3eWo1ctX1P0dd+bGpSTgzk7g5ZzgB56PBhY2tdVBYBUiW1EiAmbSbSBR3rjc4/KMe8BrtiVcldh8/JA2fGHMftXrq9Uz5wnfvIomKTAMVHcNhpVTIxnT8UTV62grUPxRXLZk52Gjw3H7zOcXy9CI7qIkCqpNYCxIqqJL9iVcmzw1PyZz/rdxzvTsXkT195ueO4eJwE2NGSNjrSgzQ1NyfzC/lDUU3OTstDz7n3+Vil40mZnnefABn0qCohOGoGAVIltRwgJqqSwrTJp1CzkPaVpKMRuX6L+8AFL5MAyxEcdtpkdWnG/eJv5aUqsQp6VJUQHDWHAKmSeggQK6qS/HQ59MmZ/FWJXbFJgNpx3pFOlX33RzeTugTMYv4+EFVoKK7plqteENioKiE4ahYBUiX1FiAmrUp0BFcQO/9VUi1UJcUmAVYzOOy0v2dqds5x3E5nmo9Nra18HPRmTgRHbWukAAlmbQkUNDk9LU8986xxSj1VJQuLizK+uLKnt5fOar90Aya9WasSr5MAO2tolWWtkuKtUeP5TxQYChx034aJ4EClESAVdvrcOeOmW/Hu27WzbqoScxmTclYlOgzXywRAqwujo7Klq8txvJpWqqK0jE5OVeRZHH76aRnPs5cLUE4ESJXMzM5SlQRA33H3DaysYqtBUoll74vRDvYzQ0OruwKWC8GBaiNAagBVSTC0GlG6EdfGgLbiLYUZHOVGcKBWECA1hKokGNqPojftR9na3V3250NwoFkRIDXKrEp0Lasr9u6pu6pkvUuoe6XNRNqMNeeywKHOIDcv7O3ptGwIeFFM/blm1WMXZGgRHKhVBEiNm19YWK1Ktm7pkU0bNtTF89Z35eNTK1VJOpk09gIvF+330FuhuSUT09PGTS/s2leyngt8oeCQAKswggO1jgCpI+cuDBi3eqtKdK91qUBVYh3FlW9uibW5SSsSrUy80nAaKrCVLsGBZlNXEwnV93/24KXpmZnyDm+pI/VUlViVuyoxFVuHS7LzN7Zs2JB3+ZNiweFlJWAvCI7GFYtGF7s6O2576aFDP2mkX7LuAsR03+NPfHZkbOyXHHc0qXqrSkyV6isRD6sDKx29paO4JNvsNVLggh5UcJw8dUrOZIcio7F0trff84obb7i1Uf+sdRsgVlQlueq1KvGywm4QFpYWV5vV/CA4UEijVhtuGiJATFQlubQq0ZWB9WM90W1hzSqg3LR5q9BmUCadXd6WSgey5hbB0Zgavdpw01ABYvXvDz08PDk1VX9vw8ukZ9NG2bLJfTe/WlapqkQ3dZqZcy6ESHCgkGaqNtw0bICYfvLE4U8Mj45+zHFHk6IqKUz/ezBHbwW1LArB0Xiasdpw0/ABYkVVkouqpLwIjsbS7NWGm6YKEBNVSS6qkmARHI2FaiO/pgwQK6qSXBs3bJBtW3ocx2tdLVQlA0ND8kxvr+M46g/VhjdNHyAmqpJcuqXtFfv21l1VEg6HpTVZ2R0KCY7GQbVRGgLExY8eeeTsxKXJrc57mhNViTuCozFQbfhHgBTw08NPfnhoZOTP85/RXKhKVhAcjYFqY/0IEI+oSnI1Y1VCcNQ/qo1gESAloirJ1QxVCcFR/6g2yoMAWQeqkly6g6LupFhvkvGEJFwCkOCob1Qb5UeABICqJJdWJTqvRPd4ryfmsiWXpqbkiePH6+q5Yw3VRuUQIAGjKslVb1WJ7gB5/LnnHcdR26g2qoMAKZP7n3zyzpHRsa/ohkaon6qEAKkvVBvVRYBUAFVJrlquSgiQ2ke1UTsIkAqiKslVi1UJAVK7qDZqDwFSJVQluWqlKiFAagvVRm0jQKqMqsRp365d0tqSdhyvhNGxcTl17lxVf39QbdQLAqSG3PPoY8+NTUzsb/bXwVSNqoQAqR6qjfpDgNSgB44cuXl4ZPQ+qpI1lapKCJDKo9qoXwRIjaMqyVXuqoQAqQyqjcZAgNQJqhKn3Tu2S0dbm+P4ehAg5UW10VgIkDpEVZJLQ0TDJAgESPCoNhoXAVLHtCoZG5+4d35hoXLb79W49VYlBEhwqDYaHwHSIO57/IknRsbGrmv218HktyohQNaHaqO5ECANhqrEqZSqZHh0TM6cP+84jsKoNpoTAdLAqEpyealKTvT3y+TUtOM4nKg2QIA0AaoSJx0KrEOC7QiQ4qg2YCJAmgxVSa7WdNpY0NFEgLij2oAbAqRJ/ezIU7tGx8d7qUrWaFUyOj5GgFhQbaAQAgS6Je99QyMjN/NKiKSSCZmZnXMcbyZUG/CKAMEqqpLmDhCqDZSKAIGrZq1Kmi1AqDawHgQICmq2qqRZAoRqA0EgQODZA0eOfGdwaPj1jfyKxaJRWVhcdBxvBFQbCBoBgpJpVTJ+6dKJ2bm5CK9e7aPaQLkQIFiXZqhK6hHVBiqBAEEgqEpqA9UGKokAQeCoSiqLagPVQoCgbKhKyotqA9VGgKAiqEqCQbWBWkKAoOJ+8OCDc1PTM3Feee+oNlCLCBBUDVVJYVQbqHUECGoCVckaqg3UCwIENaVZqxKqDdQjAgQ1qxmqEqoN1DMCBDXvwaNHv3Rh8OJ7GuUvRbWBRkGAoK788OFHpi9NTqbq8a9GtYFGQ4CgLtVLVUK1gUZGgKDu1WJVQrWBZkCAoGFUuyqh2kCzIUDQkO559LGJsYmJtkr8blQbaFYECBraI8eP/9XZCwO/HvTvSLUBECBoIkFUJVQbwBoCBE2n1KqEagNwR4CgqRWqSqg2gMIIEMBSlVBtAN4RIAAAX8K8bAAAPwgQAIAvBAgAwBcCBADgCwECAPCFAAEA+EKAAAB8IUAAAL4QIAAAXwgQAIAvBAgAwBcCBADgCwECAPCFAAEA+EKAAAB8IUAAAL4QIAAAXwgQAIAvBAgAwBcCBADgCwECAPCFAAEA+EKAAAB8IUAAAL4QIAAAXwgQAIAvBAgAwBcCBADgCwECAPCFAAEA+EKAAAB8IUAAAL4QIAAAXwgQAIAvBAgAwBcCBADgCwECAPCFAAEA+EKAAAB8IUAAAL4QIAAAXwgQAIAvBAgAwBcCBADgCwECAPCFAAEA+EKAAAB8IUAAAL4QIAAAXwgQAIAvBAgAwBcCBADgCwECAPCFAAEA+EKAAAB8IUAAAL4QIAAAXwgQAIAvBAgAwBcCBADgCwECAPCFAAEA+EKAAAB8IUAAAL4QIAAAXwgQAIAvBAgAwBcCBADgCwECAPCFAAEA+EKAAAB8IUAAAL4QIAAAXwgQAIAvBAgAwBcCBADgCwECAPCFAAEA+EKAAAB8IUAAAL4QIAAAXwgQAIAvBAgAwBcCBADgCwECAPCFAAEA+EKAAAB8CWUyGV45AAAAABVBCxYAAACAiqEAAQAAAFAxFCAAAAAAKoYCBAAAAEDFUIAAAAAAqBgKEAAAAAAVQwECAAAAoGIoQAAAAABUDAUIAAAAgIqhAAEAAABQMRQgAAAAACqGAgQAAABAxVCAAAAAAKgYChAAAAAAFUMBAgAAAKBiKEAAAAAAVAwFCAAAAICKoQABAAAAUDEUIAAAAAAqhgIEAAAAQMVQgAAAAACoGAoQAAAAABVDAQIAAACgYihAAAAAAFQMBQgAAACAiqEAAQAAAFAxFCAAAAAAKoYCBAAAAEDFUIAAAAAAqBgKEAAAAAAVQwECAAAAoGIoQAAAAABUDAUIAAAAgIqhAAEAAABQMRQgAAAAACqGAgQAAABAxVCAAAAAAKgYChAAAAAAFUMBAgAAAKBiKEAAAAAAVAwFCAAAAICKoQABAAAAUDEUIAAAAAAqhgIEAAAAQMVQgAAAAACoGAoQAAAAABVDAQIAAACgYihAAAAAAFQMBQgAAACAiqEAAQAAAFAxFCAAAAAAKoYCBAAAAEDFUIAAAAAAqBgKEAAAAAAVQwECAAAAoGIoQAAAAABUDAUIAAAAgIqhAAEAAABQMRQgAAAAACqGAgQAAABAxVCAAAAAAKgYChAAAAAAFUMBAgAAAKBiKEAAAAAAVAwFCAAAAICKoQABAAAAUDEUIAAAAAAqhgIEAAAAQMVQgAAAAACoGAoQAAAAABVDAQIAAACgYihAAAAAAFQMBQgAAACAiqEAAQAAAFAxFCAAAAAAKoYCBAAAAEDFUIAAAAAAqBgKEAAAAAAVQwECAAAAoGIoQAAAAABUDAUIAAAAgIqhAAEAAABQMRQgAAAAACqGAgQAAABAxVCAAAAAAKgYChAAAAAAFUMBAgAAAKBiorzUANDcTpw9d3MoFHphNBJ5azgc3h6JRLqT8Xin7UX5vIjc1dXa8uNmf70AAOsTymQyvIQA0GBOnjv/4XAodE04HN4fi8Wui0ejHeFwOBTwb0lRgrIYnZz6A15Z1IKu1hb+LZYBBQgA1IGTZ8/dGQqHr4+Ewy+NRiIHIpFIRzwWS9XgM6cowbqNTk7x5gQ1oau1JeiGm6YnFCAAUB3Pnzm7KxwO/3wkHH5FOBzeHY1Gd7sMe2oUFCUoCQUIagUFSHlQgABAQLSXIhwO324Oe4pGIq3RSIS5du4oSpAXBQhqBQVIeVCAAEAeHidnIzhalPxTV2vLP/GaNre+gQHenKAm7O7poQApAwoQAE3lxLlzhyKh8O9EIpFDOuypTJOzEZx/zvaUUJQ0EQoQ1AoKkPKgAAHQVJ49c+Z8PBbbsvo7Z0Tisagk4wkJhciZOkFR0uAoQFArKEDKgwIEQNN46mTvrtaWdF/R35eipB5RlDQQChDUCgqQ8mByJICmEY1GPu/pdw2JzC8uGrdVFCW17i16G52csj5NipIGdvzJw8YN8OPgtdcZN1QHBQiAppGIx2/x/bsWKEoS8biEQ2HHt6DqKEoa2MT4mJw91d/sLwN82rZrFy9dFVGAAGgKx/r6PpFOpYLtunApSnRYazwak2SCoqRGuRUl92SLkrua/cUBgEqgAAHQFGKx2K9V4vfU4VkLS4uyME1RUkdeobfRyam/tTxlihIAKBMKEAAN72hv350t6VTV9u+gKKlLFCUAUCYUIAAaXjQS+Vit/Y4UJXWJogQAAkABAqDhJRLx6+vhd6QoqUsUJQBQIgoQAA3teH//N1PJZN3+ivmKkmgkKulkgqKkNlGUAEABFCAAGlosFntto/1+WpQsLS/Jpenp1WMUJTXPrSjRTSz+QkT+qau1ZazZXyAAzYMCBEDDOtbX9+F0KpVqhr8wRUld0l3QtCD5W8uywBQlABoeBQiAhhWNRj/azH9dipK6RFECoOFRgABoSE+d7N3V2pLewl83F0VJXaIoAdBQKEAANKRoNPJ5/rLeUJTUJYoSAHWLAgRAQ0rE47fwl/XPrSgRkZlYJDqRiMd7ImGKkhqUryi5K7sCF0UJgJpAAQKg4Rzr6/tEOpUK8ZcNXGphaTG1MLNofVyKktqmRcmf681SlPRne0ooSgBUBQUIgIYTi8V+jb9qxVCU1J9dFCUAqokCBEBDOdrbd2dLOtXJX7WqKErqD0UJgIqhAAHQUKKRyMf4i9YkipL6Q1ECoCwoQAA0lEQifj1/0brhWpREI5GhRCy+IxqJNPvrU4soSgCsGwUIgIZxvL//m6lkkj9ofUstLi3tWFyayfklopHIaYqSmpWvKDFX3+pr9hcIQC4KEAANIxaLvZa/ZmOiKKk7WpT8vt4oSgDYUYAAaAjH+vo+nE6lUvw1mwdFSd2hKAFgoAAB0BCi0ehH+UuCoqTu5CtKADQwChAAde+pk727WlvSW/hLwg1FSd3Z1ewvANDoKEAA1L1oNPJ5/ooohVtREglHTifisR2xCNEIAOXEVRZA3UvE47fwV8R6LS0v7ZieXcp5FIoSAAgeV1QAde1YX98n0qlUKMjfIZPJOI65C5n/Q4OiKKld7R2dsm0no7Xgj/77QfWEvActANSe586eHY1Fo4EliV4T3a+LIbcP6xMKUbw0CIqSYI1PTTbSr4M6trunh8t0GXClBFC3jvb23dmSTgXajLW8vOwoNlZkVr7MmF+VKuR8WC12ijxKKET21QN6SgDAO66KAOpWNBL5WJDPXYuPlYIgt8owSwBvRUfI9VOjgPFRvKz0xliKF3pN6gZFCQC44woIoG4lEvHrg3zuawVIbu2Qv2BwKzYsZ2e8Po7LY+YrXlx6TYyihJ6SuuBelIQH4rFYezwaYyNNAE2BAgRAXTre3//NVDIZ2FM3ig/L3A9nsRBy+TK32HA70/k4jgexfVp678va8145W2sRipL6sbS83DMzNyd6MzV7UXJh8KLjWC0Lh8OZVCJxMh6P/+6BnTu+GsRT/dmRp34sIq9w3FFBLzl0DRcRlAUFCIC6FIvFXhvk815aWnK8kc8RspUALhVB/mLB7fFknQVM/uLF+DUymZzHMQsSipL6QFFSX5aXl0NTMzP7pmZmvvKzI+NfkTIVJUCjoAABUHeO9fV9OJ1KBfYmTAuP5WXrW/2Ms2bIUwk4iwWXN/j24sXl8ZyPk+9ef8VL7speZk9JSMJhipJ6QVFSXyhKgPwoQADUnWg0+tEgn/Oi9n7Y3/Y7q4Ac2bfwLqd5L17E0WuSpxAIsvfFUrwYhVfudAR9Q0tPSR2hKKkvFCXACvYBAVBXnjrZu6u1Jd0X5HOemZ11HHMqsPpU3jvchQp9U57DbpynOo+4HSrllHA4LJFIxHEc9SUcCg0l4vGWWCSaqofi8pneXsexZqJFSSIen11aWkrNLyxU7TdnDgjKhR4QAHUlGo18Psjnu7i46Do8yflVto/ELY6LtuOEXIZG2WaZe3yskOUz56lBDx1z7kPibLRiN/h6sJzJbDR6SmStp6SWi5Idl13mONZk9A+S04MVi0ZlenZWJi5dMj4C9YwCBEBdScTjtwT5fBcWlyT3PXXu2/FMiQWCewFjGeDl8/GcQ6zWU8B4L160B6SwjPk/f9jXpGpquShJB7jCXSPpaG01blbjk5MUJag7FCAA6saxvr5PpFOpwN4V6cpXejMZD5x99NU31AXfWbs9FcvqUyGXb3ccyP94ZvGy+v/uP64I/70v9qFXxh4kjh6QQnL3NPkf7d0JcFz3nR/4H9B3475BQOAlHqYokjooytZYMjW+J7KU2M5mdjJjz2ayO1Pl8exsdrdqJrWp2i1vze4mlU3teJxNpjazsjeepKZsJ5E9Zce3JEsWOZREihJPkQCIg7gb3ehG342t3x94wOt39Xvd771+3f39lNukXjcaD40m8P++///3+2udvpnd4PVh9sVujTZTAggl0JgQQACgYQQCgd+z81y311Yr5hQ0R8N6g66t8kfYGV48MPviay8PILxXiubn0qpzl3+CKnaA10ot6ldMf/YFA2X7IJQ0HoQS8DoEEABoCO9NTv29jmik165z5Sv5XP+hpjWY0hriUtnVd/3wQqaeUwowGqvBNGg9H9k6+8LdsLhF7+6HqmYqZEvVrDUQq5QqymZ+dLoNVyQmamTP3d7Cg+TLFy9QKBymE6fPqO6rFkJJ40EoAS9BAAGAhuD3+f7IzvPM5XKkvZpI8+A25UV51dV3vUGXxnMqlg7pBxit59T4rDbPvvj8GrMfGi+Y+ojudIjqo7TCi84h7c+h8dxlsy+yJyppnHurtBt+9cc/FH/++Hsv7R4bHB6hR849SYePHRfhxA5aoaStrS0eCgRKQX+gD6HEe/RCSTKVouTmZqu/POAgtOEFgIYwtbho6w+rxEbSuJ6h4jhafcSQ/pi5uuc0XftQ+VFa48KOaHT373uzRRoP1DhUxUP0n1Dng3UOW3t+jU/VbKGEZz+kAFKJE6FEC0JJQ/pPRPRiX2fHf2z1FwLsgQACAJ53fXr6P0TC4b9t13nm8wVKKa/u6YyDDPfsMKIxuDX1CbXoj5mrfj6jRwcCAe42tvvfvFFjef2HNqPn1D1HjUMW7jZ+tMEHG9xV/ridQNKoA+UXv/antBGPq46bhVACBhBKoGoIIADgee/Pz2/6fT7bdnXeSKaoUNSq/yBV1yhTdD7AE+FF9nDjj9q7tyMaKWu/m83ldB5p4px0DmsxfqjGvRqHavj0ZpOeqCep3J64/uamp+k73/yG7efR1dNDjzzxpKgpQSgBBYQSMAUBBAA87drU1B9GI5F/Ydc5ctvd+MbGzn/tDWosDW90H1xl5ND5gHoEGG69ywFEwkuvikWD2Q/9p9Kl/hD1EaPDWuo1+9IuivW9GUb++lt/RXdv3VQddwJCCRhAKAEVBBAA8LRbs7P3g4HAqF3nmNpMUyYrK5JVPUKD5oO0Wt6apPvg+s++RKMRseOyRP5aVXdqBudgcJce7Q/RPqp32PrDNB6xc8jv83lyeVYivk5f/9pXVcfdxKGEAwnfuntsa2CnIoWSgN/f197m/ZkpEBBKWhwCCAB41rt3Jw90dkSn7Dy/lbWY1nByj+admgd1jlp/Ps2H6NF9cJU7istXHbW1UU9X1+5/82zR9l4pekzEHMM79ZmamzK4S4v2w7WP6h2W45kPv2KzRq+48OrLdPHVVzx3Xi6GkljQH2gPBvw9CCUN4+WdUPJiq78QrQABBAA868a9ez8Ph0Ifsev80pkMpVJGxec29JVS3ak6YO2zaT6oygCj+8DtOyKhEIXDod2jPPtRKik2W9T+0CpVCE2Gd+pzIrxofYjfHyjbK8VLvvonX/HkeWnhUMJF7lzsjlACCgglTQoBBAA8a3JhodRm0/qWyakpeu/GDfH3cDhM+0ZGaGBgUNQ8mKF7EhYDjOEjNO/UPKhz1Przyf+rp7trt55heWWFLly6JP4+ODhIQwMDtG/Uyko4/c9jfND88xt+uOGdxswsX+Pgwd3CvOj6O1fK9vxoRMFQSMySIJSABoSSJoAAAgCedG1q6n+LRiK2bD74ymuvid1+jXAoGR3mUDKwG0pUQ9AqZksMH2lneNF8gOqA7lG/30/dXXsbkr32xhsUW18Xg2yuCdlMp8se39nRSRMPjNPgwKD4WM3n1vpEpqg/UHVEdcD68xs+heGd262KfR4tPv/Ov/0Gzd2bVh1vdAglYAChpMEggACAJ92em4sF/H7bRhmra2s0MzdHs3Nzqvv0SKGkp6eHQqGQzqP0qcawbaq/VPc8mgdVB1SMHtHV1UnBnSv66/E4/eKXv6STJ07QoQMHyh7HXbEWFhfp7vQ0JRKJsvv49XpgfFzMLslDiZXzrD3AqD9IfUTvoMnP0NZO4VBQddwLnGq961UcSh489gE6c+4cDY3Y1qtCBaGkISGUeBgCCAB4znuTU3+vIxr5906fV7WhZHBggPr7+ykUVIcS9QC6upGu6qPUT1zd82jcwQPqgb69rHf56lV6+MQJgxChtrC0JF5HDidy4VCYRkdGxC0sa89a3Utj/AFOzL5oPU0g4Lf02rjpx999ia5fveLJc3OLW6GEy8qC/kAqFAwMIpR4R6FYjOXy+c1YPF5IpdPDyVQqktzcpBctgUjwAAAgAElEQVSePa/1zxnqBAEEADzn5r2Zt0Oh4CP1OC8nQolZ6gG0TeGl7KD63mgkUrb3h1142RvX3nA4ycu6afHgnQPJA2NjslCiPi891b80+h+kfu318evlVY1UfO4mKZTwEq5xxayezRBKHJDOZqcTGxv+zUwmupFM9nGgKBSLlj4RAoi3IIAAgOdMLS566gcTLzXiJUd8dZ+XIJnBA+uBfimUGC/X2R5Q1/67UZ0xzD3nQF8f+XzbgyWt3wl27nORTqd3A568roRDCb9evISrs6NDnLoNC9U01TL7wrMfQY8Wn3u19a6XnTh1BqGkDnL5/GImm81tpFKl9Y2NA9lsljhUOAkBxFsQQADAU65PT/+HSDj8t73+XXE6lJhVa3jhwXRfb4/4e3H3imKbQQAwuK+tQmcqHUZ1JSPDwzQ6Mkq9PT3aH6xH7xw1mX8kzxR5dQfuF7/2p7QRj6uOgzUIJdZtbW2lM7ncEs9SxJPJ/kwmE1mv0PjDbQgg3oIAAgCesRhbnyptbe3P5nMN+YuimlDCV/5Fm9vBIdtCiRV9Pd2iwJ7DR2lLb8+PvdG86hvTZtBRyiCQmBnE69WVcIgbHRkWHct0P7f83K3SCS/8vQpX0YzADWaKz5/56Mfp+ImTdPH1X9DNa+9RJpNWPQa08T4lHEr4Twd5KpTwsqd0JtO+mU4H19bXRzK5nNgbqFEhgHgLAggA1M391bWXw6HQM0afv7RVomwuT7mC0Y7c3uXlUMIhYGRokEqlEuV3zq0sTsgL1ZV/Uz/EOKgYzZzwnh7ad6iCil5dCXcqGx0eppHhEdVzqGh+XXr2HsGzH+1N0Hr3+EMn6cxjZ+nYiYfEfy/ev49QUoVGCyV6xdmtAgHEWxBAAMA1ZgKHGY0eSrj2gQfRXAtRz1DS2REV9Ra5fJ5KxdL2QcWvaFOBRPM4mQok6vv0jpNuiOG6ktn5eVVdSUdHB42PjdFAf7/Yy0RN/Rn08N4wThTq2yERX6evf+2rNT0ThxKeHTn92OPiv+PrMbrw2i/onbfeRCixgMOIFEwclA74/IlIKMSzEjUXZ7cKBBBvQQABAMfYFTjM4FCSyxcom8815De0HqFkaKBfDKx5WQXPguyRLZ1SBRLddKB7n9MhRn1cXO2lxaUl8ZrKN6Hk5WbboWRAfzmVxhN2RCKebb3rVPH5gUOHxUwJQkltxvcfEIHE7lBy5dp11THQdeWFZ8/XpbMiaEMAAQDb2BU4ePDIQULvSp7f5xNXtIN+425ErRpK+nv7aHBokKKRqOp+CRef9+/s/ZFM7S3DUHeIksUE1cC8TedjqKoQ48byLw4lPFvCf0o4lPAsydjYGEVEKCl/Bu4QJjpzeZSbrXe1QsmVt96kd966ROuxmOrxoK3WULKytjY9t7DoaJV8k3n5hWfPn2/1F8FLEEAAoGr2LqnKUc7kIFtLwOcXLVL5TyMIJduhpLene3cGILGRVMwklI/+VQN96W+qkb6JQKI6bt/MidF9qq9B9rRrsZgIJUtcV7LzmnLI7e8foPF9+2hocJCCQeOwWy/X37lCP/7eS3U9h5F9Y/TkUx8Wy7hC4TBCSZUGh0fomY9/0lT3reu33xdLJ8E0BBCPQQABANPsXFKVzedFCHDyZ1DQ76eAPyAGk0aaIZRw/QOHknS68tIYLtY++9hju/99b3aWeroVbW7bFAFAdVx9X3kgUTxK4z718cr3uTWrcm9ujq5dvy7eO5/6+MeVJ+IZVorP3YRQUp3/5h/9j+L1MpLN5uZu3LkzbvAQUEMA8RjjS4UA0NKUgUN3zbwJlZZVOYFnVOSzKtxRKeDzUTAQJJ+smxF3lwkHg+ImaaRQwjtzHztyRNwkeqHkQ+fOieVGklvvv0+ZTJa6Ortkg/A2oi3xPxL/Lx+cb7XRXmTcKgskW1vy0f/WbiDZ2vm4XW1b4mO2du+Uz6psyT6GFIFka+9zb9Fe7BCnuyU7vhdItj/t3n3Ss+099fZ9O5+WltZivLyFSsXt983ExITq9fYKbr3rxfBBorPWPL307b8i+vbeMQ4l5576sFjCxYPsbCZDV966JDpwIZRs7z9SKXyw2YX7CB/Q8BBAAGDX3Mrqn4VDod9tb2sTPxvs2vMgnkqqjtUDz7ZohRKeKeGaCHmby2YMJVqmZ2bE0fHx8d1B+JYsdIihfNnYXn2fMpDs3ENlk1s7T6IOMXuBhFQhRhlIlMu/tnSCijKQ7M2cqAPJ9j3FrRLdmb4nivG51e7MvTlx/OiDD2q8at7Ay68aCYeSH/413767e9a9fX0IJTvM1IMUS6VYMrXZp7oDKvlIhfvBZQggAC1MGTiiJq6+VeP67BQdHN5HkaD3NnHjULK9HGxvPXU7z5T4AxQM+CuGEinUZHNZarQFrbyGfN/oKN1fWKBfXnhDHON6h6GhIeru6hb/3SYN5eVrn3Zzhvo+qyGmfLZl777dmQpFiLEcVEg5c1IeYviedCZDs/cX9p5sa7sj2OjIiAimXnX9amMFEC0cMjiQVAolvEfJhdd/IUJMM+L6DzO1H2ux9cZcJwqggBoQgBaiDBxu+enVS2Wfydfuo4GuHhrp6avYycorOJTw0i2eLam0i3cjh5JkMklT92bo/uICZbNZ0aa3v6+PRkdGKRqNKmowVJUUqvvUx6m8lkNxn+qestoMa/dpnp2ibj2dydK8Yqf1mZ1lTU998IPU39urPFNPcKr1rldxKDn92Fk689jj1NPb13Sh5GPPPW9qBgStd6uHfUC8BQEEoInZFTikAXWhWOAlAOK/eUDOQcJM5yllANHCz8WBhINJI4US3n+Dv/5WCyV9HEqGR6gjutPqV/H1Ww0qRvepj5NWVNEPMaRdVM/Lrabn5soe5mtvo6mpKerp7qann3pK9TRe8eLX/pQ24nHPnp8bmimUfPkf/xPVMaVEMjkzeW/Gu0VJHocA4i0IIABNxM4ZDt5lPJOz3qVKq/OUmQCihYPIYFcPDff0lxWNexl/3dFQuGIgoQYPJbxkTbQDnpkV58+hZHBgUCxbCoWC6hmJskxhMawo/mLXrMrqWox452i5tZVlSm1u0hOPPUYjw8Oqr8ELuPj8O9/8hifPrd44lBw7cZKe/JUPi1DCeONEriuZnrzryXM+88Q50X63kjvT02V79oA1CCDeggAC0MDsDBxOdqkK7uwgPbu2TPdjKzV9Dg4lIz39YqbEq6EklU3TWP+Q6rgZzRdKBsTyraDGTu3beUM9Jqg6qCjuUx+n3TjCsx+zCwvyR4j309TUJHVEO+jZZ55WnZdXeLX1rleFwxGxcaJXQ8kXv/Rl6u4xXuqXzeWmb7x/BxsP1gABxFsQQAAaiJ2BY7v4OldWfO0WqR0udx6aWVmk5cR6TaEkGgzTcE8f9XZ01S2U8IzRfGyFVjfidGh4jA6NjKkeUy3+XuWLhapmpOpNGUp4ydrAwKAIJspQ0qYROqiKQKI+pA4ryc0UrSc2yj4mvr5OiUScHvrAB+jwwYOq8/CCRHydvv61r3r5W94QtELJrevXRCjhZVxu4R3RP/ubX6j42Wbm76fX1tcjqjvANAQQb0EAAfCw2eWVz0fC4X9nZ9E4D5TT2azqeL1J7XDT+RwtxFbofmy1pjPqikRpoLNHzJQ4hWdzFuMxKpbKw5PdAURLq4QSPXpL3MzOqmwkk7SRSu3e7/O109TkpJi1+bSHNx5steJzN3Eo4Y0TuQPXyL594jM7HUr+1uf/Czp87LjquBKKz2uHAOItCCAAHsKBIxQM/oXf5+ty6qzmVpeoMxxVHfciqR1uMpOm+dgyrSTWazpLDiXD3f3U29Gpus+Mjcwmza4s0WYuY/jowe5eOn3AeP8NJzR6KJmbm6Ope/doc3NThJLh4RERSnwVdrI3ohdU1tbXRRtiSWpjg9Zia3Rw/356+KGHVI/3iq/+yVc8e27NyMlQ0tXTQ7/9pT9QHVdaWVubnltYxPKrGiGAeAsCCEAduRE4lCYX52lyabtDTCO3w40lE2LJ03pqQ/UYK3jZFi/f6tIIZelclhbja2JZlVlchH7uyEMUNtjzhGehePDLHcWUtIr4a4FQoo2Lz1M7Bei88eD01KT4+3Of+pTm472ANx788fde8uz5tQoplPASrgOHDouvmmtJpLoSs849/Qw9+XTl/fGu336/LCxDdRBAvAUbEQK4SBk4OiLVL+nlwaR8ANsm2uJaq3/gpUNL8TVxk0idp7zaDre0tUWZXFZsavjgyLg4xl83bxi3tmE9lPBj7QgxvOSqr0M7R/L3ic/ZTJ2L9k7t6k0Rzdr9eNn3slFCSSgQELUY8noMrVAytm+Ment7LYWSdtnMSCadFn+Ojzm7bK5WjbbzebPKZNIiaCjDBm+c+MxHP04XX/uFeEwljzzxZIVHEGWzublcPj+uugOgwSGAADjIzsBhZRBLBlfSYxUG21IxNd/2nsvbnaf4teG6Fnko4a+bZ3hiqQTNrCxRMmNf+0p+7omBEd06j73d1WvftHivWcDec1nZf0RLs4eSaCQqWugahRJ+/bgGhF+LxcXtblhHDx9WPc4ruPUuOl95m5XZjxOnzohd3iuZXbiP8AFNCQEEwEZ2z3DUMojVupLOnacenjhMdxZnLXWe4lAys7oobhIevI71Dda185QR/tr45m/307mje2v6+RgXj3P3rYyF13Zf34AoLtdbWsWvUTaXEzM0TuPPwYErTXvNBDgUhQJBVeA0SyuU7HxdW7l8IVMsFT3bgUcrlLC7U1M0Oz9PiURiN5QMDAyI+ziY8KxZdqchQ39/P3V2Vlcb5AbMfjQXM7ueF0ulWDK12ae6A6AJIIAA1MDOwEEOD2Kl/SWICjTWNyRuUuepQqkoBuRWOk/xuU4t3yfi2w4vtMOVW4rHROH4kKzHvpi9GBwRNwnPLHEg41mSdC4nHsPLqfo6uyoW7HNI5I+vt+3AlebKPuqJai8Fq0bQH2gL+gNlb+xGCCWsUijh/T5Sm9udsA4f8GbbXcn1qwggzWJweITGD1SuKV+Lrdc+hQrgUQggABbYHThYOpspm6lwkzTLwspDSYDS+azldrjcHUoZStxohyvhsMGzGxvpveVWvTp1GXI8qyEPJFYsrq9RJBhUzRy4jQvledncyf3OLyNqtlAyMzdHoyPe3PWcdlrvQvN45Fzl2g82v7hY3Q8l0IIE7zEIIAAGZpaWTwUDge8GAwFxucqOwCHHxc9tGhuv1ZNUc9BObbuhRGqHKw3wrbTD5TDAtylZKOFQwKGk2na4Eq794GVhRl2qeKbGSVzIf/Xend3PIOplevvF1+fkLJA0AyUPW9WQluHxuVZTTyJp5FAyMe7tZfZYftVczCy/SiSTM/zWVN0B1aqthzvYDgEEQEYZODqjxstvasULrd66e8Pz7XBLO6Ek6PPTgcFRcaulHa5W56mBnc5bWu1w5aQr/WaDhZXX06g9Lhd8c81ApRoLUS+zsihuEjtmgficuFuZ1saHZY8rqs9dIorMs1lTS/x4aR5/f2sJUY0cSryCi8834voBGxrLmSfOmTrf5dVVhA9oaggg0NLcDhx6mqkdrt/nF+Hi3sqipc5THCyMZjKskLpU8bIqo8BQ2trunmWmGJ8H73yTSEX9eRPL57RmgcwErvVUUszwWJnF6ZR11uGvL5PNlZ23WXpNDLh7VDXtgCV6oSRfKGwWisUO1Qe0OCy/ai5mll9lc7npZGoTGw9CU0MAgZZiZ+CQ6id4cGjUtlSvHS5VuFrdqO1wi6WcCCXHx/aLY1I73OVEzHLnKSt49/Fj+yZ0u1SRhe+ZGVJRPy+34hvtfM84RFWapSCbAxd35+Kwxe8J/voSmynbW+lKX696j5LtmSEbQklZ+ODQlMvnU60cShLxdbTebSLj+w9Qt6whhp6llVXvFiQB2AQBBJqa3TMcVpawSLQGbQHRAjQoaiB4gF5LO1yvdZ5Sktrhdkc66OTEYeqMRMV5VtsOVxIOBOno2H4a6jb+hV7N96xaHBD39Q2Km4R3U7djx3Y5+caH23ugZChlYuMzu+21it6boZHqhardOFHCS94CPn9LhxLUfjQXs8Xna+vrWJ4ITQ8BBJqK3YGDl7BwW1w7u1QprySfOXB090pyOp9ruM5TVvAV/xJtiYGzXjtc/to5mChDCQcOHthXWlYl8Up7XGmJ2qbYRLJQVeDir/fovomyYCNZiK1SZ9g745WSzsaJHLj5PV5LoXurhZKLr76iOgaNqaunhw4fO17x3FfW1njKC8uvoOkhgEBDc6KGIyMCR+1LdKyQriRrdZ5KZtI0H1uuufMUh5Lh7v6aO09ZwVfn+eq/vLalr6tb9xl4+RRf2dfbYdwKDjEcWiIGS7LcINVxjPcPia9LGbhmVpdoOR4rCyW89wjP7JgJWzfnpxumXkgeCHkWjJduVbubu6RZQwlmP5qLmc5XJIrP1xA+oCUggEDDub+69nI4FHqGHCgaX09u1DQYspN0JZmXayk7TyXSKXEl3cqyHimUyNnVDlfOapcqp3CouzY7ufvsYpDe3UvD3X2Ot8flUGHme8OBi2c2+EY7M275QpGKxSJt0fb3v1DcLuw3CiKNWi+ktZt7gGtKagxRzRBKEECay5NPf6Ti15PN5uZy+by3e0ID2AQBBDxPHjhYOOTcFe0r0++LVrhev5LM7XClzlMcSrgz0dqGu+1wJVb3o+CaiD4TmwPaTQzS15bFTSLVz7jRHreg0Ylqa3e5kn5Y41oZ+f3yGiKjYNHI9UIcTCQiTAREoFA93gqtUMKfK1fIp/OFgqfW3HPrXRSfN48Tp8zNfswu3Ef4gJaBAAKe42bgUOIBpNaVZF7eMtzT78lBG4cSHrBptcONpRI0s7JUcztcXr4lBZJCqUTJ9KaoPbGCB70PPXDQsEuVnczUf0j1M1Y3SeQNGaeW7lua5dnXv12/wR/DdUXVFsUra4geP/wBEYK2u2+tGZ5TI9ULSZTtj/n9EwrYc3GAZ1z8Pl+EZG9JL4QSzH40FzPLr4qlUiyZ2uxT3QHQpBBAoO7sChw8CMsXtjeRk7pKbbeAba+pTWgjt8PlK952tMPVWr5VCddfcM2DVuF0tZaXlmhleYkS8QSFQiEan5igoWHtjpUnJg7RxNCI+FqXE+umO41pzQpVi2s4eOkcD6D588dTSdteCzl+D/LMBt8kUkvglY24YSjRqxfyaihZXF+j/UMjquN28UIouX4VAaRZcOvd8QOVyzrWYuvO9CcH8Kg2NwttAUgjcFRra2c5ktUOVUZtQl+/8U7V+1R4fXmLlo5wRCwN0us8ZZW0H4VRvYIVHDhe+dnPaG52puJHBUMhevDIEXrkscd1QwnjMMJfq5WifrPk7XF5lkhrR/V6srJPiZIT9UJmKJf48XvMjiYFtXIjlPBSLJ4NQSBpXB977nlTMyBXrl1XHQNbvfzCs+fP4yX1DgQQcJxdgYN2BiPcpcru962yTWgstWG5Ha4Wry9vSWXTNNY/pDoutcPl+gGjmQMelB4bmxBdm+yQzWbp8ptv0ttvvUm5rPYSqq6uLjp27Jjq+OrqKuVyOZqfn989xqHkoZMn6ZHHH6fubu3vAX9927NC1paq0c7Vcil0yfH7hzuaNQL+N8WBhIOJ1VBitV7IjEo1NV4JIFoQSkDpy//4n6iOKSWSyZnJezMTqjvATgggHoMAArazM3BsF+DmDAfBTlG2CbXrynm9riRL5F2qvDCYu/7eu/TG66/TRiKhuq8SDiJnz56lzs7y1zKZTNLrr79OU1NTqmcwE0r09iOR2uPu6xswrGXhAPL23Zvbn8/jNURauFEA15NwC2GtEKCHl/jx+5qXJ1ppfyy1KjZaKibhfz+PHVbvp2Bml3u7umxZ4UYoWV5coCsXL9KdWzd0gzu479zTz5jqfnVnepqSKWsXP8AyBBCPQQCBmtkZOCS8q3M9QkclygHM/Z1ZklprBpy4kiwxagtbrwAiLZ/7N//3v6RS0fwyJaPAcenSJbp165bqY4z09vbSF37nHxo8ojryAKLF6zVEWrjwXqtBQSVSKOElipFQiFvhivckhw6rjQyU79daC/rJxi5bVvAsTzafyxUKBdoiCjrxORBK6u+LX/oydff0Gp5HNpebvvH+Hez94TwEEI9BETpYNrey+mfhUOh329vaxPvHiS5VPIBzYjBeK2WbUKnIW5opoZ1QYkfnqWpDidm2sLTzOh9SHbWf3tXp9eVF8vNrFwxTIBRWfd6BgQF66qmnaN++fWXHqw0cu68RD1zTKerr0W4HzLUn2Z3v8QMT1ldGpCsMrBuxRS6/D/l2cGjve8EhYjUZ1wy3En4Pivc3WQsupKipoZ33tt0XJ5RdtkgERL+oE7OrlkmJv7/RUDgoL3S3O5QMjYzSxz7zPH2Mnt89xqFELN965wpCicO4+LxS+GBLK6v6BWsATQwBBCpSBo5oWD1QtNut+Xu7z2jHXg1OkkKJ/HwfnjgsQgkPYKQag8nFeUtF3spQore8RbqaXKkFqxIvJzp94IjqeC0q1XBMHDxIR44fp/2H9mJPIZ8Xt7RsEMuhJBiKiLqO7373u+IYh5GNjQ1R52GVaF2bSYvQIcffm9XYGt149z26euWy5jnLDQ4N0aOPP06HjxwVXbj08E72qUxGdOAyqxFb5PL7UVpK+P7ibM1dvvjfC2/KKHVOk4JrYjOlu6zKCfI2x2Rh75VauBVKhj4+Ss98/JO7xxLxdbp88QJCic3MLL3a2tpKr62ve2oPGgC3YAkWqCgDRy34F6j8Pca/ZM3sNP7Tq5dUx+S8PjDTIr+qygPf7ZkSa+1wa8XF0ryMxc4ru7MzM/SjH3y/qhoOVuBOZtm0CCFG/MEQBYMh8acZ+WyGsulNKmnMAnHACXd0UXu7+nUYGxujgwcPisATDAZF0TsHIQ5X9+/fF3UlHIQkZkOJXTVE/N4f7u6vWw2REv8b5+Akn6ng5XW87I+/3kqzFVxPc3TfftV7cjObobzFDndu4p9j/G+6lhbf1XBj+RZCSW26enrot7/0BxWfY2VtbXpuYRHLr9zxv7zw7Pn/uRW+0EaBAAK2Bg4ra7Kldri8qZgylFQKIFrqXdxtlXRVlXcx5wGMXuFzLZRLWOyQSMTpwuuv0/X33qv4bDyI50G5NJjnwT2TllTxwJ6XUd28ebNsZoPDQz6XqRxKAgHy+bfHYBw0ivm8ZuDgoBGKRDWXeRnh811ZWRHnxkHk8ccfL+vAxef+85//XPUM4w9M0EMPn6QTJx9W3SdnVw0Rf595ltCtZYs8M8cBQ77E79HDx219n/HyQJ41HOsbtFTQXk9GLb6d5FYokZZvbcStL6drJWaLz6/ffl/URIErEEA8BgGkBdk9w8EDZ7vWZEvtcPPFPN2an/F0cbedCqWi5myOlSvJpLGExU7f/PqLtLqytxmjXn2GEs8aMG6PywN5aTaB/zSLf06l4jHNcFFJR3cv+WRdjzhUPPzww6rZCikkWcG1KLxETD4jomS10L2aGiItdr73uQCdz8toM0qzAUR6H7e3txkO0rUK+XkZIn9NIz19rnayqoWyxbdb+GdzrpAv5PP5EkKJu8y03t1Mp2duT06h9a57EEA8BgGkBdgZOKQ12VkXlw3xsi2/zy/CyL2VxZoGZnp1FPUidajq25mpMINDyUYmLTa6C/MSoUjUtn045OSzWdPvv08/+c8/IJ9OpyAe1PPMgHx2gMMGL1fi++Rdq3jWgFvkWqnl4Pfd0PAAzU5NmV4Swssg+CrktSuXaWV5mYLhyO6SKw4ax48fp1OnTpWdG58vn59W+16rpLqT0dER+q1/+LtVP08t+5TIWXnvS40M5Lv/V/L44ePUowggVtpo+0WNxV4zB60AogWhxLzSFs+UOB9K7t68SZf/5kJLhpITp86I4v9K0HrXdQggHoMA0oTsDBwkXX3OpD21qzMPVnjgsT0wq62Owu0BzFI8JgZ28uUr9dyPg5dUzc3MUCwWEwPFjq4u2n/woNgvQ8Kbn33nm9/Y/W8eyPOAnpc0KQdQn/vc58Rsgp7vfe97ZZsF6uFOVenkxu6sx2f//hdo/MD2cumF+Xl68403aGVpqeyjfT4fPcjB4tFHqbNrezD8nX/7DZq7N132OLH8LRRWhRKu/eBQIj9/XmJlttsW17NkNlNlMzXcDedzv/VFWllcpDdefVWEISMnTm4v3TLqvlWvGiKlcCBIR8f2i71RSNZeOWdT7QY3V1hKrBnOvGiR9l7hf9eNEkr4Z1pH2P16ZDdCSTaTEbMkrRBK5D+n9BRLpdi7N2726dwNzkAA8RgEkCYwu7zy+VAw+Bd+n8++BdgysytL4iq71/GVU54tmRfr6muro7AzlJhZvnJgaJQeHH1AddwJvPzplZ/9VLOGo2tn0C5fUtQ/MECj4+N04eWfGnYikuosuEi8mqu6PGjnonGu/9B67gdPnKTF+/dV95FsWRXPqly9erVseZc0E8HPa7SESyuUmDlnDhwcPLTOWa/uhAMOhx2pJoZ2vi983nyTz8BwEHzwyBF65LHHaWhYv2OnEzVESjxInhgYEc0MpKJxninL5HKG7w07ie5wybjhvyctjbD3Som2bK2jqfo8EEqqwhcbPvubX6j4ofeXlmJLK6sIIO5CAPEYBJAG5HTgUHrr7k2x/KlRO0/xO3xxfU3suVBLrYrZq6o8U8Sfy8qGbUdGH6D9Q6Oq43bh3cZf/tnPNJcvnT9/vmzplBzXOHCBOM8AyEMJz07kuFBcIyzI8ZItHtBrhRIpGOQym5qDVx64h6Odqo+jncDBBeHK+hMevHNth3LJF9/ksy4cHPLZrO7nlnCI8AeD5PcHqK29nYqFAhWLBRE4tD6Ov9ZQpEPznLXwrMvg4Ha9DgcQDiZmZmCkUPLkU0/p7uZOVdQQaeEC94ceOLi78zt/3dyhyisbhfK/N/75xDzVH4kAACAASURBVDOLVjc29MLeK/xzgi+acJCzu5DfTm6Fkru3booOXCtL5ltYe8XHnnueTpw+U/Fsrly7rjoGjkMA8RgEkAbgduBQkgKIlkbtPMVm15ZrGpjVius2jo5NODLg4Na4b7z+Gs3Pzqrus0Kr0JxnGXhAzDMN1YQSI5GOLs0ZA54t4MG6NDOgVb9BsrqTN998U5wbz+hIy6r4sXw/38fnrsTBYjOxrhksKol2dqvaA/Nrx8vR5Oclr33hEPWJT3yirPCd71MWwvOxF1980fAMeGbkv/ytyldeaSeUTC7Ni7bAWu99XlbFywH1GhnMr61Qh8b3yEs4lPDA3ureOORCi++0CIWLmjM4Xg4gWhBKypkpPk8kkzOT92b011eCUxBAPAYBxIPqHTiU3rj1rrjiaZbbLUFrJfXz505UvKZeb2BWK63lK3aSCn5/8NJ/orkZ4+AhXXnnYMGDdB4sG9Vt0M7sAt94YK+cEVFKrBnXOWjh70Nn74Bq9kA+kJfwgFxZxM5BiZdhyf35n/+5xmfS52srUcxCdy525olztDg/T/H1uGqmh2eW+LykUCHNKEmdwfhr+9CHPlT2fN/+9rctdQjj4DfQ30df+K9/T3WfE/iCBA+evdTMwQwOIhxKVjbiVYWSavdesVLQf3LiMI309quONxIOJbl8oZQr5DNbW1uO/BKQQgkv4VLWd9WL2da7t+5OUjpT/UUaqBoCiMcggHiA1wKHEg/Ir06/rzpuRaO0wyVFMSh34lnY2auhGoPdvXRs38Tu8hU78S/6TDZH+WJ5we+FV1+mv/nFq6p6Bq3OT1Kg4D95UCzteVENeQ0HXwlUrvHm5Vht7duD863Slphx4DXT/EubizaVhe7i/EPhsha6PKDnGQ2+6eFB/qVLl1TLlrQo607kgwhervbKj39E9+fmqSRrwBAOh+nwsWP0xFNP7R7TKnTnPUoCwXDZjA4HDp75kEKfhF9/XiJmpvuWVq2MtPbc19ZGS3NztLaiP9jl5Vsj+8bEBoo+v/U+FXozoo3YjYqDyGI8JoJJ0aA+SIve7K+0JExaVmUW/6w4feCIg19t/bgRSpjUErgeoeSLX/oydff0qo7LZXO56Rvv3zGuUAenIIB4DAJIHXg9cBipR0tQty2sr9Lxcf3fEUY7WvOghGc4pK5AduEajjdef11zt3EOFidOn6Yjx4+Lzk8cQC6++orqcdUUWVfCg+DMZlK1bIkDyPs3b9KVS5coaTBTIuHOVTwj86Pv/kfVfXJaocQqrjvJplOqc2bHT52hjcSGqXOW2+L9cNKpisvPtEKJGRw49OpVxif204mTp8hfRZiQWAklF26/J7rimcH/zjmQNFI3Kl4ixUu3uAOX1VBihVMzoqWtIsXSKxTLrIq/K0UCHdQT6qPuUH1roJsplJgtPp+Zv59eW193v9UZEAKI9yCAuKCRA4cZdrUErdcVVGWXKg4Rjx0+rnqcm7g17o++/32aq7KGQyqyrtT5iYMID4YDoZCpUMLLfXjwrrVDOc9whDs6NcOBNGsh1XJIeNaFZ2D4yr+0USHtFDpzoTeHhWLRuKVrpVBidM4cCLhoXO9jlXj2gs+fZy94FkPqGsbnr9zNXZw/b9Kp0SFLeQ4cStp9PlHozmGGi935a9f63vUPDNKRY8fFn3Lcgri7u5sSiQQVFUsI+T6+WZndinZ00PC+fdTX118WSnh3cq4hqZbUzGG4p9+z3ajkOIjcWaytlkqiLOi3SyIbo9XNRcqX1O9xMzqD3SKQ8J/15FYokZZv8Z92MNN6d2trK/3O9RsIH/WDAOIxCCAOml5c3AwGgpFgwG+4428zsqslqBP9/HmJBC+P4HXZWuoRQLgD0ttvXqLLb76pGiTyIJc7Pul1qtLCA+J3331X1flJakdr9O+eg0i73y8CBX9Maafzk5KonQlHxYyKsm5D2nyQz527UslrM3i5Ee8eLhVccyiR10nI75fjc+Zz1xuYm8WBJaJR6Muvr7IDlRZe4sWvr9Q2l8/T7NI1vRkjM0498hiNP6Bfu9rX1yd2Xe/o6FDdJ+FgItXyKENKJb39/XTk+AfKHlWpoN0sL7fIlWZEq7nQUqmgv1rZQoaWNucpnU/Z+rxy3TuzJNGA/vvJDV4PJbzh6W9/6Q9Ux5VW1tam5xYWjVMKOAkBxGMQQBx0e24uFvD7VWtxQrwDbouGklpbglKVgxV5q8tK+PvzKx84XeFRteN/ez/7yU/o3SuXVc/Fg/HPfOYzqsGwmfoG7qwkr5HgwfIPf/hD1eNoZ2kPzw5YxbMGIY29Yfic5R2zpD0t5GGj0gCfH8sBpFIhdjWF7qy7f0h1TFnozufwl3/5l2WhgkPVc889t/vf/L341re+ZblmJp/ZpPSmtdecl3h0dvfS8NCQbsDg4/v37xczHXKpVKrsY/L5vJglkcKTGRy21mIx+szf+WzFR/PSTDuaOdSrRS7/jOCfFVIbbaMLEvwzjevEMrLXsbezy/ZOVpWWVbmFA0lfeJBC/vp2QXMzlPCu7tevXlHdJzFbfH799vuU05iFBdcggHgMAoiD9AKIllYOJXZdQeVONaGdWZLNXFZ07rJSBCqtyXZqR3L+t5bN58U5Sf/u/t1f/BvK5dTnyIP13/iN3yhbrmSlO5J8V2+pZa6W9rYtMTg1uz6aawUeOfekWCJ0+eJFzT0+eLaGP6+88xPPxPBSK54N4ZkG+dfF58d7XZglzSL8/h//T7S8uEBXLl6kO7duaO5xIj9naZDw1T/5ivhTa/mZNNukXCqm5Ze//KXu66okn/mQD1gS8XW6c/0abW4kKRKJUFd3D62trlA+X6DB0RH6gGxPgR+89JLotiXhmo/+/n4R+PRCiRYOKGZmP3h53MzMDBV2djUfGRujTz3/vNjwMxDwUzKfoFQ+SeuZVRqO7qOOYCd1BLS7RNXazEHiVItc3kOEQ4dWzYdRAHHDbHyKNgvWapLc0t7mE8u2BqLDFGg3/vfiNLGvUKFQyuZzua2tLccSEjfLEHUlO6HETOvdzXR65vbklP70JbgBAcRjEEAcNLW4WNOLy4PqUDDQcqFEuoJa62DFDKfWZPMV4/XVVe56IgY1/Ebo7uujgGJQq+yepFXPYGZpEAcTHgxLsw16eClVdjO5Ww8hL57kwuvLly7RnZvqJQiDw8N0/ORJUehOO522tArdtYqspVoJPn9pUM/nyKHETKBSnrOEf/HzOV987TWaqdA9iovzT5w6Jc7/X//zf6q6X8JBhEMVn381u7nvnrNB3ckHP3Ke9o2OUTplfhaE60OWFhdpenpavLf0SKFkYmJChD0reFaEA0dcZ1fqnsPd1Huyh9KFys0neDB6qPcIHR84qRtKjJo5WKHXjcqIsu7LCF+YeOahRw0e4azL0zfIF8xSKNgYvwc4lHCRe29koGVCSSV3pqcpmaq+aQvYAgHEYxBAHFRrANHSqqHEriuoTq3J5hmBhfvzdN9k0TgPKDmQ/PyHP6CF+TnV/XJaocQso93GeYDd0z9I/kDQMLTosVpkbbbzk3TOWkvDjOpOpE0HeUZAPviWWg1zOJPvXSK1s9Xb1VxiJpSI2a10Spy3UiAQoAOHHqSDhw+LHdXtwrMYHOKWlpYqhpKhoSEaHh4umynhpVk8y8EfryXYH6COoxEK9NtzzhxEOJQc6j2qG0ru7/wb12rzawWHkmgwRJFgWFwA4FlHLia3ulP6vr4BOrpvvyP79pilbHvMq9EiYR91dvgoENB+P3pNoD2wXVMS7mu5UFIslWLv3rhZ35ZjQAgg3oMA4iAnAoiWVg0lZq+gHhoec2Tzv5XlJZq/d6/qfTOU0ulNmpuZobnZe5Te1L9axoNgXvbEg2IuFFfi5T48sNYq1OYwEO7oUnW84pkJnmWRL50yoleLYiWU+Px7n4fPVS8I8NcajnaozlmO6zeU+2rwjuf8pxRM9Arh5Xi2hUOE3rmY1d3dQ48+cY4iGnUyXCw+Ojq6W6vBMw/r6+viz1pxEOFAwTMZVrUF2ih6MEIdR9xr1GM2lNTa9tusznCUjo5N2F7DwctLC8WCaIAhaaM28vt9FZtr6O27IsehJBrxUVcndztrnFDSGxkUsyU8a1JPToaS+0tLsaWVVQSQ+nv2hWfPm1/rC45DAHGQWwFES6uGEifx4O7u7VuUsrhHRC04lEzfvStCSV5jOY8ZPICPdqrba/KA/ZOf/OTupoQSvirOg3d5By0JBxTlzt2VdhtPpzYq7o+hRa9blR5eqnb27Nmyr0e+47gyWJmp4ai20P1Tz72gOqaFz4k7V3Eo4ZkSCc9O3Lt3z3KnKsnk5OTu126EQ0ffk93k71IH2XrhIPLhiY9SX1h7R3BpLyJuB1xLhz1ydC8O7U1CK5HqawKyCwtv3HpX1LNZ5fe1UTTqo45oe8OEEi5uH+2YqHuRO9kYSq5cu646BnWBAOIxCCAOqmcA0YJQYh0v3eA6Dl5alTBZAO60jUScpibv0tLCfVOhpIO7hQXUsxrKblkcOvgmJ7XIVYYUvRkQTVtF2ioVxW7oZnFtyuDICF175x3VTI/ZdrlSlydpfxFpKdaGiQDJMzLpjQT9zn/734lOOJcvXqCVpUXV4+QOHztOT3/8E2I35K//q38l7uF6DF76xH86jUMLLzPjGo4zZ8/SI2fPis94b3JSbAqpVSfT+1QPBXu8Ez4kxUKR/u5DXzTdettKi1zecfzYvglb6760GkzYJej3ixqyubXlmjsIcijp7PSJ2RKvbsGSz7fRydGHVce9QLQCLxa2svl8plQqVZwqTCSTM5P3ZlB87g0IIB7jvd884Bj+5ajsCsW/4IO8HKYBNgRzgxQ4SopBxFZbG73++uuuDij1cKekU2ceJTqzVxjLnZPmZmdobuae6EvPXZZO7HRQkhe6yzs/Sa15eYkSD+iPHz8uOkBp4cDBswVmuj4p606UuwS/dfEC3bp2nbKZvau67e3ttG98jD74zEdEwTjtFLrzzIl89oSXn115e4OuX7+mufysWnq1MqFwmI6ffJiGR0ZpfWWFSgaDP9FkQHFOa2tr4iZn13tIqgGptNxq/6FD4qblwswrdHH2VQoFQtTb0Ucd4U7xvaiHUqlEaxtc/xGj8e79lM5mxU3CMxQBv18zlIiZjMHtmQy3cBBI80afDl/Ey+10IRvu7hM3/jcQ8PmoUCrR7Kq1dseF4hatxwviJuFQ0t3lo3C4vqFkc7NI64kCdUe8u1+vqEHzB9qC/sBu+DAKJQtLywgfADowA+Igr82AmMWDqFAw2BKhhH9xZ/O5ir/AF+bn6T+/9JLqOOPBJN94F2ov6ejupu7+fvrrb/2VmC3RY0fnJ+76lE5uaNadDA6PUt/wSFkLWTP4XLiWpdLGg2JAxoX64YhhnYgS13lkNlOaz827jJ84+bAIe0rSsqlwOCxmoKSlTnycQ4F82RTXYywvL+t2lpKYfQ9J9R1aRefdHQU6dzJOJw6qi/dZ0bePcuFfoULwIdpq215RIgUQLW6Eko3NhAgd+WL5hREOIJ89+VuqxysZhRIn8O9L7pzltd+b2wNjPxVKRVs6CHJxe1eHs6EkmytRYqNI2Wyp7Hi92x7bQbxPNjczl69dq/9aMpBgBsRjEEAc1KgBREszhRJen82zHNKVRTNuX79Or7/8sqnHVrs/gxukWRKeMTFSKZRIHaS0ajv4Y3mTQrNdr6zgz5vPZsXn1QoOEimUBGTLbHj2Ip/LaLbGjUSjdOTYByruND4+Pq46LseBhENCLBZT3Ueyncg5tKQstOHV88ixDXryZJyCgZLOI4ytFyL06kqJ3ombm02qNZRk81laSSxTOmtcUN4V6qHffuz3VcfNnWOQwiYaKVSDu/G1k/rfgxe1878Bf4DS+awtHQRDoXbqiLSLupJqcP19MlWkxIbxz10Okx8+cUZ13OuyuVz6xt27kbiLNYJgCQKIxyCAOKiZAoiWZgol3J0ml+ei0aLu1U3ec4JrEnifDKudr6RWqLybttX9GZxUKORpcWGBpu/eoUTC+Cq9EV4OFe3u1QwrTuMgkkltaAaLSrhb1VPPnK/wqHI8UyEVjXOI4BsfY1I3K+5wxe8RMyGD6260ZjS0jA9nROAYHzL3+Grc2/TRlYTfdCiJhKLUHemmrqh69qZQzFNiMyGWVZVK5kPSZ0/+Jo13H1Ad18ID7Ugo7EqrXA4gb9/d3ifH1+4TGyKO9PS5NgNTKymUSPug1LoHSyS8HUj4Ty28rIpnOXjpl1nctdCpzWDthMDRcBBAPAYBxCHXpqb+MBqJ/Ium/OIMtFooWVtZoWtXr9LM5GRVoYRnSXjw6kQo4UEwF2rzLIw0MDbTVYlDCbcDnpq8Y9gOWC7S2V0223D+/HlRLC7HdSS847lWd61alYoFSsa1Zx30cK3MAwcPiyvaHAx9Lu/1wN8L7lb1gdOnxeut9R4KBUr09KMx3WVVbuFQcjEWoJtJZ14jnvF4cuIZOjF0WnWfEodcnuGoddDPM6Gl0va/a35OMz+z5AFES6OGkmAgSLFkQuwGX+seLFY51YnMbggcDQ8BxGMQQBzSqgFES6uFEq4X4a5DWjuKV8JBhAfDHEqsDoilwME3vvLOoYP/5LoCPsY1C5JMJiOWCfFjzIQSrT1KTpw6I7o+caG2vNBd7FESDIk/ncR1J5lUUuzdoSx0v3Pjuiga51kKaS+OeHyd/MEAHT91Riy5Yrzz+5VLl8rOkgMbB0N+zewOJRwCb9++XTbj8cnnn6fRsfIrvjzb1pN+kTr8+rU79XJh1Uc/Xql9ed25B56mR/adM9VylZdVhQKBmmbYMmLZpbkuVfwzi5tzKAfEXF9x+75x0b8SB5HBrh4RTBollPDPar/PT7FUwpE9WLjO46EHDtraicxuCBxNBwHEYxBAHIIAYox/sfOgwstXvMwyG0p4+ZZWK9RKOJRMTEyYHhDr7S3Bg19uQcvBg+/jx8hrVDiU8BV5s3tP+INB6hscFN2fvvPN/4/uz+oPzOwIJUZ1J2MT++nD53+VEjq1F3q4+cDU5KTubuCSakMJBw0uGjd6/o9++tP0wAH1cqPc3a9QdyQmdsH3ilw2Q3E6S3f9D9Pl+xdpJWXcmliOC8ufPvgJGuqo3KmKC6r5okUtLcP5e5vJZcs2/6sFnxMvX+IQMrO6WFM7XA4iIz39IpR4/cJMe3sbdUW2f05YaXcsFw4ExbKqfX2Dqvu8AoGj6SGAeAwCiEMQQKxrtVDC+zPw8i2r3aFINiCWag8q4UEzB47BwcGyUMKb3dmxA7fEyh4lonNVKEw+g6vC3AErm05pvobjE/vpyLHjmruNa+EZoEgkIv7k149fE/7apf1CJHyMA4NRaGA9PT2irkceSnjGidvucpF5QaPJQU+pjY7m2ylc2r6S3zc4QCOf+AjlR9QtebN3/lcqJcs3MYt0dFK4o8O1UFIsFCiViFM6ldw95h/5LAVGP1d+roUM3Y3douXUIq2kFsSsxmB0hA73HzcVOOz4t19Nc4la1NIOV0s0GKbhnj4xO+CFUJLOZWlq6T4df+CA4c7wUijh5WnS1x/hiyAdXTTU3efZn+cIHC0HAcRjEEAcggBij2YKJTxAyonNygqaA2rGS7euv/MOrVWx6aE0IDYbStwi36OkFhycHj17TrTIVeJAIQUM/rtyV3Ge3eEb/91qrQ7t7OfBMxlWO1dx4Pjopl+EDrPSp45Q+vRR2sj9ayqlKm/0aHco4bCxsR6jLZ2ZA//wZyiw79dVx63guoOQDXUcHPRTmbTuvye3Se1w0/mcLZ2nuiJRGujcXr7lNH4tl+JrtBiPUVHWYe7Rw8cNA0ijKJZKuenZ2eDsovlZO2gqCCAegwDiEAQQ57RSKMlls3RvakrUKSSruFLnhY0TtSwtLIh6kkWD/UmUnvjQr9CARviQ8CyE2eVj1eCla9evXzf8yNAW0RMZP53N+sTf7VDyF2hzdJniB+9Rrrvye6CtvZ3CkShFu7rIr7EDvhIvq0rF4+JPM3yDn6LgeOU9OsrOaXsDt5rrOJTWNhLeX8K003kqmUnTfGy55s5THEqGu/upt6NTdZ9V66mkWE6m3KBWrlEDCAIHKCCAeAwCiEMuvPfePwv4A/9DT1en6911WlGrhRIxU3L1alWhxKsbJ2rtUTI4PELPfPyTNH7gAP3gpZfEcjU3WxpLnap4OdbI2Bh96vnnxXH+HvDyOW400B9L0d9K+am75F4LYquhhHEYkfbuMBs25Hz9T1Ng5HPUFhxS3afFjjqOSn569VJDd55KpFOinqLWzlO83IlnSiqFEg4aM6tLlj7fU8dPO7avip14Bmd6dpYQOEAHAojHmGv0DpYVi8XIwtIyyctyI+EwDfb3E0KJ/XjtcaGYLnveRg0lPGDj7jDyDjHyUBIMheih06fFTcJBROq8VSmUKOsbvLJxIm8CqNwIkAvcewfLZz24toJrLKQdyGmnUF8KVrWGEn5tpqamVDUc8iVJ3dOL9KkfXd35L/cHve0FP3XO7hM3CYeSuacvUCGSVj2eFSwUDbO24CAFJ36P2jtPqO7TUq9/b7xciJcO8U3i9c5Tpa0tUSAf9PnpwZHtzS15Joc7b/GsjtV2uPxYO9vncqA5NjZBnWFz9VX1gMAB0NgwA+KQ165c+fbKWuyzlZ6df+EMDvRTf08PQokL+Jc8X5XlNpuNTgol+UJBDGiUmnHjRJ6R4IDAe4lU2rzPbCjhonOu74jHjTdi7O7tpb/z69u1D53/9P+lTudWe1VtoXeW0k/dqOrD23xRsbzKP/Rp8fdKaq3j4IsG2XzOsHBb6jylF2p4BsSsRuo8JeGvm2d4nGqHK2mELlUIHFAjzIB4DAKIQ1556+2pWDyu7q1pAkKJu5ovlBQoX8hrhpJaNk60c5bBThxKOJBwMDG7o7gVDx4/To+cPUudXXvr4BP/119Q/vaUeM/w+vjeaGfd3j9iV+v1VcoXCxT5tWcp+mvPiuNbuWUqLP+AirFXaKuoPXC1sqyq1jqOrZ2r/rV2qeJQwsuX+N/tW3dv1nTlv9FCCc+K8utfbTtcuX19A3R0337dcFdvCBxgMwQQj0EAcUgtAUQLQom7WimU1GvjRCdxt6r33ntPtYxKy9zYAbrz4AlK6yw3GfT76CNdYXqmO0xD/u2vUQogWpwOJRw0lhIxWt9Mqu6TBxA78GCfB73VFo5zzQFvAOjk7xmpHW5xqyQG5LV2nvJaO1wJD8g5bB4YGlXdR2Kjxaz42jmYaIWSwe5esdu4VwvKETjAYY++8Oz5y3iRvQMBxCF2BxAtCCXu4iuF/Jq3QijhPUo4lFSzcaKTO4mbxbMi6XyeFhcWVPusbHT10I3jZ2ithuUm/ckknX/zbfrgezcoYmLWhd8zokg42lnVoHZ5Y51Wk/GKm+oFThyh7i99QXXcLH6Pc+CoduDN58cDYaNlVW5o5Ha4chw4eC8OqUvVoeExsVSqGSBwgJteePa8e11CwBQEEIe4EUC0IJS4q5VCCQcSvlWzcaIbe5TwrAcXj0u1HJ98/nkaHRujzdIWfX99k74ds7aHh1X9iQ06//Zly6GkOxIte/9IV7p5loNnO8zyj49S9x/+A2qLmN8PhOs4IqGwLctwuKWrl3/D290O12znKSs4aHAB+uqGdj1SIwcQ/omytLJCNycnVfcBOA0BxHsQQBxSrwCiBaHEXTyYC/A69QZpCWqEfz7wmn3e1V0ZSqQ9SqrdOLHWPUqk2g+tXceXhsdo6pEPUqzOP97Gl1fo2bev0On375oKJVaFnnyEOj7/a6ZDB88MhG3YAFDL5OI8pbKZhmyHG0ta7zylZWCn81aXznI+LbxkSrn5n56h7l46deCIzr3egsABXoIA4j0IIA7xUgDRwqGkr7eH+nt7xd/BWdzJJhhojVDi5B4lXGjOHauMis1/9KsvUMmDQfu/eun79NidO6rjVgSOHhR1HoGjh0x/FLfGtXsDQC0cQCaXymfHvN4OV4u8He69lcWaO0/xTElU1lI7W8iL2SIzgUPCFzVOPHBIBBCvQuAAL0MA8R4EEId4PYBoQShxV6uEEit7lNQiGAzSidOn6WtrXZQbjFK+xxudutpKWxRaTNEfnRihg3P3KPvG25R7x1yrXJ7ZCD/7IUuF5W5sAKjlzsIsTS8vaNyjPL/GbofLQUuryNtu3KWKl1zJ9wPyEgQOaCQIIN6DAOKQRgwgWhBK3NVKoaTaPUrkeHfyc089Rf2yzQp/96+vqR5XjAYo3xN2LZQE4lkKrmxSe37vKvd//8EDdGxAvdFj/vZkWUctnuWwMsPhlQ03b8/P0MxqdQXFXu08ZUQq1q+1Ha6EN/07Ojbh2S5VCBzQyBBAvAcBxCE/uXgxk0xtevPSVY0QStzVSqHk8qVLhnuU8F4cZ86epSPHj6vuk2gFEC0cSnL9ESp0BjXutaY9X6Lw/Q3ybeZ1P04vgFj+XDVuAKjES7N4IM3F73b8PoilNmzpPCWFErc7T5nFy6gODKtb4lZqhyvhwDgxMOLZonIEDmgmCCDegwDikB+9cSG/mU43fmskkxBK3NVsoYS7PfGu7pXazJrxBz+4TtlidT/XCl1BMVNSKZTwsqrAWpqCsTS1mfxcv392gk6NWL+6XesGgHLbsyV+sUyrErFTuQiLtW0cSDuhhGcJau08Va92uBJll6pfPXVW9ZhGhcABzQwBxHsQQBzSagFECweR7q4uGhroRyhxQTtvnrjTEtjpgmOn1RpKNvNFury4QT+ZXKPZREZ1v1sGIgF67tgQPfWAteJhu+o4OHBEggHblmflC0VRRM1/1mo5sS5mCbzYDlduKR4ToUOraLzRA0gimaQbd+6IzSIBmhkCiPcggDgEAUQbL/Xo6+1FKHEJQsket0LJc0eH6KOH+ikaMD/ot6uOw+7AYQYvqcvmC7ZsPnh/jHGz+wAADPdJREFUZ+lWPdrhSngPFj6PjXTl7leNFkAQOKBVIYB4DwKIQxBAzEMocRdCyR4OJb+cjdNPJldpNa1fv2Hk2ECUPnN0yFJ9h111HLwMLyJmSrzzfdz+nhQpk6t9SR2HmuVEjGZWlmpqh8tLFnmGhLtvRRRdpdK5LC3G13Q3/9PD+3F4uS0uIXAA7EIA8R4EEIcggNQGocRdCCV7KoWSapZV2VXH4cXAYYbUfCCTz1OpVNvvHA4ldnWesiIcCNKJiUOe7VJFCBwAuhBAvAcBxCEIIPZDKHFXM4US2ikgzhfsWSpkBtdxcKvWal87/riA39eQgcMM7oLGBe5cU2JHKOFAUqnzlBVSl6qJwZG6tzjWg8ABYA4CiPdggAwNg69mr6ytiZsEocQ5pVKJ0tkspWlv1/FGDiU8A6Fc8mRnKOFBqrQ3RDX49QwHAqJLVTMEvko4VIWDAXGTcCjhpVs8W2Ll4hi/9tzOVt7SVmqHy3uTmP3+Dnb30rF9E57d/A+BAwCaBWZAHIIZkPrhAWBPdxcN9vdTJBxu1ZfBNTxY5gJqvuLfSjMlPICOhMI1Xx3vjkYaZvO9euBQks7lROetWn9fcSjh7lvS9zYcDIolVQgcAM0NMyDegwGyQxA+6odnStbW4+ImQShxzpa4ap0VN0kjhxK9mZJCoUg+0a3Kvpk2fq8ifBjjoNcRChHtZAQOJPFUdQXpHDR4SZVXbabT9O6tWwgcAND0MEiGloBQ4q5WCCV24NdpanFRPBPPpHRHo9QZiTRlzYddkul0c3whRJTN5ejG3bsU36it7TAAQKNBAIGWhVDirmYLJXbjZUFrGxviJkEo2X5d1lOpsuDR49Cmg05D4ACoi5fxsnsPAgiADEKJu1o9lGxtGbcJ1gol/LpwKImGw00ZSrQCR6NC4AAA0IYAAlABQom79EKJWAYV8FN7W/PUTAR4b5BSibJ59X4jerhD1EoiQcS3HVxM3RkOi5mSRsP1DonNTdrMZhvu3JUQOAAAzEEAAaiCVihh/b091NfTS50dUbysNuJQks3nxE3SLKGEC6PlXZh4E8V8viD+NIsH8XxbkYWSaCgkAgn/6SV8njzDUU2htdTq2CsQOAAAqoMAAmAjhBL3NGso4T1W+CZXzX4lPKOgnFXgQMIzJTxj4pZaAwcvx/PKRoAIHAAA9sA+IA75+aU3byVTqaN8pRxACaHEPc24fIt/bvMMSS6fp1p/xnAo4ZoSri2xA9ducOCoZnNHBA4AsEtHNLoQDoVe/PAjZ/4YL6r3IIC45JdXr344m839y2QqdQqhBLQglLinmUMJD5pLNfxc58J2LnA3G0pqCRz8/KFg0DPfA/7ZPD07S7M7rZEBoDEgbDQeBJA6QiiBShBK3NOsoYSL1nP52kIJ7cxO8I1nXap9LgQOAKgVwkZzQADxGIQSqKSnq4v6envEn+AsbnIbCATE7ufNEkpKWyXKcZF7ofogYYYXAx0CB0BjQdhoXgggDQChBCpBKHFP84aSvJgtqfZ3ghQ4+HXxyv4tCBwAjQNho7UggDQoDiW5XP5/T6XTH8rn882zMQLYBqHEPc0YSnjwzku38sWiZihB4ACAaiFsAAJIE0EogUoQStzTjKHEaxA4ALwPYQO0IIA0OYQSqAShxD0IJbVB4ADwNoQNMAsBpAUhlEAlCCXukUIJL2fyteOfoxz/dppfWKA7MzOq+wCgvhA2oBYIICAglEAlndEo9fX2itbA4CwOJX5uWRsItlQo4d9GSysrdHNyUnUfANQPwgbYDQEEdCGUQCUIJe5pxlCCwAHgPQgb4AYEELDkjavvHsgX8l/bSG1+GqEEtCCUuKfRQgkCB4C3IGxAvSCAQM0QSqAShBL3eCmUIHAAeAfCBngJAgg4AqEEKkEocY9boQSBA8AbEDbA6xBAwDUIJVCJFEp6ujrJ5/NVeDTUKuD3i+5b/ipfawQOgPpD2IBGhAACdYVQApVEwmEa7O9HKHGJUShB4ACoL4QNaBYIIOA5HEoKxeJXUpubv57JZgP4DoESQol7SqUS3b47SZlcrlW+ZABPQNiAZoYAAg0BoQQqQShxRi6fp+u332/GLw3AMxA2oNUggEDDQiiBShBKaocAAmAvhA0ABBBoMgglUAlCiTUIIADVQ9gA0IYAAk0PoQQqCQYCNDjQT/09PQglCgggAOYgbACYhwACLQmhBCpBKNkWT2zQ1Oys6jhAK0PYAKgNAgiAzC8uX/lGOpP5/GY6HcHrAkqtGEpi63G6Nz+vOg7QKhA2AOyHAAJQAUIJGGn2UIIAAq0EYQPAHQggAFVAKAEjzRRKEECgWSFsANQPAgiATRBKwEijhhIEEGgGCBsA3oIAAuAghBIwwqGkr7eH+nt7xd+9CAEEGg3CBoD3IYAAuIxDSS6Xe2EjlerGaw9KXgslCCDgZQgbAI0JAQTAA1678s7/mc1mfwehBLTUM5QggIBXIGwANA8EEACPQigBI26FEgQQqAeEDYDmhgAC0EAQSsCIE6HkzvQ0JVObquMAdkHYAGg9CCAADQ6hBIxwEOnu6qKhgf6qQgkCCNgJYQMACAEEoDkhlIARX3s79fX2mgolCCBQLYQNANCDAALQIn559eofZ7O5fxTf2BjE9xyU9EIJAgiYgbABAFYggAC0MIQSMMKhJBQK0mY6Y/AoaDUIGwBQKwQQACiDUAJykXCI0pksXpMWhbABAE5AAAGAihBKWhcCSOtA2AAAtyCAAEBVEEpaAwJIc0LYAIB6QgABANsglDQfBJDGh7ABAF6DAAIAjrrw7nv/IJ3J/B/JVGqwWCrhxQZwEMIGADQCBBAAcB1CCUDtEDYAoFEhgACAJyCUAOhD2ACAZoIAAgCehVACrQhhAwCaHQIIADQUhBJoJggbANCKEEAAoOEhlEAjQNgAANiGAAIATelvrl3/VDqT+X8SGxvjCCXgNoQNAAB9CCAA0DIQSsAJCBsAANYggABAS0MoASsQNgAAaocAAgCggFCyLRqJ0GY6rTreKhA2AACcgQACAGBCK4aSVgogCBsAAO5BAAEAqBKHklw+92eJjeSDuXy+6V7GZg0gCBsAAPWFAAIAYKNmCiXNEEAQNgAAvAcBBADAYY0aShotgCBsAAA0BgQQAIA6aIRQ4uUAgrABANC4EEAAADzCa6HEKwEEYQMAoLkggAAAeFg9Q0k9AgjCBgBA80MAAQBoMG/funUqk81+cz2eOOVkKOnsiFIytak6bheEDQCA1oQAAgDQBJwIJT1dXRTf2FAdrwbCBgAASBBAAACaVK2hpNoAgrABAABGEEAAAFqIlVBiJoAgbAAAgFUIIAAALU4vlCgDCMIGAADYAQEEAABUOJTkcrm//+TDD/+R6k4AAIAaIIAAAAAAAIBr2vFSAwAAAACAWxBAAAAAAADANQggAAAAAADgGgQQAAAAAABwDQIIAAAAAAC4BgEEAAAAAABcgwACAAAAAACuQQABAAAAAADXIIAAAAAAAIBrEEAAAAAAAMA1CCAAAAAAAOAaBBAAAAAAAHANAggAAAAAALgGAQQAAAAAAFyDAAIAAAAAAK5BAAEAAAAAANcggAAAAAAAgGsQQAAAAAAAwDUIIAAAAAAA4BoEEAAAAAAAcA0CCAAAAAAAuAYBBAAAAAAAXIMAAgAAAAAArkEAAQAAAAAA1yCAAAAAAACAaxBAAAAAAADANQggAAAAAADgGgQQAAAAAABwDQIIAAAAAAC4BgEEAAAAAABcgwACAAAAAACuQQABAAAAAADXIIAAAAAAAIBrEEAAAAAAAMA1CCAAAAAAAOAaBBAAAAAAAHANAggAAAAAALgGAQQAAAAAAFyDAAIAAAAAAK5BAAEAAAAAANcggAAAAAAAgGsQQAAAAAAAwDUIIAAAAAAA4BoEEAAAAAAAcA0CCAAAAAAAuAYBBAAAAAAAXIMAAgAAAAAArkEAAQAAAAAA1yCAAAAAAACAaxBAAAAAAADANQggAAAAAADgGgQQAAAAAABwDQIIAAAAAAC4BgEEAAAAAABcgwACAAAAAACuQQABAAAAAADXIIAAAAAAAIBrEEAAAAAAAMA1CCAAAAAAAOAaBBAAAAAAAHANAggAAAAAALgGAQQAAAAAAFyDAAIAAAAAAK5BAAEAAAAAANcggAAAAAAAgGsQQAAAAAAAwDUIIAAAAAAA4BoEEAAAAAAAcA0CCAAAAAAAuAYBBAAAAAAAXIMAAgAAAAAArkEAAQAAAAAA1yCAAAAAAACAaxBAAAAAAADANQggAAAAAADgGgQQAAAAAABwDQIIAAAAAAC4BgEEAAAAAABcgwACAAAAAACuQQABAAAAAADXIIAAAAAAAIBrEEAAAAAAAMA1CCAAAAAAAOAaBBAAAAAAAHANAggAAAAAALgGAQQAAAAAAFyDAAIAAAAAAO4gov8fywjI3fK3WzoAAAAASUVORK5CYII=;" vertex="1" parent="I3xwzQkAmhKLlkZfw3kO-19">
          <mxGeometry width="180" height="180" as="geometry" />
        </mxCell>
        <mxCell id="I3xwzQkAmhKLlkZfw3kO-18" value="会計端末" style="text;html=1;align=center;verticalAlign=middle;resizable=0;points=[];autosize=1;strokeColor=none;fillColor=none;" vertex="1" parent="I3xwzQkAmhKLlkZfw3kO-19">
          <mxGeometry x="55" width="70" height="30" as="geometry" />
        </mxCell>
        <mxCell id="I3xwzQkAmhKLlkZfw3kO-20" style="rounded=0;orthogonalLoop=1;jettySize=auto;html=1;entryX=0;entryY=0.375;entryDx=0;entryDy=0;entryPerimeter=0;endArrow=none;startFill=0;" edge="1" parent="1" source="I3xwzQkAmhKLlkZfw3kO-3" target="I3xwzQkAmhKLlkZfw3kO-1">
          <mxGeometry relative="1" as="geometry" />
        </mxCell>
        <mxCell id="I3xwzQkAmhKLlkZfw3kO-23" style="edgeStyle=orthogonalEdgeStyle;rounded=0;orthogonalLoop=1;jettySize=auto;html=1;endArrow=none;startFill=0;" edge="1" parent="1" source="I3xwzQkAmhKLlkZfw3kO-17" target="I3xwzQkAmhKLlkZfw3kO-1">
          <mxGeometry relative="1" as="geometry" />
        </mxCell>
        <mxCell id="I3xwzQkAmhKLlkZfw3kO-25" style="edgeStyle=orthogonalEdgeStyle;rounded=0;orthogonalLoop=1;jettySize=auto;html=1;entryX=0.5;entryY=0;entryDx=0;entryDy=0;entryPerimeter=0;endArrow=none;startFill=0;" edge="1" parent="1" source="I3xwzQkAmhKLlkZfw3kO-11" target="I3xwzQkAmhKLlkZfw3kO-2">
          <mxGeometry relative="1" as="geometry" />
        </mxCell>
      </root>
    </mxGraphModel>
  </diagram>
</mxfile>
